<svg width="56" height="20" viewBox="0 0 56 20" fill="none" xmlns="http://www.w3.org/2000/svg">
<path d="M3.192 13.7822C3.42646 14.4056 3.75106 14.9386 4.16586 15.3813C4.58067 15.824 5.07208 16.1628 5.64012 16.3977C6.20821 16.6326 6.82587 16.75 7.49314 16.75C8.1424 16.75 8.75102 16.6281 9.31911 16.3841C9.88721 16.1401 10.3831 15.7968 10.8069 15.3542C11.2307 14.9115 11.5598 14.383 11.7943 13.7686C12.0287 13.1543 12.1459 12.4677 12.1459 11.7088V0H14.9863V18.9725H12.173V17.2108C11.5418 17.8793 10.7979 18.3942 9.94125 18.7557C9.08459 19.117 8.16042 19.2977 7.16854 19.2977C6.15859 19.2977 5.21634 19.1215 4.34166 18.7692C3.46704 18.4169 2.70956 17.9155 2.0694 17.265C1.42924 16.6144 0.924238 15.8331 0.554567 14.9205C0.184836 14.008 0 12.9917 0 11.8714V0H2.84035V11.7088C2.84035 12.4677 2.95755 13.1588 3.192 13.7822Z" fill="white"/>
<path d="M19.8825 0V6.9114C20.5137 6.27899 21.2441 5.77762 22.0737 5.40717C22.9032 5.03672 23.805 4.85152 24.7787 4.85152C25.7887 4.85152 26.7354 5.04122 27.6191 5.42066C28.5028 5.80011 29.2692 6.31509 29.9184 6.96561C30.5677 7.61613 31.0817 8.38402 31.4604 9.26939C31.8391 10.1548 32.0284 11.0944 32.0284 12.0882C32.0284 13.082 31.8391 14.017 31.4604 14.8934C31.0817 15.7697 30.5677 16.5332 29.9184 17.1836C29.2692 17.8341 28.5028 18.3491 27.6191 18.7285C26.7354 19.108 25.7886 19.2977 24.7787 19.2977C23.8049 19.2977 22.8987 19.1125 22.0601 18.742C21.2216 18.3716 20.4866 17.8702 19.8555 17.2378V18.9724H17.1504V0H19.8825ZM20.1936 13.9583C20.437 14.5366 20.7752 15.0425 21.208 15.4762C21.6409 15.9098 22.1458 16.2532 22.7229 16.5061C23.3 16.7591 23.9221 16.8856 24.5894 16.8856C25.2387 16.8856 25.8518 16.7591 26.4289 16.5061C27.0059 16.2532 27.5063 15.9099 27.9302 15.4762C28.354 15.0426 28.6921 14.5366 28.9446 13.9583C29.1971 13.3801 29.3233 12.7568 29.3233 12.0882C29.3233 11.4196 29.1971 10.7917 28.9446 10.2045C28.6921 9.61723 28.354 9.1068 27.9302 8.67314C27.5064 8.23954 27.006 7.9007 26.4289 7.65679C25.8517 7.41288 25.2386 7.29084 24.5894 7.29084C23.9402 7.29084 23.3271 7.41282 22.75 7.65679C22.1729 7.90076 21.668 8.23954 21.2351 8.67314C20.8023 9.1068 20.4597 9.61723 20.2072 10.2045C19.9547 10.7917 19.8285 11.4196 19.8285 12.0882C19.8284 12.7568 19.9502 13.3801 20.1936 13.9583Z" fill="white"/>
<path d="M33.5702 9.29671C33.9308 8.42939 34.4269 7.666 35.058 7.00649C35.6891 6.34697 36.4376 5.82749 37.3033 5.44804C38.1689 5.0686 39.1067 4.87891 40.1166 4.87891C41.1084 4.87891 42.0282 5.0596 42.8758 5.42094C43.7234 5.78233 44.4537 6.28376 45.0669 6.92522C45.6801 7.56663 46.158 8.32558 46.5006 9.20189C46.8432 10.0783 47.0146 11.0314 47.0146 12.0614V12.9558H35.7884C35.8786 13.5159 36.059 14.0354 36.3295 14.5142C36.6 14.993 36.9381 15.4086 37.3438 15.761C37.7496 16.1133 38.2095 16.3889 38.7235 16.5876C39.2374 16.7864 39.7829 16.8858 40.3601 16.8858C42.0012 16.8858 43.3267 16.2082 44.3366 14.853L46.3113 16.3165C45.626 17.2381 44.7784 17.9609 43.7686 18.4848C42.7586 19.0088 41.6225 19.2708 40.3601 19.2708C39.3321 19.2708 38.3719 19.0901 37.4792 18.7287C36.5865 18.3674 35.811 17.8614 35.1528 17.2109C34.4946 16.5604 33.9761 15.797 33.5974 14.9207C33.2187 14.0444 33.0293 13.0912 33.0293 12.0613C33.0292 11.0856 33.2096 10.164 33.5702 9.29671ZM37.3709 8.22608C36.6044 8.86755 36.095 9.72131 35.8425 10.7874H44.2554C44.021 9.72131 43.5205 8.86755 42.7541 8.22608C41.9876 7.58468 41.0904 7.26395 40.0625 7.26395C39.0345 7.26395 38.1374 7.58468 37.3709 8.22608Z" fill="white"/>
<path d="M52.1271 8.53741C51.5501 9.16981 51.2615 10.0281 51.2615 11.1123V18.9724H48.5293V5.14951H51.2344V6.85704C51.577 6.2969 52.0234 5.85418 52.5734 5.52895C53.1234 5.20366 53.7772 5.04102 54.5347 5.04102H55.4814V7.58876H54.3453C53.4436 7.58882 52.7042 7.905 52.1271 8.53741Z" fill="white"/>
</svg>