<svg width="72" height="19" viewBox="0 0 72 19" fill="none" xmlns="http://www.w3.org/2000/svg">
<path d="M48.2822 0C48.1946 0 48.1946 0 48.2822 0C44.9534 0 42.1502 1.66385 40.5734 4.2034C38.909 1.66385 36.0182 0 32.777 0H32.6894C27.6086 0 23.4914 4.2034 23.579 9.2825C23.579 14.3616 27.6962 18.3899 32.777 18.3899H32.8646C36.1058 18.3899 38.909 16.726 40.5734 14.1865C42.2378 16.726 45.041 18.3899 48.2822 18.3899H48.3698C53.4506 18.3899 57.5678 14.1865 57.4802 9.10736C57.3926 4.11583 53.2754 0 48.2822 0ZM32.777 15.5C31.025 15.5 29.4482 14.887 28.3094 13.661C27.083 12.5226 26.4698 10.9463 26.4698 9.2825C26.4698 7.61866 27.083 6.04239 28.3094 4.81639C29.4482 3.5904 31.025 2.97741 32.777 2.97741H32.8646C34.529 2.97741 36.1058 3.5904 37.3322 4.81639C38.5586 5.95481 39.1718 7.53109 39.1718 9.19493C39.0842 12.6102 36.281 15.5 32.777 15.5ZM48.2822 15.5C46.5302 15.5 44.9534 14.887 43.8146 13.661C42.5882 12.5226 41.975 10.9463 41.975 9.2825C41.975 7.61866 42.5882 6.04239 43.8146 4.81639C44.9534 3.5904 46.5302 2.97741 48.2822 2.97741H48.1946C49.859 2.97741 51.4358 3.5904 52.6622 4.81639C53.8886 5.95481 54.5018 7.53109 54.5018 9.19493C54.5894 12.6102 51.7862 15.5 48.2822 15.5ZM0.890625 0V18.3899C2.46742 18.3899 3.78142 17.0763 3.78142 15.5V2.88984C3.78142 1.31356 2.46742 0 0.890625 0Z" fill="white"/>
<path d="M23.1406 15.5H19.549V2.88984C19.549 1.31356 18.235 0 16.6582 0V18.3899H19.549H26.0314C26.0314 16.8136 24.805 15.5 23.1406 15.5ZM58.6186 0V18.3899C60.1954 18.3899 61.5094 17.0763 61.5094 15.5V2.88984C61.5094 1.31356 60.1954 0 58.6186 0ZM71.1454 14.274L66.0646 9.19493L71.1454 4.11583C72.2842 2.97741 72.2842 1.13842 71.1454 0L61.9474 9.19493L71.1454 18.3899C72.2842 17.2514 72.2842 15.4125 71.1454 14.274ZM8.33624 9.19493L13.417 4.11583C14.5558 2.97741 14.5558 1.13842 13.417 0L4.30664 9.19493L13.5046 18.3899C14.6434 17.2514 14.6434 15.4125 13.5046 14.274L8.33624 9.19493Z" fill="white"/>
</svg>