<svg width="53" height="17" viewBox="0 0 53 17" fill="none" xmlns="http://www.w3.org/2000/svg">
<path fill-rule="evenodd" clip-rule="evenodd" d="M32.7194 13.0694C29.6692 15.3102 25.2481 16.5058 21.4416 16.5058C16.1042 16.5058 11.2993 14.5382 7.66413 11.2658C7.37853 11.0085 7.63443 10.6578 7.97715 10.8582C11.9002 13.1332 16.7508 14.5018 21.7614 14.5018C25.1407 14.5018 28.8581 13.805 32.2761 12.3589C32.7925 12.1403 33.2243 12.6959 32.7194 13.0694Z" fill="white"/>
<path fill-rule="evenodd" clip-rule="evenodd" d="M33.989 11.6233C33.6005 11.1268 31.4117 11.3887 30.4292 11.5048C30.1299 11.5413 30.0842 11.2817 30.3538 11.0949C32.0971 9.87203 34.9577 10.225 35.2913 10.6349C35.6249 11.0471 35.2045 13.9051 33.5663 15.2692C33.3149 15.4787 33.075 15.3671 33.187 15.0893C33.5548 14.1738 34.3797 12.122 33.989 11.6233Z" fill="white"/>
<path fill-rule="evenodd" clip-rule="evenodd" d="M30.4953 2.462V1.27326C30.4953 1.09335 30.6324 0.972656 30.7969 0.972656H36.1365C36.3078 0.972656 36.4449 1.09563 36.4449 1.27326V2.2912C36.4427 2.462 36.2987 2.68517 36.0428 3.03815L33.2759 6.97557C34.3041 6.95052 35.3894 7.1031 36.3216 7.62687C36.5318 7.74529 36.5889 7.91836 36.6049 8.08916V9.3576C36.6049 9.53068 36.4129 9.73335 36.2119 9.6286C34.5691 8.77006 32.3871 8.6767 30.5707 9.63771C30.3856 9.73791 30.1914 9.53751 30.1914 9.36444V8.15975C30.1914 7.96619 30.1937 7.63598 30.3879 7.34221L33.5935 2.76032H30.8037C30.6324 2.76032 30.4953 2.63963 30.4953 2.462Z" fill="white"/>
<path fill-rule="evenodd" clip-rule="evenodd" d="M11.0182 9.87884H9.39369C9.23832 9.86746 9.11494 9.75132 9.10352 9.60329V1.2935C9.10352 1.12726 9.24289 0.995175 9.41654 0.995175H10.9314C11.089 1.002 11.2147 1.1227 11.2261 1.273V2.35927H11.2558C11.6511 1.30944 12.3936 0.819824 13.3944 0.819824C14.4111 0.819824 15.0463 1.30944 15.5033 2.35927C15.8963 1.30944 16.7896 0.819824 17.747 0.819824C18.4278 0.819824 19.1727 1.09993 19.6274 1.72846C20.1414 2.42758 20.0363 3.44325 20.0363 4.33367L20.0341 9.57824C20.0341 9.74448 19.8947 9.87884 19.721 9.87884H18.0988C17.9366 9.86746 17.8064 9.73765 17.8064 9.57824V5.17398C17.8064 4.82328 17.8384 3.94881 17.7607 3.61632C17.6396 3.05839 17.2763 2.90126 16.8056 2.90126C16.4126 2.90126 16.0014 3.16315 15.8346 3.58217C15.6678 4.00118 15.6838 4.70259 15.6838 5.17398V9.57824C15.6838 9.74448 15.5444 9.87884 15.3708 9.87884H13.7485C13.584 9.86746 13.4561 9.73765 13.4561 9.57824L13.4538 5.17398C13.4538 4.24713 13.6069 2.88304 12.4531 2.88304C11.2855 2.88304 11.3312 4.21297 11.3312 5.17398V9.57824C11.3312 9.74448 11.1918 9.87884 11.0182 9.87884" fill="white"/>
<path fill-rule="evenodd" clip-rule="evenodd" d="M41.0424 0.819824C43.4529 0.819824 44.7575 2.88304 44.7575 5.50647C44.7575 8.04108 43.3158 10.0519 41.0424 10.0519C38.6754 10.0519 37.3867 7.9887 37.3867 5.41765C37.3867 2.83066 38.6913 0.819824 41.0424 0.819824ZM41.0561 2.5164C39.8589 2.5164 39.7835 4.14237 39.7835 5.15576C39.7835 6.17143 39.7675 8.3394 41.0424 8.3394C42.3013 8.3394 42.3608 6.59045 42.3608 5.52468C42.3608 4.82328 42.3311 3.98524 42.1186 3.32028C41.9358 2.74185 41.5725 2.5164 41.0561 2.5164Z" fill="white"/>
<path fill-rule="evenodd" clip-rule="evenodd" d="M47.8831 9.87884H46.2654C46.1032 9.86746 45.973 9.73765 45.973 9.57824L45.9707 1.26617C45.9844 1.11359 46.1192 0.995175 46.2837 0.995175H47.7894C47.9311 1.002 48.0476 1.09765 48.0796 1.22746V2.49818H48.1093C48.564 1.36182 49.2014 0.819824 50.3233 0.819824C51.0521 0.819824 51.7627 1.08171 52.2197 1.79905C52.6446 2.46402 52.6446 3.58217 52.6446 4.38604V9.61696C52.6264 9.7627 52.4916 9.87884 52.3316 9.87884H50.7025C50.554 9.86746 50.4307 9.75815 50.4147 9.61696V5.10339C50.4147 4.19475 50.5198 2.86482 49.3979 2.86482C49.0026 2.86482 48.6394 3.12899 48.4589 3.52979C48.2304 4.03762 48.2007 4.54318 48.2007 5.10339V9.57824C48.1984 9.74448 48.0567 9.87884 47.8831 9.87884" fill="white"/>
<path fill-rule="evenodd" clip-rule="evenodd" d="M26.2398 5.90966C26.2398 6.54047 26.2558 7.06652 25.9359 7.62673C25.6777 8.08219 25.2665 8.36229 24.8118 8.36229C24.188 8.36229 23.8225 7.88862 23.8225 7.18949C23.8225 5.80946 25.0631 5.55896 26.2398 5.55896V5.90966ZM27.878 9.85619C27.7706 9.95183 27.6153 9.95867 27.4942 9.8949C26.955 9.44856 26.8567 9.24132 26.562 8.81547C25.6709 9.72183 25.038 9.99283 23.8842 9.99283C22.5156 9.99283 21.4531 9.15251 21.4531 7.4696C21.4531 6.15561 22.166 5.26064 23.185 4.8234C24.067 4.43626 25.2985 4.36794 26.2398 4.26091V4.0514C26.2398 3.66654 26.2695 3.21108 26.041 2.8786C25.8445 2.58028 25.4653 2.4573 25.1294 2.4573C24.5102 2.4573 23.9596 2.77385 23.8248 3.4297C23.7973 3.57545 23.69 3.71892 23.5414 3.72575L21.9672 3.55723C21.8347 3.52763 21.6862 3.42059 21.725 3.21792C22.086 1.31411 23.8133 0.740234 25.3579 0.740234C26.1484 0.740234 27.1811 0.949745 27.8049 1.54639C28.5954 2.28195 28.5201 3.26346 28.5201 4.33151V6.85473C28.5201 7.61307 28.8354 7.94555 29.1324 8.35546C29.2352 8.50121 29.258 8.67656 29.1255 8.78587C28.7942 9.06142 28.2047 9.57381 27.8803 9.86074L27.878 9.85618" fill="white"/>
<path fill-rule="evenodd" clip-rule="evenodd" d="M4.94293 5.90966C4.94293 6.54047 4.95892 7.06652 4.63905 7.62673C4.38087 8.08219 3.97189 8.36229 3.51492 8.36229C2.89117 8.36229 2.52788 7.88862 2.52788 7.18949C2.52788 5.80946 3.76854 5.55896 4.94293 5.55896V5.90966ZM6.58114 9.85619C6.47376 9.95183 6.31839 9.95867 6.19729 9.8949C5.65808 9.44856 5.56211 9.24132 5.26509 8.81547C4.37401 9.72183 3.74341 9.99283 2.58729 9.99283C1.22097 9.99283 0.15625 9.15251 0.15625 7.4696C0.15625 6.15561 0.871396 5.26064 1.88814 4.8234C2.77007 4.43626 4.00159 4.36794 4.94293 4.26091V4.0514C4.94293 3.66654 4.97263 3.21108 4.74644 2.8786C4.54766 2.58028 4.16838 2.4573 3.8348 2.4573C3.21561 2.4573 2.66269 2.77385 2.52788 3.4297C2.50047 3.57545 2.39308 3.71892 2.24685 3.72575L0.670333 3.55723C0.537813 3.52763 0.391585 3.42059 0.428142 3.21792C0.791428 1.31411 2.51646 0.740234 4.06099 0.740234C4.85154 0.740234 5.88427 0.949745 6.50803 1.54639C7.29857 2.28195 7.22317 3.26346 7.22317 4.33151V6.85473C7.22317 7.61307 7.53848 7.94555 7.8355 8.35546C7.9406 8.50121 7.96345 8.67656 7.83093 8.78587C7.49963 9.06142 6.91015 9.57381 6.58571 9.86074L6.58114 9.85618" fill="white"/>
</svg>