<svg width="75" height="16" viewBox="0 0 75 16" fill="none" xmlns="http://www.w3.org/2000/svg">
<path fill-rule="evenodd" clip-rule="evenodd" d="M22.1453 4.52051C20.5397 4.52051 19.5734 5.30499 19.5734 6.59677C19.5734 7.5966 20.1189 8.28869 21.8804 8.90384L22.457 9.10391C23.5481 9.48842 23.8755 9.81128 23.8755 10.3497C23.8755 11.0265 23.2832 11.4417 22.2856 11.4417C21.475 11.4417 20.8359 11.1956 20.228 10.6265C19.9786 10.3804 19.6514 10.3804 19.402 10.6265L19.3863 10.642C19.1837 10.8419 19.1837 11.2417 19.3863 11.4417C20.2125 12.226 21.1165 12.5491 22.2856 12.5491C24.0469 12.5491 25.1225 11.7338 25.1225 10.3342C25.1225 9.24233 24.5769 8.62701 22.8778 8.02714L22.3167 7.82724C21.1633 7.41199 20.8203 7.08896 20.8203 6.55075C20.8203 5.99708 21.3348 5.62785 22.1453 5.62785C22.8155 5.62785 23.3455 5.85866 23.9066 6.35085C24.156 6.58148 24.4989 6.56603 24.7483 6.31993L24.764 6.30465C24.9666 6.10475 24.9666 5.70478 24.7483 5.52017C23.9846 4.82808 23.2052 4.52051 22.1453 4.52051Z" fill="black"/>
<path fill-rule="evenodd" clip-rule="evenodd" d="M38.9328 9.22687V9.25761V9.41149C38.9328 10.5803 38.0911 11.4416 36.735 11.4416C35.675 11.4416 35.0359 10.9648 35.0359 10.0881C35.0359 9.24233 35.7218 8.75014 36.9064 8.75014H38.9328V9.22687ZM37.1092 4.52051C36.1427 4.52051 35.2385 4.78189 34.3657 5.65859C34.1631 5.87394 34.1631 6.28919 34.3657 6.48909L34.3968 6.52C34.6307 6.75064 34.9736 6.75064 35.2074 6.50455C35.8465 5.82775 36.4701 5.62785 37.1092 5.62785C38.2469 5.62785 38.9328 6.25845 38.9328 7.30431V7.68882H36.9064C34.9425 7.68882 33.7891 8.56553 33.7891 10.0881C33.7891 11.5185 34.8956 12.5491 36.4544 12.5491C37.5612 12.5491 38.4185 12.1184 38.9485 11.4263V11.7646C38.9485 12.0722 39.2134 12.3337 39.5407 12.3337H39.5719C39.8836 12.3337 40.1487 12.0722 40.1487 11.7493V7.30431C40.1487 5.56637 39.0108 4.52051 37.1092 4.52051Z" fill="black"/>
<path fill-rule="evenodd" clip-rule="evenodd" d="M70.3117 9.22687V9.25761V9.41149C70.3117 10.5803 69.47 11.4416 68.1139 11.4416C67.0539 11.4416 66.4148 10.9648 66.4148 10.0881C66.4148 9.24233 67.1007 8.75014 68.2853 8.75014H70.3117V9.22687ZM68.4879 4.52051C66.8513 4.52051 65.5731 5.47415 65.5731 6.10458C65.5731 6.25845 65.62 6.41233 65.7291 6.52L65.7602 6.55074C65.8694 6.65842 65.994 6.70445 66.1499 6.70445C66.4148 6.70445 66.6019 6.50455 66.8513 6.25845C67.1631 5.95088 67.6619 5.62785 68.4879 5.62785C69.6258 5.62785 70.3117 6.25845 70.3117 7.30431V7.68882H68.2853C66.3214 7.68882 65.168 8.56553 65.168 10.0881C65.168 11.5185 66.2745 12.5491 67.8333 12.5491C68.9401 12.5491 69.7974 12.1184 70.3274 11.4263V11.7646C70.3274 12.0722 70.5923 12.3337 70.9197 12.3337H70.9508C71.2625 12.3337 71.5276 12.0722 71.5276 11.7493V7.30431C71.5276 5.56637 70.3897 4.52051 68.4879 4.52051Z" fill="black"/>
<path fill-rule="evenodd" clip-rule="evenodd" d="M54.9394 9.19551C54.7835 10.6104 54.0666 11.4411 52.7572 11.4411C51.2765 11.4411 50.5437 10.3643 50.5437 8.53416C50.5437 6.70382 51.2765 5.62722 52.7572 5.62722C54.0821 5.62722 54.7992 6.48864 54.9394 7.93429V9.19551ZM56.1553 10.3183V1.19769C56.1553 0.874832 55.8902 0.613281 55.5629 0.613281H55.5317C55.2045 0.613281 54.9394 0.874832 54.9394 1.19769V5.61194C54.3938 4.90439 53.5833 4.51988 52.5078 4.51988C50.4346 4.51988 49.2969 5.99645 49.2969 8.53416C49.2969 11.0719 50.4346 12.5484 52.5078 12.5484C53.6612 12.5484 54.5186 12.1024 55.0486 11.2872C55.2668 11.9331 55.7811 12.4408 56.2799 12.4408C56.6073 12.4408 56.8879 12.2101 56.8879 11.8716C56.8879 11.2565 56.1553 11.3487 56.1553 10.3183Z" fill="black"/>
<path fill-rule="evenodd" clip-rule="evenodd" d="M44.8551 11.4417C43.3743 11.4417 42.6418 10.3651 42.6418 8.59644V8.4733C42.6418 6.70462 43.3743 5.62802 44.8551 5.62802C46.3047 5.62802 47.0684 6.70462 47.0684 8.53479C47.0684 10.3651 46.3047 11.4417 44.8551 11.4417ZM45.1045 4.52051C44.0289 4.52051 43.2029 4.92048 42.6573 5.6433V5.30499C42.6573 4.99741 42.3924 4.73586 42.0805 4.73586H42.0493C41.7221 4.73586 41.457 4.99741 41.457 5.30499V14.8099C41.457 15.133 41.7221 15.3945 42.0493 15.3945H42.0805C42.4078 15.3945 42.6729 15.133 42.6729 14.8099V11.4417C43.2184 12.1646 44.0289 12.5491 45.1045 12.5491C47.1776 12.5491 48.3155 11.0727 48.3155 8.53479C48.3155 5.99708 47.1776 4.52051 45.1045 4.52051Z" fill="black"/>
<path fill-rule="evenodd" clip-rule="evenodd" d="M60.894 5.62785C62.2813 5.62785 62.9827 6.44307 63.0607 7.87344H58.7585C58.9144 6.45835 59.6158 5.62785 60.894 5.62785ZM63.9492 10.8264C63.6998 10.5958 63.3568 10.5649 63.0762 10.7802C62.4683 11.2417 61.9228 11.4416 61.1434 11.4416C59.647 11.4416 58.8365 10.5034 58.743 8.93458H63.5282C63.9804 8.93458 64.3078 8.61155 64.3078 8.16556C64.3078 5.88923 63.201 4.52051 60.894 4.52051C58.6495 4.52051 57.4805 6.01236 57.4805 8.53479C57.4805 11.057 58.743 12.5491 61.1434 12.5491C62.2813 12.5491 63.0762 12.2722 63.9181 11.5954C64.1518 11.4108 64.1673 11.0418 63.9647 10.8419L63.9492 10.8264Z" fill="black"/>
<path fill-rule="evenodd" clip-rule="evenodd" d="M27.462 11.7493V7.95038C27.462 6.50455 28.1945 5.62785 29.5662 5.62785C30.8912 5.62785 31.468 6.36613 31.468 7.8427V11.7493C31.468 12.0723 31.7329 12.3337 32.0603 12.3337H32.0914C32.4188 12.3337 32.6837 12.0723 32.6837 11.7493V7.81196C32.6837 5.58182 31.8109 4.52051 29.8469 4.52051C28.7713 4.52051 27.9608 4.92048 27.4463 5.6433V5.30499C27.4463 4.99741 27.1814 4.73586 26.8697 4.73586H26.8385C26.5112 4.73586 26.2461 4.99741 26.2461 5.30499V11.7493C26.2461 12.0723 26.5112 12.3337 26.8385 12.3337H26.8697C27.1969 12.3337 27.462 12.0723 27.462 11.7493Z" fill="black"/>
<path fill-rule="evenodd" clip-rule="evenodd" d="M74.1764 12.4408C74.5038 12.4408 74.7844 12.2101 74.7844 11.8716C74.7844 11.2565 74.0518 11.3487 74.0518 10.3183V1.19769C74.0518 0.874832 73.7868 0.613281 73.4594 0.613281H73.4282C73.1008 0.613281 72.8359 0.874832 72.8359 1.19769V10.6413C72.8359 11.5488 73.5062 12.4408 74.1764 12.4408Z" fill="black"/>
<mask id="mask0_595_192" style="mask-type:alpha" maskUnits="userSpaceOnUse" x="0" y="1" width="17" height="15">
<path d="M0.21875 15.4097H16.2939V1.37402H0.21875V15.4097Z" fill="#FF2341"/>
</mask>
<g mask="url(#mask0_595_192)">
<path fill-rule="evenodd" clip-rule="evenodd" d="M3.58038 15.0098C3.75181 15.3021 3.93891 15.4098 4.28178 15.4098H10.6726C11.0156 15.4098 11.2025 15.3174 11.4208 15.0406L16.253 8.88838C16.3619 8.74996 16.2373 8.51932 16.0659 8.51932H8.31894C7.97607 8.51932 7.78897 8.41164 7.61754 8.11953L3.72066 1.47514C3.6272 1.32127 3.37779 1.35218 3.31531 1.50589L0.307103 8.68848C0.166823 9.01151 0.197977 9.22687 0.369412 9.51898L3.58038 15.0098Z" fill="#FF2341"/>
</g>
<path fill-rule="evenodd" clip-rule="evenodd" d="M11.6223 7.07352C11.7937 7.36581 11.9808 7.47348 12.3237 7.47348H16.0646C16.2517 7.47348 16.392 7.24267 16.2986 7.07352L12.7291 0.982976C12.5576 0.690685 12.3705 0.583008 12.0277 0.583008H4.88848C4.70156 0.583008 4.56128 0.813646 4.65474 0.982976L6.50972 4.15129C6.68115 4.44341 6.86808 4.55109 7.21112 4.55109H10.157L11.6223 7.07352Z" fill="#FF2341"/>
</svg>