<svg width="28" height="17" viewBox="0 0 28 17" fill="none" xmlns="http://www.w3.org/2000/svg">
<path d="M1.94359 0.633166C1.74822 0.691908 1.60247 0.772291 1.49393 0.905234C1.33888 1.09073 1.33267 1.11856 1.34508 1.67197C1.35128 1.99041 1.35128 2.5531 1.34508 2.93338C1.33888 3.61354 1.33888 3.61354 1.21173 3.57335C0.957442 3.48679 0.349626 3.52698 0.247289 3.63828C0.160458 3.73103 0.160458 3.73103 0.259694 3.69702C0.33412 3.67538 0.358929 3.68465 0.340322 3.73103C0.327918 3.77122 0.281401 3.79905 0.247289 3.78977C0.206975 3.78359 0.182166 3.8887 0.182166 4.0773C0.182166 4.24425 0.163559 4.47612 0.148054 4.58433C0.126346 4.7451 0.148054 4.81621 0.268997 4.94297C0.408547 5.09137 0.455063 5.10373 0.870611 5.10373C1.25825 5.10373 1.32647 5.12228 1.35128 5.20267C1.38539 5.33561 1.34508 11.9147 1.31097 12.0075C1.29236 12.06 1.16211 12.0817 0.910925 12.0817C0.659736 12.0817 0.476771 12.1157 0.36203 12.1806C0.188368 12.2857 0.182166 12.295 0.175964 12.7464C0.163559 13.6646 0.188368 13.6986 0.917127 13.6986H1.404L1.38539 14.8054C1.36369 16.3636 1.4071 16.4316 2.5297 16.4935C4.19499 16.58 9.06993 16.6141 9.87001 16.546C10.1491 16.5244 10.3972 16.5182 10.667 16.5244C11.0422 16.5306 11.1353 16.5244 11.2035 16.4595C11.2624 16.4131 11.2841 16.4131 11.2841 16.4595C11.2841 16.4935 11.312 16.5244 11.343 16.5244C11.3771 16.5244 11.402 16.4718 11.402 16.4038C11.402 16.3389 11.3802 16.3049 11.343 16.3234C11.3151 16.342 11.2841 16.3296 11.2841 16.2956C11.2841 16.1905 11.4237 16.2616 11.4857 16.4007C11.5446 16.5275 11.5601 16.5275 12.844 16.5275C13.5603 16.5275 14.5434 16.546 15.0302 16.5615C16.342 16.6141 18.398 16.5399 18.398 16.4347C18.398 16.3884 18.426 16.3544 18.4632 16.3544C18.4973 16.3544 18.5159 16.3945 18.4911 16.4409C18.4694 16.5151 18.5314 16.5275 18.9066 16.5275C19.1485 16.5337 20.4851 16.5399 21.8806 16.546C23.2699 16.5522 24.3894 16.5399 24.3739 16.512C24.3615 16.4904 24.3925 16.4718 24.4421 16.4718C24.501 16.4718 24.5165 16.4997 24.4948 16.5399C24.4266 16.6481 25.9399 16.5584 26.1942 16.4316C26.616 16.2245 26.6408 16.1379 26.6439 14.8858C26.6501 14.2675 26.6656 13.7264 26.6904 13.6739C26.7121 13.6059 26.7586 13.5935 26.8516 13.6213C27.0191 13.6801 27.6486 13.6491 27.7665 13.5873C27.8409 13.5409 27.8347 13.5347 27.7479 13.5286C27.6827 13.5286 27.6486 13.5007 27.6672 13.4544C27.6796 13.4204 27.72 13.3894 27.7479 13.3956C27.8223 13.4142 27.8812 12.4898 27.8161 12.3754C27.6765 12.128 27.6548 12.1157 27.1276 12.0878L26.6005 12.06L26.5881 8.58187L26.5694 5.10992H27.0842C27.5587 5.10992 27.599 5.09755 27.7386 4.94915C27.8595 4.82239 27.8843 4.75437 27.8595 4.59052C27.8409 4.48231 27.8254 4.25043 27.8254 4.08966C27.8254 3.89489 27.8037 3.78977 27.7603 3.80214C27.7262 3.80832 27.6796 3.7805 27.6672 3.73721C27.6486 3.69084 27.6734 3.67847 27.7479 3.7032C27.8409 3.73721 27.8409 3.73103 27.7665 3.65064C27.6734 3.55171 27.1028 3.50534 26.8423 3.57644C26.5819 3.64446 26.5601 3.58263 26.5229 2.54382C26.4578 0.939242 26.3369 0.710458 25.5461 0.7321C25.3135 0.738283 25.0964 0.725916 25.0592 0.710458C24.9972 0.654808 24.0141 0.586791 23.518 0.586791C23.3257 0.592974 22.9908 0.592974 22.7675 0.592974C22.5473 0.592974 21.403 0.605341 20.2215 0.611524C19.0462 0.617707 17.8615 0.630074 17.5887 0.639349C17.3158 0.648624 16.9808 0.660991 16.8382 0.657899C14.593 0.623891 12.7323 0.611524 12.6331 0.636258C12.5587 0.654808 12.5059 0.688816 12.5184 0.710458C12.5246 0.7321 12.5059 0.756833 12.4718 0.763016C12.4439 0.775383 12.4129 0.744466 12.4129 0.704274C12.4129 0.651716 12.1338 0.636258 11.2283 0.636258C10.3073 0.636258 10.0499 0.654808 10.053 0.704274C10.0654 0.744466 10.0313 0.778475 9.97855 0.778475C9.93203 0.778475 9.90412 0.756833 9.91963 0.725916C9.98785 0.620799 9.61262 0.605341 6.97668 0.605341C5.51296 0.605341 3.84767 0.592974 3.27396 0.583699C2.51419 0.565149 2.15137 0.580607 1.94359 0.633166ZM13.6999 2.19446C21.617 2.20683 24.2374 2.18828 24.2374 2.14191C24.2374 2.08935 24.256 2.09553 24.2839 2.14191C24.3056 2.1821 24.4576 2.22229 24.6126 2.22847L24.9011 2.24702L24.9073 2.53455C24.9197 2.99521 24.9941 7.65437 24.9879 7.7533C24.9693 8.24488 24.9879 11.9518 25.0158 13.2441C25.0437 14.5364 25.0375 14.9044 24.9817 14.9384C24.9414 14.96 24.7212 14.9724 24.501 14.9662C24.0731 14.9476 22.5101 14.9476 16.5188 14.9538C13.4115 14.96 13.0083 14.9724 13.0362 15.0466C13.0579 15.1053 13.03 15.1331 12.9556 15.1331C12.8812 15.1331 12.8502 15.1053 12.875 15.0466C12.9029 14.9724 12.5401 14.9662 9.96614 14.9662C8.35357 14.9724 6.55493 14.9878 5.96882 15.0064C5.38892 15.028 4.91755 15.028 4.91755 15.0002C4.91755 14.9322 4.71598 14.9538 4.63845 15.028C4.58573 15.0806 4.55162 15.0868 4.52371 15.0404C4.502 14.994 4.2229 14.9724 3.76704 14.9662C3.3732 14.96 3.02588 14.9445 3.00417 14.926C2.97626 14.9074 2.95145 14.691 2.95145 14.4313C2.95145 14.0449 2.93905 13.9769 2.86462 14.0047C2.8057 14.0263 2.77779 13.9985 2.77779 13.9243C2.77779 13.8501 2.8057 13.8192 2.86462 13.8439C2.93905 13.8717 2.95145 13.6182 2.95765 11.7849C2.97936 4.88732 2.97936 4.9677 2.89873 4.93987C2.85222 4.92132 2.83981 4.89968 2.88012 4.87495C2.96696 4.82239 2.97936 4.12676 2.89873 3.87015C2.85842 3.75576 2.84601 3.629 2.87702 3.58881C2.89873 3.54862 2.92354 3.22399 2.93594 2.88082C2.94215 2.52837 2.94835 2.21301 2.94835 2.16664C2.95455 2.11408 2.98866 2.10171 3.05689 2.13881C3.10961 2.16046 7.90081 2.18828 13.6999 2.19446Z" fill="white"/>
<path d="M21.3069 3.64772L20.0758 3.66009L19.8494 3.8796C19.6572 4.0651 19.6168 4.1393 19.5889 4.41137C19.5238 4.9586 19.5238 5.72533 19.5765 6.94964C19.6044 7.60198 19.623 8.23578 19.6106 8.36254C19.5982 8.48929 19.5889 9.54974 19.5889 10.7277L19.5827 12.8609L19.7223 13.0866C19.7967 13.2072 19.9425 13.3401 20.0448 13.3865C20.2774 13.4854 22.6001 13.5071 22.9071 13.4143C23.1893 13.3278 23.4157 13.0402 23.4498 12.7218C23.5087 12.1622 23.4839 7.90188 23.4219 7.74111L23.3568 7.58652H22.5629C22.0264 7.58652 21.7473 7.60817 21.7008 7.65454C21.6543 7.70092 21.6326 7.92661 21.6326 8.27597V8.82938L21.8062 8.92831L21.9799 9.03343L21.9861 9.67959C21.9861 10.0382 21.9861 10.6133 21.9799 10.9719C21.9737 11.3584 21.9985 11.6583 22.0388 11.7201C22.0853 11.7943 22.0915 11.8685 22.045 11.9798C21.9861 12.1344 21.9799 12.1344 21.5488 12.1127C21.0558 12.0911 20.9658 12.054 21.0558 11.9396C21.1209 11.8592 21.1488 7.82768 21.0961 5.93248L21.0682 5.00497L21.4837 4.98333C22.1039 4.95551 22.0977 4.94932 22.0977 5.36361C22.0977 5.56457 22.1256 5.75007 22.166 5.79026C22.2187 5.84282 22.2187 5.85828 22.166 5.85828C22.0388 5.85828 22.0915 6.01904 22.2311 6.04996C22.4389 6.09015 23.2544 6.05614 23.3134 5.9974C23.3351 5.96958 23.3723 5.52437 23.3878 5.00497L23.4095 4.05892L23.2482 3.89815C23.1087 3.75903 22.9877 3.71265 22.6001 3.65082C22.5629 3.63845 21.9768 3.63845 21.3069 3.64772ZM4.77807 3.75903C4.72535 3.81158 4.70985 4.1393 4.72535 4.94005C4.74396 6.23237 4.73776 6.13344 4.80598 6.02523C4.8525 5.95721 4.8649 5.97267 4.8649 6.09324C4.8649 6.17363 4.83699 6.25401 4.79668 6.26638C4.74396 6.28493 4.72845 6.53226 4.72845 7.12586C4.72225 7.84623 4.70985 7.97917 4.62302 8.06573C4.53618 8.14612 4.51758 8.27288 4.51758 8.80465C4.51758 9.1571 4.53618 9.42607 4.55789 9.41061C4.61061 9.35806 4.80598 9.53737 4.80598 9.64249C4.80598 9.68268 4.78737 9.71669 4.76567 9.71669C4.73776 9.71669 4.71295 10.5082 4.70054 11.4759C4.69434 12.4436 4.71295 13.235 4.73466 13.235C4.76257 13.235 4.81528 13.2999 4.8494 13.3803C4.91452 13.5195 4.93623 13.5256 5.49132 13.5256C6.34723 13.5256 6.30071 13.6308 6.28521 11.5315C6.2728 10.6133 6.2635 9.83727 6.25109 9.80635C6.18597 9.55902 6.21698 9.54665 7.03877 9.54665C7.92879 9.54665 8.26371 9.48172 8.46218 9.27458L8.59553 9.12927L8.61413 6.6281C8.62654 4.94314 8.60793 4.08365 8.56762 4.00945C8.42187 3.74357 8.26681 3.72192 6.50228 3.70337C5.28045 3.6941 4.82149 3.70647 4.77807 3.75903ZM7.06048 5.14101C7.06668 5.19975 7.06668 5.81499 7.07289 6.51371C7.07289 7.21243 7.09149 7.73492 7.1008 7.67927C7.14731 7.50614 7.23414 7.57416 7.23414 7.78748C7.23414 7.95443 7.21554 7.98844 7.14111 7.96062C7.07599 7.93898 7.06048 7.95443 7.08219 8.02863C7.1101 8.1152 7.07599 8.12757 6.72866 8.10902C6.50849 8.09665 6.31312 8.05028 6.2666 8.01008C6.17357 7.91733 6.16736 7.75038 6.2542 7.75038C6.29451 7.75038 6.30691 7.34537 6.28211 6.43024C6.2697 5.70369 6.2697 5.09154 6.28831 5.07608C6.31002 5.05753 6.48988 5.04207 6.69455 5.04207C7.00466 5.04516 7.06048 5.06062 7.06048 5.14101ZM9.72743 3.74048C9.62819 3.85487 9.66231 5.13482 9.76774 5.11318C9.80186 5.107 9.83597 5.14101 9.83597 5.18738C9.83597 5.23376 9.80186 5.26776 9.76774 5.2554C9.71503 5.24921 9.68712 5.34196 9.67471 5.54911C9.66231 5.79026 9.67471 5.849 9.73363 5.81499C9.79255 5.78098 9.79255 5.78717 9.74604 5.85518C9.653 5.97576 9.59098 12.5085 9.67781 12.8949C9.73053 13.1021 9.79255 13.2134 9.93831 13.3154L10.1306 13.4638L11.647 13.4422C13.3371 13.4205 13.4581 13.3896 13.641 13.0372C13.7682 12.7898 13.8209 10.8452 13.7899 7.45977C13.7775 6.08088 13.7682 4.70817 13.7682 4.42064C13.7682 4.08674 13.7465 3.87342 13.703 3.8425C13.6627 3.82395 13.6224 3.83632 13.61 3.87033C13.5821 3.96926 13.4829 3.95689 13.4829 3.85178C13.4829 3.78376 13.3898 3.76521 12.9898 3.76521C12.1959 3.76521 12.2548 3.57352 12.261 6.23237C12.2672 7.45977 12.2827 8.81083 12.3013 9.22511C12.3293 9.77234 12.32 9.99185 12.2734 9.99185C12.168 9.99185 12.199 10.2114 12.3137 10.2732C12.382 10.3196 12.3944 10.3474 12.3417 10.3783C12.3013 10.4123 12.2672 10.6968 12.2548 11.2131C12.2362 11.8809 12.2207 12.02 12.1339 12.1066C12.0347 12.2055 12.0253 12.2055 11.954 12.1066C11.8672 11.9984 11.6253 11.9798 11.4516 12.0726C11.278 12.1591 11.0981 11.9922 11.1446 11.785C11.1849 11.6119 11.2129 6.82597 11.1849 5.09154L11.1632 3.90433L10.9152 3.77139C10.7477 3.67864 10.6267 3.64463 10.5554 3.67864C10.4469 3.72502 10.0592 3.72502 9.89179 3.67246C9.83907 3.67246 9.76774 3.6941 9.72743 3.74048ZM14.8815 3.73429C14.8163 3.82086 14.7946 5.91393 14.8598 6.19527C14.8877 6.30348 14.8877 6.57554 14.8722 6.80124C14.8505 7.02693 14.8536 7.23407 14.8846 7.27426C14.959 7.36701 14.8846 7.58034 14.7791 7.58034C14.7326 7.58034 14.7109 7.60817 14.7264 7.63908C14.745 7.67309 14.7202 7.73802 14.6737 7.78748C14.5683 7.8926 14.5403 8.69953 14.6396 8.76136C14.6737 8.77991 14.6985 8.84793 14.6985 8.90667C14.6985 8.96541 14.7264 9.02106 14.7636 9.03343C14.8163 9.05198 14.8318 9.56829 14.8318 10.9255C14.8256 12.0107 14.8505 12.8269 14.8846 12.8702C14.9125 12.9042 14.9125 12.9506 14.8908 12.963C14.8629 12.9815 14.8505 13.1021 14.8629 13.2288L14.8846 13.4638L16.4289 13.4453C18.7299 13.4267 18.5966 13.5906 18.6028 10.7524C18.6028 8.84484 18.5966 8.75827 18.488 8.64079C18.1407 8.26669 18.1004 8.19558 18.1934 8.14612C18.426 8.01936 18.4818 7.75347 18.4942 6.8878C18.5004 6.42714 18.5129 5.5893 18.5222 5.02661C18.5408 4.05892 18.5346 3.99399 18.4167 3.88578C18.2369 3.70647 17.9671 3.67246 16.3979 3.66627C15.3032 3.66627 14.928 3.67864 14.8815 3.73429ZM17.046 5.05135C17.0801 5.11009 17.0801 5.54602 17.046 7.23716C17.0398 7.65763 17.0119 7.68237 16.5778 7.61126L16.3297 7.57725L16.2956 7.0764C16.277 6.79815 16.2615 6.53535 16.2553 6.48898C16.2553 6.4426 16.2739 6.08397 16.2956 5.69442L16.3359 4.98951H16.6708C16.8538 4.98642 17.0212 5.01425 17.046 5.05135ZM17.0212 9.10454C17.0429 9.13855 17.0677 9.58375 17.0677 10.0908C17.0677 10.5978 17.0739 11.2502 17.0739 11.5439C17.0801 11.8314 17.0677 12.0973 17.046 12.1251C16.9995 12.1993 16.3979 12.1715 16.2987 12.0849C16.2335 12.0324 16.2242 11.9643 16.2584 11.8067C16.2863 11.6923 16.3111 11.0399 16.3111 10.3536C16.3111 9.28076 16.3235 9.10145 16.4041 9.0458C16.5126 8.96541 16.9592 9.00561 17.0212 9.10454Z" fill="white"/>
</svg>