<svg width="75" height="29" viewBox="0 0 75 29" fill="none" xmlns="http://www.w3.org/2000/svg">
<path fill-rule="evenodd" clip-rule="evenodd" d="M5.15655 7.06596C3.17396 9.26191 1.96819 12.1657 1.96819 15.3512C1.96819 18.5367 3.17396 21.4406 5.15655 23.6365L4.39597 24.3177C2.25108 21.942 0.945312 18.7979 0.945312 15.3512C0.945312 11.9046 2.25108 8.76042 4.39597 6.38477L5.15655 7.06596ZM26.8582 15.3512C26.8582 12.1657 25.6524 9.26191 23.6698 7.06596L24.4304 6.38477C26.5753 8.76042 27.8811 11.9046 27.8811 15.3512C27.8811 18.7979 26.5753 21.942 24.4304 24.3177L23.6698 23.6365C25.6524 21.4406 26.8582 18.5367 26.8582 15.3512Z" fill="#AB0000"/>
<path fill-rule="evenodd" clip-rule="evenodd" d="M14.4118 0.547852L24.4701 4.12579V28.7662H4.35352V4.12579L14.4118 0.547852ZM5.37639 4.84376V27.7474H23.4472V4.84376L14.4118 1.62968L5.37639 4.84376Z" fill="#AB0000"/>
<path fill-rule="evenodd" clip-rule="evenodd" d="M8.03711 12.126H10.4379C11.3275 12.126 12.0946 12.7485 12.2744 13.6163L12.4936 14.6743L13.1291 17.8992H15.697L16.3325 14.6743L16.5517 13.6163C16.7314 12.7485 17.4986 12.126 18.3882 12.126H20.789V13.4165C20.789 14.448 19.9494 15.2843 18.9137 15.2843H17.2546L16.5759 18.7289L14.9245 19.7158V20.806L18.8637 22.7045L18.4181 23.6216L14.4131 21.6913L10.4079 23.6216L9.96239 22.7045L13.9016 20.806V19.7158L12.2502 18.7289L11.5714 15.2843H9.91239C8.87672 15.2843 8.03711 14.448 8.03711 13.4165V12.126ZM11.3645 14.2655H9.91239C9.44165 14.2655 9.05997 13.8854 9.05997 13.4165V13.1448H10.4379C10.8422 13.1448 11.191 13.4277 11.2727 13.8222L11.3645 14.2655ZM17.4616 14.2655H18.9137C19.3845 14.2655 19.7661 13.8854 19.7661 13.4165V13.1448H18.3882C17.9839 13.1448 17.6351 13.4277 17.5534 13.8222L17.4616 14.2655Z" fill="#AB0000"/>
<path fill-rule="evenodd" clip-rule="evenodd" d="M4.86719 4.99414H23.9609V6.01294H4.86719V4.99414Z" fill="#AB0000"/>
<path fill-rule="evenodd" clip-rule="evenodd" d="M4.86719 25.0308H23.9609V26.0496H4.86719V25.0308Z" fill="#AB0000"/>
<path fill-rule="evenodd" clip-rule="evenodd" d="M7.56055 8.56033V5.50391H8.58341V8.56033H7.56055Z" fill="#AB0000"/>
<path fill-rule="evenodd" clip-rule="evenodd" d="M10.7637 8.56033V5.50391H11.7866V8.56033H10.7637Z" fill="#AB0000"/>
<path fill-rule="evenodd" clip-rule="evenodd" d="M13.9707 8.56033V5.50391H14.9936V8.56033H13.9707Z" fill="#AB0000"/>
<path fill-rule="evenodd" clip-rule="evenodd" d="M7.5155 8.05029H21.3081L24.4701 13.0307V16.9551L17.2507 26.0492H11.5729L4.35352 16.9551V13.0307L7.5155 8.05029ZM8.07891 9.06915L5.37639 13.3258V16.601L12.0681 25.0304H16.7555L23.4472 16.601V13.3258L20.7447 9.06915H8.07891Z" fill="#AB0000"/>
<path fill-rule="evenodd" clip-rule="evenodd" d="M17.1738 8.56033V5.50391H18.1967V8.56033H17.1738Z" fill="#AB0000"/>
<path fill-rule="evenodd" clip-rule="evenodd" d="M20.3105 8.56033V5.50391H21.3335V8.56033H20.3105Z" fill="#AB0000"/>
<path fill-rule="evenodd" clip-rule="evenodd" d="M7.08203 25.5396V20.106H8.10495V25.5396H7.08203Z" fill="#AB0000"/>
<path fill-rule="evenodd" clip-rule="evenodd" d="M20.7207 25.5396V20.106H21.7436V25.5396H20.7207Z" fill="#AB0000"/>
<path d="M36.7212 7.7766H37.5145V6.28329C37.0804 5.96972 36.2124 5.61133 35.4041 5.61133C33.668 5.98465 32.6952 6.56705 32.6952 7.61232C32.6952 8.4486 33.3088 9.01601 33.9523 9.34453L35.1347 9.95681C35.913 10.36 36.2273 10.6139 36.2273 11.1962C36.2273 11.8234 35.8232 12.3311 35.0299 12.3311C34.551 12.3311 34.117 12.1669 33.8027 11.9578L33.2938 10.7184H32.3359L32.6203 12.4058C33.0095 12.6298 33.9823 13.0778 34.8953 13.0778C36.6164 12.7044 37.709 12.1967 37.709 10.8527C37.709 10.0016 37.3049 9.43415 36.3021 8.92645L35.1497 8.34402C34.4762 8.0006 34.102 7.70194 34.102 7.22409C34.102 6.65662 34.6558 6.34305 35.2395 6.34305C35.7783 6.34305 36.2273 6.58195 36.377 6.67157L36.7212 7.7766Z" fill="#AB0000"/>
<path d="M39.7858 6.68651V11.1365C39.7858 12.4805 40.0103 13.0778 41.6866 13.0778L43.4377 12.1071L43.1832 11.5994C42.7642 11.8085 42.4349 11.9578 42.0009 11.9578C41.3723 11.9578 41.2076 11.4949 41.2076 11.0619V6.68651H43.4526V6.01456H41.1926V3.96875H40.8035L39.8306 4.93939V5.91002H38.8578L38.334 6.43266V6.68651H39.7858Z" fill="#AB0000"/>
<path d="M47.756 5.61133C45.4362 5.99959 44.0742 7.2689 44.0742 9.50882C44.0742 11.5397 45.4212 13.0778 47.4118 13.0778C49.7317 12.7044 51.0937 11.4202 51.0937 9.1952C51.0937 7.16432 49.7466 5.61133 47.756 5.61133ZM45.5709 9.1952C45.5709 7.56756 46.1695 6.34305 47.3819 6.34305C48.684 6.34305 49.597 7.61232 49.597 9.50882C49.597 11.1216 48.9833 12.3461 47.786 12.3461C46.4539 12.3461 45.5709 10.8976 45.5709 9.1952Z" fill="#AB0000"/>
<path d="M55.9597 11.2112L55.3311 11.6442C55.1365 11.7786 54.7774 12.0324 54.3583 12.0324C53.9242 12.0324 53.4902 11.7637 53.4902 11.0021C53.4902 10.6885 53.5651 10.3899 53.7896 10.1659L55.9597 9.26987V11.2112ZM52.3078 6.80595V7.94084H53.595L53.8494 6.76114C54.1787 6.62676 54.6726 6.49239 55.0767 6.49239C55.8849 6.49239 55.9597 7.02995 55.9597 7.92594V8.6726L52.5922 9.79253C52.263 10.2405 52.0684 10.6288 52.0684 11.1664C52.0684 12.361 52.9813 13.0778 54.2685 13.0778L56.0495 11.7786L56.5135 12.9284L58.4443 12.5551L58.3845 12.0324H57.6361C57.4866 11.7935 57.3816 11.5546 57.3816 10.9125V7.98565C57.3816 6.08918 56.9027 5.61133 55.0168 5.61133L52.3078 6.80595Z" fill="#AB0000"/>
<path d="M36.7212 21.05H37.5145V19.5567C37.0804 19.2431 36.2124 18.8848 35.4041 18.8848C33.668 19.2581 32.6952 19.8405 32.6952 20.8857C32.6952 21.722 33.3088 22.2894 33.9523 22.6179L35.1347 23.2302C35.913 23.6334 36.2273 23.8873 36.2273 24.4696C36.2273 25.0968 35.8232 25.6045 35.0299 25.6045C34.551 25.6045 34.117 25.4403 33.8027 25.2312L33.2938 23.9918H32.3359L32.6203 25.6792C33.0095 25.9032 33.9823 26.3512 34.8953 26.3512C36.6164 25.9779 37.709 25.4701 37.709 24.1262C37.709 23.275 37.3049 22.7076 36.3021 22.1999L35.1497 21.6175C34.4762 21.274 34.102 20.9754 34.102 20.4975C34.102 19.93 34.6558 19.6165 35.2395 19.6165C35.7783 19.6165 36.2273 19.8554 36.377 19.945L36.7212 21.05Z" fill="#AB0000"/>
<path d="M43.3774 21.1247H44.4849V19.6314C44.0359 19.2282 43.108 18.8848 42.4195 18.8848C40.5786 19.3328 38.8574 20.4527 38.8574 22.7971C38.8574 25.0968 40.2792 26.3512 42.195 26.3512C43.1828 26.0376 43.9461 25.6643 44.6346 25.1715L44.3951 24.604C43.8713 24.9475 43.2726 25.2312 42.7039 25.2312C41.2371 25.2312 40.369 24.0366 40.369 22.4388C40.369 20.8111 41.1473 19.6762 42.1651 19.6762C42.5692 19.6762 42.7937 19.7359 43.0331 19.9151L43.3774 21.1247Z" fill="#AB0000"/>
<path d="M48.0053 21.0352L48.4543 20.7515C49.008 20.4081 49.5918 20.0795 50.0408 20.0795C50.6395 20.0795 50.9986 20.423 50.9986 21.1995V25.4703L50.2653 25.6197L50.3401 26.1423L51.747 26.0975L53.4682 26.1423L53.543 25.6197L52.4205 25.4703V21.4982C52.4205 19.6017 52.1062 18.8849 50.1905 18.8849L48.0053 20.3035V15.4653L47.2569 15.525L45.4609 15.9879L45.5358 16.4957L46.5834 16.4658V25.4703L45.5358 25.6197L45.6106 26.1423L47.3318 26.0975L48.7536 26.1423L48.8285 25.6197L48.0053 25.4703V21.0352Z" fill="#AB0000"/>
<path d="M58.0023 18.8848C55.6823 19.273 54.3203 20.5423 54.3203 22.7822C54.3203 24.8131 55.6673 26.3512 57.658 26.3512C59.9776 25.9779 61.34 24.6936 61.34 22.4686C61.34 20.4378 59.9928 18.8848 58.0023 18.8848ZM55.817 22.4686C55.817 20.841 56.4157 19.6165 57.6281 19.6165C58.9301 19.6165 59.8433 20.8857 59.8433 22.7822C59.8433 24.395 59.2292 25.6195 58.0322 25.6195C56.7 25.6195 55.817 24.171 55.817 22.4686Z" fill="#AB0000"/>
<path d="M66.07 18.8848C63.7505 19.273 62.3887 20.5423 62.3887 22.7822C62.3887 24.8131 63.7353 26.3512 65.7263 26.3512C68.0459 25.9779 69.4077 24.6936 69.4077 22.4686C69.4077 20.4378 68.0611 18.8848 66.07 18.8848ZM63.8854 22.4686C63.8854 20.841 64.4836 19.6165 65.6964 19.6165C66.9984 19.6165 67.911 20.8857 67.911 22.7822C67.911 24.395 67.2975 25.6195 66.1005 25.6195C64.768 25.6195 63.8854 24.171 63.8854 22.4686Z" fill="#AB0000"/>
<path d="M73.9731 26.1423L74.0476 25.6197L72.925 25.4703V15.4653L72.1767 15.525L70.3809 15.9879L70.4554 16.5106L71.5034 16.4807V25.4703L70.4554 25.6197L70.5304 26.1423L72.2517 26.0975L73.9731 26.1423Z" fill="#AB0000"/>
</svg>