<svg width="61" height="13" viewBox="0 0 61 13" fill="none" xmlns="http://www.w3.org/2000/svg">
<path d="M9.37441 3.87481L9.32 5.48299L4.75858 10.0422C6.66397 10.0422 7.87216 10.0251 8.56887 9.98952C8.36694 10.8548 8.20274 11.5621 8.03733 12.6226C7.12103 12.5514 5.69253 12.5336 4.26331 12.5336C2.67012 12.5336 1.27766 12.5512 0.160156 12.6226L0.197398 10.9962L4.75858 6.45518C2.76178 6.45518 2.02879 6.47253 1.20487 6.49032C1.38745 5.67734 1.51586 4.77652 1.64403 3.87481C3.09115 3.92774 3.65897 3.94508 5.54598 3.94508C7.28644 3.9453 8.27505 3.92774 9.37441 3.87481ZM14.559 3.39716C11.5906 3.39716 9.32 5.83589 9.32 8.7527C9.32 10.9437 10.6936 12.6226 13.368 12.6226C16.3541 12.6226 18.6073 10.1834 18.6073 7.24949C18.6075 5.07694 17.2697 3.39716 14.559 3.39716ZM13.6611 10.2786C13.0014 10.2786 12.6171 9.73001 12.6171 8.65219C12.6171 7.04402 13.3315 5.75428 14.2113 5.75428C14.8519 5.75428 15.2366 6.28485 15.2366 7.37979C15.2364 8.97018 14.5409 10.2786 13.6611 10.2786ZM56.516 3.27619C53.5096 3.27619 51.2086 5.74716 51.2086 8.70067C51.2086 10.9215 52.6003 12.6226 55.3098 12.6226C58.3348 12.6226 60.6177 10.1514 60.6177 7.17944C60.618 4.97754 59.2637 3.27619 56.516 3.27619ZM55.5499 10.2693C54.89 10.2693 54.5059 9.72067 54.5059 8.64285C54.5059 7.03468 55.2205 5.74516 56.1001 5.74516C56.7404 5.74516 57.1259 6.27529 57.1259 7.37045C57.1254 8.96151 56.4292 10.2693 55.5499 10.2693ZM34.0129 6.5786C34.2514 5.07694 34.1232 3.71582 32.3099 3.71582C30.9907 3.71582 29.562 4.74094 28.5545 6.45518C28.7746 5.04092 28.6459 3.71582 26.8508 3.71582C25.4954 3.71582 24.0299 4.79364 23.0219 6.5786C23.2785 5.41227 23.2238 4.08651 23.1503 3.80388C22.1063 3.96309 21.1908 4.05115 19.9081 4.08651C19.9449 4.89971 19.8897 5.9593 19.7248 6.96752L19.3035 9.61794C19.1386 10.6611 18.9553 11.8628 18.772 12.6228H22.1794C22.198 12.1627 22.3264 11.4385 22.4178 10.8023L22.7109 8.98241C22.9489 7.79763 23.9745 6.40226 24.7621 6.40226C25.2202 6.40226 25.2023 6.80853 25.0739 7.56836L24.744 9.61772C24.5786 10.6609 24.396 11.8625 24.2125 12.6226H27.6564C27.675 12.1625 27.7848 11.4383 27.8762 10.8021L28.1691 8.98219C28.4075 7.7974 29.4338 6.40204 30.221 6.40204C30.6795 6.40204 30.6614 6.79029 30.5874 7.32087L29.7647 12.6224H32.9077L34.0129 6.5786ZM50.4698 9.84809L50.1034 11.9337C49.5353 12.2163 48.4727 12.623 47.2454 12.623C45.157 12.623 44.7362 11.5979 45.0653 9.42426L45.5969 5.92506H44.5691L44.8593 3.66L45.9814 3.61019L46.4029 1.96666L49.5716 0.870605L49.169 3.60997H51.3491C51.276 3.8926 51.0187 5.4483 50.9467 5.92483H48.8205L48.3441 9.15897C48.2159 9.98952 48.2897 10.2902 48.9116 10.2902C49.3706 10.2897 50.0478 10.0422 50.4698 9.84809ZM38.4498 10.9746C39.6031 10.8432 40.3968 9.82096 40.5876 8.80096L40.6197 8.52766C40.1242 8.42582 39.4079 8.34821 38.7134 8.42626C38.052 8.50031 37.5016 8.75315 37.2056 9.11917C36.9824 9.38201 36.8701 9.69644 36.92 10.0714C36.9952 10.6328 37.6706 11.062 38.4498 10.9746ZM37.4682 12.5899C35.8404 12.7738 34.7684 12.1796 34.4465 10.8283C34.2446 9.97795 34.5249 9.00932 35.0151 8.43138C35.6716 7.67555 36.7415 7.19034 38.0471 7.04379C39.0979 6.92394 39.9832 6.98309 40.8113 7.12718L40.8456 6.99665C40.8693 6.78785 40.8932 6.57949 40.8601 6.32999C40.7743 5.68934 40.2248 5.30776 38.8682 5.46119C37.9528 5.5646 37.082 5.86857 36.4058 6.21458L35.748 4.38693C36.6646 3.90305 37.8198 3.53481 39.1419 3.3856C41.6673 3.10075 43.4419 3.84123 43.6692 5.54369C43.7294 5.99644 43.7367 6.47631 43.6745 6.91171C43.3503 9.01665 43.1425 10.6006 43.0513 11.6622C43.0366 11.8265 43.0378 12.1089 43.0538 12.5092L39.9199 12.5065C39.9866 12.3406 40.0464 12.1156 40.0996 11.8334C40.1349 11.6477 40.16 11.4136 40.1757 11.1298C39.5134 11.9655 38.6029 12.4618 37.4682 12.5899Z" fill="white"/>
</svg>