<svg width="61" height="19" viewBox="0 0 61 19" fill="none" xmlns="http://www.w3.org/2000/svg">
<path d="M0.140625 4.19238H2.23277V8.85752H6.64523V4.19238H8.74006V15.6438H6.64523V10.8807H2.23277V15.6438H0.140625V4.19238ZM15.368 11.9139C15.368 12.8725 14.5898 13.6526 13.6349 13.6526C12.6796 13.6526 11.9019 12.8725 11.9019 11.9139V6.98368H9.91786V11.9139C9.91786 13.9708 11.5854 15.6438 13.6349 15.6438C15.6839 15.6438 17.3513 13.9708 17.3513 11.9139V6.98368H15.368V11.9139ZM22.8901 7.04143C21.906 7.04143 21.219 7.32807 20.5555 7.9817V4.19238H18.565V11.215C18.565 13.8436 20.4586 15.6438 22.586 15.6438C24.9511 15.6438 27.0233 13.8115 27.0233 11.3428C27.0233 8.90527 25.1125 7.04143 22.8901 7.04143V7.04143ZM22.9396 13.7956C21.5908 13.7956 20.5594 12.6651 20.5594 11.3428C20.5594 10.0202 21.5908 8.88927 22.9396 8.88927C24.0825 8.88927 25.1145 10.0202 25.1145 11.3428C25.1145 12.6651 24.0825 13.7956 22.9396 13.7956V13.7956ZM30.3665 7.54473C30.3665 6.54048 31.0332 6.22207 31.7631 6.22207C32.3507 6.22207 33.1283 6.6681 33.6357 7.20986L34.937 5.68066C34.2866 4.80461 32.9695 4.19909 31.8902 4.19909C29.7313 4.19909 28.1758 5.45765 28.1758 7.54473C28.1758 11.4157 32.9218 10.1886 32.9218 12.3557C32.9218 13.024 32.2713 13.614 31.5257 13.614C30.3507 13.614 29.9696 13.0405 29.4301 12.435L27.9855 13.9322C28.9066 15.0634 30.049 15.6371 31.4142 15.6371C33.4616 15.6371 35.1124 14.3627 35.1124 12.3711C35.1124 8.07015 30.3665 9.40846 30.3665 7.54473V7.54473ZM40.3526 6.92922C38.2254 6.92922 36.3316 8.72837 36.3316 11.3576V18.3983H38.322V14.591C38.9855 15.2442 39.6722 15.5313 40.6567 15.5313C42.8789 15.5313 44.79 13.6677 44.79 11.2302C44.79 8.76106 42.7172 6.92922 40.3526 6.92922V6.92922ZM40.7063 13.6837C39.3576 13.6837 38.3261 12.5516 38.3261 11.2302C38.3261 9.90765 39.3576 8.77671 40.7063 8.77671C41.8489 8.77671 42.881 9.90765 42.881 11.2302C42.881 12.5516 41.8489 13.6837 40.7063 13.6837V13.6837ZM59.4417 13.7956C58.2676 13.7956 57.9343 13.2861 57.9343 12.5052V9.04853H59.7593V7.29643H57.9343V4.98633L55.9192 5.89414V12.9354C55.9192 14.7357 57.1568 15.6438 58.8543 15.6438C59.1083 15.6438 59.4579 15.6274 59.6485 15.5802L60.1406 13.7644C59.9184 13.7798 59.6646 13.7956 59.4417 13.7956" fill="white"/>
<path d="M54.1939 9.15045C53.8123 8.49153 53.2756 7.96329 52.6045 7.56561C52.1031 7.27261 51.5831 7.08665 50.9971 7.00679V4.91311C51.5831 4.6634 51.9467 4.11069 51.9467 3.46589C51.9467 2.58702 51.2445 1.87481 50.3695 1.87481C49.4939 1.87481 48.7793 2.58702 48.7793 3.46589C48.7793 4.11069 49.122 4.6634 49.708 4.91311V7.00773C49.2392 7.07572 48.7531 7.22239 48.3091 7.44775C47.4024 6.75661 44.4292 4.4892 42.6899 3.16489C42.7312 3.01563 42.763 2.86178 42.763 2.69946C42.763 1.72602 41.9775 0.937012 41.0073 0.937012C40.037 0.937012 39.252 1.72602 39.252 2.69946C39.252 3.67279 40.0379 4.46203 41.0081 4.46203C41.3391 4.46203 41.6452 4.36488 41.9093 4.20514L42.2764 4.48462L47.3199 8.13184C47.0533 8.37756 46.805 8.65703 46.6063 8.97061C46.2038 9.60989 45.9578 10.3133 45.9578 11.0805V11.2406C45.9578 11.7792 46.0597 12.2877 46.2334 12.7653C46.3864 13.1824 46.61 13.5616 46.8869 13.9045L45.213 15.5886C44.9704 15.498 44.707 15.4794 44.4541 15.5351C44.2013 15.5907 43.9698 15.7182 43.7872 15.9024C43.6608 16.0287 43.5607 16.1788 43.4925 16.3442C43.4244 16.5095 43.3896 16.6868 43.3902 16.8658C43.3903 17.2296 43.5315 17.5715 43.7879 17.8287C43.9136 17.9557 44.0631 18.0563 44.2279 18.1249C44.3926 18.1934 44.5692 18.2284 44.7475 18.2279C44.9259 18.2284 45.1025 18.1934 45.2673 18.1248C45.4321 18.0563 45.5817 17.9557 45.7075 17.8287C45.8338 17.7025 45.9339 17.5524 46.0021 17.3871C46.0703 17.2219 46.1052 17.0447 46.1047 16.8658C46.1047 16.725 46.0831 16.5876 46.0423 16.457L47.7724 14.7203C48.0096 14.8848 48.2658 15.0232 48.5412 15.1426C49.0844 15.3783 49.6839 15.5219 50.3401 15.5219H50.4604C51.1858 15.5219 51.8701 15.3509 52.5134 15.0011C53.1912 14.6314 53.7217 14.1259 54.1225 13.4805C54.5255 12.8333 54.7473 12.1183 54.7473 11.3316V11.2924C54.7473 10.5185 54.5688 9.80455 54.1939 9.15045ZM52.08 12.7936C51.6104 13.3173 51.0706 13.64 50.4604 13.64H50.3598C50.0113 13.64 49.6704 13.5433 49.3366 13.3674C48.9604 13.1738 48.6744 12.8977 48.4404 12.548C48.1985 12.2048 48.0673 11.83 48.0673 11.4327V11.312C48.0673 10.9214 48.1419 10.551 48.3301 10.2012C48.5313 9.81878 48.8031 9.52143 49.1645 9.28501C49.5194 9.05024 49.8984 8.93509 50.3205 8.93509H50.3598C50.7426 8.93509 51.1049 9.01084 51.4469 9.18645C51.7953 9.3737 52.08 9.62953 52.3006 9.96605C52.515 10.3027 52.6425 10.6658 52.6835 11.0613C52.69 11.1436 52.6932 11.2278 52.6932 11.3082C52.6932 11.8451 52.4889 12.3422 52.08 12.7936Z" fill="white"/>
</svg>