<svg width="449" height="258" viewBox="0 0 449 258" fill="none" xmlns="http://www.w3.org/2000/svg">
<path d="M357.9 257.491L363.501 257.491L363.501 129.277M358.037 1.06299L363.501 1.06299L363.501 129.277M363.501 129.277L371.418 129.277" stroke="white" stroke-opacity="0.3"/>
<path d="M417.346 114.211L422.947 114.211L422.947 57.6371M417.483 1.06299L422.947 1.06299L422.947 57.6371M422.947 57.6371L428.404 57.6371" stroke="white" stroke-opacity="0.3"/>
<path d="M6.39452 249.007L12.168 239.007L0.621018 239.007L6.39452 249.007ZM5.39453 5.93018L5.39452 240.007L7.39452 240.007L7.39453 5.93018L5.39453 5.93018Z" fill="url(#paint0_linear_597_268)"/>
<path d="M53.6938 22.9302L58.8538 8.93017H61.1738L66.2938 22.9302H64.0538L62.8538 19.5102H57.1338L55.9338 22.9302H53.6938ZM57.7338 17.8302H62.2538L59.9938 11.4502L57.7338 17.8302Z" fill="white"/>
<g filter="url(#filter0_b_597_268)">
<rect x="94" y="5.93018" width="227.169" height="20.7484" rx="2" fill="url(#paint1_linear_597_268)"/>
<rect x="93.75" y="5.68018" width="227.669" height="21.2484" rx="2.25" stroke="white" stroke-opacity="0.6" stroke-width="0.5"/>
</g>
<path d="M129.758 21.3193L133.37 11.5193H134.994L138.578 21.3193H137.01L136.17 18.9253H132.166L131.326 21.3193H129.758ZM132.586 17.7493H135.75L134.168 13.2833L132.586 17.7493ZM140.768 21.3193L138.724 14.3753H140.208L141.552 19.6113L143.064 14.3753H144.716L146.228 19.6113L147.572 14.3753H149.056L147.012 21.3193H145.486L143.89 15.8593L142.294 21.3193H140.768ZM152.316 21.4873C151.728 21.4873 151.243 21.3893 150.86 21.1933C150.478 20.9973 150.193 20.7407 150.006 20.4233C149.82 20.0967 149.726 19.742 149.726 19.3593C149.726 18.6873 149.988 18.1553 150.51 17.7633C151.033 17.3713 151.78 17.1753 152.75 17.1753H154.57V17.0493C154.57 16.508 154.421 16.102 154.122 15.8313C153.833 15.5607 153.455 15.4253 152.988 15.4253C152.578 15.4253 152.218 15.528 151.91 15.7333C151.612 15.9293 151.43 16.2233 151.364 16.6153H149.88C149.927 16.1113 150.095 15.682 150.384 15.3273C150.683 14.9633 151.056 14.688 151.504 14.5013C151.962 14.3053 152.461 14.2073 153.002 14.2073C153.973 14.2073 154.724 14.464 155.256 14.9773C155.788 15.4813 156.054 16.172 156.054 17.0493V21.3193H154.766L154.64 20.1293C154.444 20.512 154.16 20.834 153.786 21.0953C153.413 21.3567 152.923 21.4873 152.316 21.4873ZM152.61 20.2833C153.012 20.2833 153.348 20.19 153.618 20.0033C153.898 19.8073 154.113 19.5507 154.262 19.2333C154.421 18.916 154.519 18.566 154.556 18.1833H152.904C152.316 18.1833 151.896 18.286 151.644 18.4913C151.402 18.6967 151.28 18.9533 151.28 19.2613C151.28 19.5787 151.397 19.8307 151.63 20.0173C151.873 20.1947 152.2 20.2833 152.61 20.2833ZM157.785 21.3193V14.3753H159.115L159.241 15.6913C159.483 15.234 159.819 14.8747 160.249 14.6133C160.687 14.3427 161.215 14.2073 161.831 14.2073V15.7613H161.425C161.014 15.7613 160.645 15.8313 160.319 15.9713C160.001 16.102 159.745 16.3307 159.549 16.6573C159.362 16.9747 159.269 17.418 159.269 17.9873V21.3193H157.785ZM166.16 21.4873C165.478 21.4873 164.872 21.338 164.34 21.0393C163.817 20.7313 163.406 20.3067 163.108 19.7653C162.809 19.224 162.66 18.594 162.66 17.8753C162.66 17.1473 162.804 16.508 163.094 15.9573C163.392 15.4067 163.803 14.9773 164.326 14.6693C164.858 14.3613 165.474 14.2073 166.174 14.2073C166.855 14.2073 167.448 14.3613 167.952 14.6693C168.456 14.968 168.848 15.3693 169.128 15.8733C169.408 16.3773 169.548 16.9327 169.548 17.5393C169.548 17.6327 169.543 17.7353 169.534 17.8473C169.534 17.95 169.529 18.0667 169.52 18.1973H164.116C164.162 18.8693 164.382 19.3827 164.774 19.7373C165.175 20.0827 165.637 20.2553 166.16 20.2553C166.58 20.2553 166.93 20.162 167.21 19.9753C167.499 19.7793 167.714 19.518 167.854 19.1913H169.338C169.151 19.8447 168.778 20.3907 168.218 20.8293C167.667 21.268 166.981 21.4873 166.16 21.4873ZM166.16 15.4253C165.665 15.4253 165.226 15.5747 164.844 15.8733C164.461 16.1627 164.228 16.6013 164.144 17.1893H168.064C168.036 16.648 167.844 16.2187 167.49 15.9013C167.135 15.584 166.692 15.4253 166.16 15.4253ZM171.087 21.3193V14.3753H172.403L172.515 15.5933C172.73 15.164 173.043 14.828 173.453 14.5853C173.873 14.3333 174.354 14.2073 174.895 14.2073C175.735 14.2073 176.393 14.4687 176.869 14.9913C177.355 15.514 177.597 16.2933 177.597 17.3293V21.3193H176.127V17.4833C176.127 16.1393 175.577 15.4673 174.475 15.4673C173.925 15.4673 173.467 15.6633 173.103 16.0553C172.749 16.4473 172.571 17.0073 172.571 17.7353V21.3193H171.087ZM182.593 21.4873C181.912 21.4873 181.305 21.338 180.773 21.0393C180.251 20.7313 179.84 20.3067 179.541 19.7653C179.243 19.224 179.093 18.594 179.093 17.8753C179.093 17.1473 179.238 16.508 179.527 15.9573C179.826 15.4067 180.237 14.9773 180.759 14.6693C181.291 14.3613 181.907 14.2073 182.607 14.2073C183.289 14.2073 183.881 14.3613 184.385 14.6693C184.889 14.968 185.281 15.3693 185.561 15.8733C185.841 16.3773 185.981 16.9327 185.981 17.5393C185.981 17.6327 185.977 17.7353 185.967 17.8473C185.967 17.95 185.963 18.0667 185.953 18.1973H180.549C180.596 18.8693 180.815 19.3827 181.207 19.7373C181.609 20.0827 182.071 20.2553 182.593 20.2553C183.013 20.2553 183.363 20.162 183.643 19.9753C183.933 19.7793 184.147 19.518 184.287 19.1913H185.771C185.585 19.8447 185.211 20.3907 184.651 20.8293C184.101 21.268 183.415 21.4873 182.593 21.4873ZM182.593 15.4253C182.099 15.4253 181.66 15.5747 181.277 15.8733C180.895 16.1627 180.661 16.6013 180.577 17.1893H184.497C184.469 16.648 184.278 16.2187 183.923 15.9013C183.569 15.584 183.125 15.4253 182.593 15.4253ZM190.293 21.4873C189.416 21.4873 188.692 21.2727 188.123 20.8433C187.554 20.414 187.227 19.8447 187.143 19.1353H188.641C188.716 19.4527 188.893 19.728 189.173 19.9613C189.453 20.1853 189.822 20.2973 190.279 20.2973C190.727 20.2973 191.054 20.204 191.259 20.0173C191.464 19.8307 191.567 19.616 191.567 19.3733C191.567 19.0187 191.422 18.7807 191.133 18.6593C190.853 18.5287 190.461 18.412 189.957 18.3093C189.565 18.2253 189.173 18.1133 188.781 17.9733C188.398 17.8333 188.076 17.6373 187.815 17.3853C187.563 17.124 187.437 16.774 187.437 16.3353C187.437 15.7287 187.67 15.2247 188.137 14.8233C188.604 14.4127 189.257 14.2073 190.097 14.2073C190.872 14.2073 191.497 14.394 191.973 14.7673C192.458 15.1407 192.743 15.668 192.827 16.3493H191.399C191.352 16.0507 191.212 15.8173 190.979 15.6493C190.755 15.4813 190.452 15.3973 190.069 15.3973C189.696 15.3973 189.406 15.4767 189.201 15.6353C188.996 15.7847 188.893 15.9807 188.893 16.2233C188.893 16.466 189.033 16.6573 189.313 16.7973C189.602 16.9373 189.98 17.0633 190.447 17.1753C190.914 17.278 191.343 17.3993 191.735 17.5393C192.136 17.67 192.458 17.866 192.701 18.1273C192.944 18.3887 193.065 18.7713 193.065 19.2753C193.074 19.91 192.827 20.4373 192.323 20.8573C191.828 21.2773 191.152 21.4873 190.293 21.4873ZM197.457 21.4873C196.58 21.4873 195.856 21.2727 195.287 20.8433C194.718 20.414 194.391 19.8447 194.307 19.1353H195.805C195.88 19.4527 196.057 19.728 196.337 19.9613C196.617 20.1853 196.986 20.2973 197.443 20.2973C197.891 20.2973 198.218 20.204 198.423 20.0173C198.628 19.8307 198.731 19.616 198.731 19.3733C198.731 19.0187 198.586 18.7807 198.297 18.6593C198.017 18.5287 197.625 18.412 197.121 18.3093C196.729 18.2253 196.337 18.1133 195.945 17.9733C195.562 17.8333 195.24 17.6373 194.979 17.3853C194.727 17.124 194.601 16.774 194.601 16.3353C194.601 15.7287 194.834 15.2247 195.301 14.8233C195.768 14.4127 196.421 14.2073 197.261 14.2073C198.036 14.2073 198.661 14.394 199.137 14.7673C199.622 15.1407 199.907 15.668 199.991 16.3493H198.563C198.516 16.0507 198.376 15.8173 198.143 15.6493C197.919 15.4813 197.616 15.3973 197.233 15.3973C196.86 15.3973 196.57 15.4767 196.365 15.6353C196.16 15.7847 196.057 15.9807 196.057 16.2233C196.057 16.466 196.197 16.6573 196.477 16.7973C196.766 16.9373 197.144 17.0633 197.611 17.1753C198.078 17.278 198.507 17.3993 198.899 17.5393C199.3 17.67 199.622 17.866 199.865 18.1273C200.108 18.3887 200.229 18.7713 200.229 19.2753C200.238 19.91 199.991 20.4373 199.487 20.8573C198.992 21.2773 198.316 21.4873 197.457 21.4873Z" fill="#EEFF70"/>
<path d="M53.6938 68.0737L58.8538 54.0737H61.1738L66.2938 68.0737H64.0538L62.8538 64.6537H57.1338L55.9338 68.0737H53.6938ZM57.7338 62.9737H62.2538L59.9938 56.5937L57.7338 62.9737Z" fill="white"/>
<g filter="url(#filter1_b_597_268)">
<rect x="94" y="51.0737" width="206.924" height="20.7484" rx="2" fill="url(#paint2_linear_597_268)"/>
<rect x="93.75" y="50.8237" width="207.424" height="21.2484" rx="2.25" stroke="white" stroke-opacity="0.6" stroke-width="0.5"/>
</g>
<path d="M129.572 66.4629L133.184 56.6629H134.808L138.392 66.4629H136.824L135.984 64.0689H131.98L131.14 66.4629H129.572ZM132.4 62.8929H135.564L133.982 58.4269L132.4 62.8929ZM142.637 66.6309C141.956 66.6309 141.345 66.4769 140.803 66.1689C140.271 65.8609 139.851 65.4362 139.543 64.8949C139.245 64.3442 139.095 63.7096 139.095 62.9909C139.095 62.2722 139.245 61.6422 139.543 61.1009C139.851 60.5502 140.271 60.1209 140.803 59.8129C141.345 59.5049 141.956 59.3509 142.637 59.3509C143.496 59.3509 144.215 59.5749 144.793 60.0229C145.381 60.4709 145.759 61.0776 145.927 61.8429H144.373C144.28 61.4602 144.075 61.1616 143.757 60.9469C143.44 60.7322 143.067 60.6249 142.637 60.6249C142.273 60.6249 141.937 60.7182 141.629 60.9049C141.321 61.0822 141.074 61.3482 140.887 61.7029C140.701 62.0482 140.607 62.4776 140.607 62.9909C140.607 63.5042 140.701 63.9382 140.887 64.2929C141.074 64.6382 141.321 64.9042 141.629 65.0909C141.937 65.2776 142.273 65.3709 142.637 65.3709C143.067 65.3709 143.44 65.2636 143.757 65.0489C144.075 64.8342 144.28 64.5309 144.373 64.1389H145.927C145.769 64.8856 145.395 65.4876 144.807 65.9449C144.219 66.4022 143.496 66.6309 142.637 66.6309ZM153.137 69.5429V65.3849C152.913 65.7116 152.605 66.0009 152.213 66.2529C151.821 66.5049 151.317 66.6309 150.701 66.6309C150.029 66.6309 149.436 66.4722 148.923 66.1549C148.409 65.8376 148.008 65.4036 147.719 64.8529C147.429 64.3022 147.285 63.6769 147.285 62.9769C147.285 62.2769 147.429 61.6562 147.719 61.1149C148.008 60.5642 148.409 60.1349 148.923 59.8269C149.445 59.5096 150.043 59.3509 150.715 59.3509C151.265 59.3509 151.746 59.4582 152.157 59.6729C152.577 59.8876 152.903 60.1909 153.137 60.5829L153.291 59.5189H154.621V69.5429H153.137ZM150.967 65.3429C151.601 65.3429 152.119 65.1236 152.521 64.6849C152.931 64.2462 153.137 63.6816 153.137 62.9909C153.137 62.2909 152.931 61.7262 152.521 61.2969C152.119 60.8582 151.601 60.6389 150.967 60.6389C150.332 60.6389 149.809 60.8582 149.399 61.2969C148.988 61.7262 148.783 62.2909 148.783 62.9909C148.783 63.4482 148.876 63.8542 149.063 64.2089C149.249 64.5636 149.506 64.8436 149.833 65.0489C150.169 65.2449 150.547 65.3429 150.967 65.3429ZM159.054 66.6309C158.214 66.6309 157.551 66.3696 157.066 65.8469C156.59 65.3242 156.352 64.5449 156.352 63.5089V59.5189H157.836V63.3549C157.836 64.6989 158.386 65.3709 159.488 65.3709C160.038 65.3709 160.491 65.1749 160.846 64.7829C161.2 64.3909 161.378 63.8309 161.378 63.1029V59.5189H162.862V66.4629H161.546L161.434 65.2449C161.219 65.6742 160.902 66.0149 160.482 66.2669C160.071 66.5096 159.595 66.6309 159.054 66.6309ZM165.59 58.2029C165.31 58.2029 165.076 58.1189 164.89 57.9509C164.712 57.7736 164.624 57.5542 164.624 57.2929C164.624 57.0316 164.712 56.8169 164.89 56.6489C165.076 56.4716 165.31 56.3829 165.59 56.3829C165.87 56.3829 166.098 56.4716 166.276 56.6489C166.462 56.8169 166.556 57.0316 166.556 57.2929C166.556 57.5542 166.462 57.7736 166.276 57.9509C166.098 58.1189 165.87 58.2029 165.59 58.2029ZM164.848 66.4629V59.5189H166.332V66.4629H164.848ZM171.063 66.6309C170.185 66.6309 169.462 66.4162 168.893 65.9869C168.323 65.5576 167.997 64.9882 167.913 64.2789H169.411C169.485 64.5962 169.663 64.8716 169.943 65.1049C170.223 65.3289 170.591 65.4409 171.049 65.4409C171.497 65.4409 171.823 65.3476 172.029 65.1609C172.234 64.9742 172.337 64.7596 172.337 64.5169C172.337 64.1622 172.192 63.9242 171.903 63.8029C171.623 63.6722 171.231 63.5556 170.727 63.4529C170.335 63.3689 169.943 63.2569 169.551 63.1169C169.168 62.9769 168.846 62.7809 168.585 62.5289C168.333 62.2676 168.207 61.9176 168.207 61.4789C168.207 60.8722 168.44 60.3682 168.907 59.9669C169.373 59.5562 170.027 59.3509 170.867 59.3509C171.641 59.3509 172.267 59.5376 172.743 59.9109C173.228 60.2842 173.513 60.8116 173.597 61.4929H172.169C172.122 61.1942 171.982 60.9609 171.749 60.7929C171.525 60.6249 171.221 60.5409 170.839 60.5409C170.465 60.5409 170.176 60.6202 169.971 60.7789C169.765 60.9282 169.663 61.1242 169.663 61.3669C169.663 61.6096 169.803 61.8009 170.083 61.9409C170.372 62.0809 170.75 62.2069 171.217 62.3189C171.683 62.4216 172.113 62.5429 172.505 62.6829C172.906 62.8136 173.228 63.0096 173.471 63.2709C173.713 63.5322 173.835 63.9149 173.835 64.4189C173.844 65.0536 173.597 65.5809 173.093 66.0009C172.598 66.4209 171.921 66.6309 171.063 66.6309ZM178.107 66.4629C177.426 66.4629 176.884 66.2996 176.483 65.9729C176.082 65.6369 175.881 65.0442 175.881 64.1949V60.7649H174.691V59.5189H175.881L176.063 57.7549H177.365V59.5189H179.325V60.7649H177.365V64.1949C177.365 64.5776 177.444 64.8436 177.603 64.9929C177.771 65.1329 178.056 65.2029 178.457 65.2029H179.255V66.4629H178.107ZM181.695 58.2029C181.415 58.2029 181.182 58.1189 180.995 57.9509C180.818 57.7736 180.729 57.5542 180.729 57.2929C180.729 57.0316 180.818 56.8169 180.995 56.6489C181.182 56.4716 181.415 56.3829 181.695 56.3829C181.975 56.3829 182.204 56.4716 182.381 56.6489C182.568 56.8169 182.661 57.0316 182.661 57.2929C182.661 57.5542 182.568 57.7736 182.381 57.9509C182.204 58.1189 181.975 58.2029 181.695 58.2029ZM180.953 66.4629V59.5189H182.437V66.4629H180.953ZM187.644 66.6309C186.981 66.6309 186.384 66.4816 185.852 66.1829C185.329 65.8749 184.914 65.4502 184.606 64.9089C184.298 64.3582 184.144 63.7189 184.144 62.9909C184.144 62.2629 184.298 61.6282 184.606 61.0869C184.923 60.5362 185.348 60.1116 185.88 59.8129C186.412 59.5049 187.005 59.3509 187.658 59.3509C188.321 59.3509 188.913 59.5049 189.436 59.8129C189.968 60.1116 190.388 60.5362 190.696 61.0869C191.013 61.6282 191.172 62.2629 191.172 62.9909C191.172 63.7189 191.013 64.3582 190.696 64.9089C190.388 65.4502 189.968 65.8749 189.436 66.1829C188.904 66.4816 188.307 66.6309 187.644 66.6309ZM187.644 65.3569C187.999 65.3569 188.325 65.2682 188.624 65.0909C188.932 64.9136 189.179 64.6522 189.366 64.3069C189.553 63.9522 189.646 63.5136 189.646 62.9909C189.646 62.4682 189.553 62.0342 189.366 61.6889C189.189 61.3342 188.946 61.0682 188.638 60.8909C188.339 60.7136 188.013 60.6249 187.658 60.6249C187.303 60.6249 186.972 60.7136 186.664 60.8909C186.365 61.0682 186.123 61.3342 185.936 61.6889C185.749 62.0342 185.656 62.4682 185.656 62.9909C185.656 63.5136 185.749 63.9522 185.936 64.3069C186.123 64.6522 186.365 64.9136 186.664 65.0909C186.963 65.2682 187.289 65.3569 187.644 65.3569ZM192.777 66.4629V59.5189H194.093L194.205 60.7369C194.42 60.3076 194.732 59.9716 195.143 59.7289C195.563 59.4769 196.044 59.3509 196.585 59.3509C197.425 59.3509 198.083 59.6122 198.559 60.1349C199.044 60.6576 199.287 61.4369 199.287 62.4729V66.4629H197.817V62.6269C197.817 61.2829 197.266 60.6109 196.165 60.6109C195.614 60.6109 195.157 60.8069 194.793 61.1989C194.438 61.5909 194.261 62.1509 194.261 62.8789V66.4629H192.777Z" fill="#EEFF70"/>
<path d="M53.6938 113.217L58.8538 99.2173H61.1738L66.2938 113.217H64.0538L62.8538 109.797H57.1338L55.9338 113.217H53.6938ZM57.7338 108.117H62.2538L59.9938 101.737L57.7338 108.117Z" fill="white"/>
<g filter="url(#filter2_b_597_268)">
<rect x="94" y="96.2173" width="180.902" height="20.7484" rx="2" fill="url(#paint3_linear_597_268)"/>
<rect x="93.75" y="95.9673" width="181.402" height="21.2484" rx="2.25" stroke="white" stroke-opacity="0.6" stroke-width="0.5"/>
</g>
<path d="M129.966 111.606L133.578 101.806H135.202L138.786 111.606H137.218L136.378 109.212H132.374L131.534 111.606H129.966ZM132.794 108.036H135.958L134.376 103.57L132.794 108.036ZM143.031 111.774C142.349 111.774 141.738 111.62 141.197 111.312C140.665 111.004 140.245 110.58 139.937 110.038C139.638 109.488 139.489 108.853 139.489 108.134C139.489 107.416 139.638 106.786 139.937 106.244C140.245 105.694 140.665 105.264 141.197 104.956C141.738 104.648 142.349 104.494 143.031 104.494C143.889 104.494 144.608 104.718 145.187 105.166C145.775 105.614 146.153 106.221 146.321 106.986H144.767C144.673 106.604 144.468 106.305 144.151 106.09C143.833 105.876 143.46 105.768 143.031 105.768C142.667 105.768 142.331 105.862 142.023 106.048C141.715 106.226 141.467 106.492 141.281 106.846C141.094 107.192 141.001 107.621 141.001 108.134C141.001 108.648 141.094 109.082 141.281 109.436C141.467 109.782 141.715 110.048 142.023 110.234C142.331 110.421 142.667 110.514 143.031 110.514C143.46 110.514 143.833 110.407 144.151 110.192C144.468 109.978 144.673 109.674 144.767 109.282H146.321C146.162 110.029 145.789 110.631 145.201 111.088C144.613 111.546 143.889 111.774 143.031 111.774ZM150.705 111.606C150.024 111.606 149.483 111.443 149.081 111.116C148.68 110.78 148.479 110.188 148.479 109.338V105.908H147.289V104.662H148.479L148.661 102.898H149.963V104.662H151.923V105.908H149.963V109.338C149.963 109.721 150.043 109.987 150.201 110.136C150.369 110.276 150.654 110.346 151.055 110.346H151.853V111.606H150.705ZM154.294 103.346C154.014 103.346 153.78 103.262 153.594 103.094C153.416 102.917 153.328 102.698 153.328 102.436C153.328 102.175 153.416 101.96 153.594 101.792C153.78 101.615 154.014 101.526 154.294 101.526C154.574 101.526 154.802 101.615 154.98 101.792C155.166 101.96 155.26 102.175 155.26 102.436C155.26 102.698 155.166 102.917 154.98 103.094C154.802 103.262 154.574 103.346 154.294 103.346ZM153.552 111.606V104.662H155.036V111.606H153.552ZM158.941 111.606L156.337 104.662H157.891L159.823 110.192L161.755 104.662H163.295L160.705 111.606H158.941ZM166.47 111.774C165.882 111.774 165.396 111.676 165.014 111.48C164.631 111.284 164.346 111.028 164.16 110.71C163.973 110.384 163.88 110.029 163.88 109.646C163.88 108.974 164.141 108.442 164.664 108.05C165.186 107.658 165.933 107.462 166.904 107.462H168.724V107.336C168.724 106.795 168.574 106.389 168.276 106.118C167.986 105.848 167.608 105.712 167.142 105.712C166.731 105.712 166.372 105.815 166.064 106.02C165.765 106.216 165.583 106.51 165.518 106.902H164.034C164.08 106.398 164.248 105.969 164.538 105.614C164.836 105.25 165.21 104.975 165.658 104.788C166.115 104.592 166.614 104.494 167.156 104.494C168.126 104.494 168.878 104.751 169.41 105.264C169.942 105.768 170.208 106.459 170.208 107.336V111.606H168.92L168.794 110.416C168.598 110.799 168.313 111.121 167.94 111.382C167.566 111.644 167.076 111.774 166.47 111.774ZM166.764 110.57C167.165 110.57 167.501 110.477 167.772 110.29C168.052 110.094 168.266 109.838 168.416 109.52C168.574 109.203 168.672 108.853 168.71 108.47H167.058C166.47 108.47 166.05 108.573 165.798 108.778C165.555 108.984 165.434 109.24 165.434 109.548C165.434 109.866 165.55 110.118 165.784 110.304C166.026 110.482 166.353 110.57 166.764 110.57ZM174.713 111.606C174.032 111.606 173.491 111.443 173.089 111.116C172.688 110.78 172.487 110.188 172.487 109.338V105.908H171.297V104.662H172.487L172.669 102.898H173.971V104.662H175.931V105.908H173.971V109.338C173.971 109.721 174.051 109.987 174.209 110.136C174.377 110.276 174.662 110.346 175.063 110.346H175.861V111.606H174.713ZM178.301 103.346C178.021 103.346 177.788 103.262 177.601 103.094C177.424 102.917 177.335 102.698 177.335 102.436C177.335 102.175 177.424 101.96 177.601 101.792C177.788 101.615 178.021 101.526 178.301 101.526C178.581 101.526 178.81 101.615 178.987 101.792C179.174 101.96 179.267 102.175 179.267 102.436C179.267 102.698 179.174 102.917 178.987 103.094C178.81 103.262 178.581 103.346 178.301 103.346ZM177.559 111.606V104.662H179.043V111.606H177.559ZM184.25 111.774C183.588 111.774 182.99 111.625 182.458 111.326C181.936 111.018 181.52 110.594 181.212 110.052C180.904 109.502 180.75 108.862 180.75 108.134C180.75 107.406 180.904 106.772 181.212 106.23C181.53 105.68 181.954 105.255 182.486 104.956C183.018 104.648 183.611 104.494 184.264 104.494C184.927 104.494 185.52 104.648 186.042 104.956C186.574 105.255 186.994 105.68 187.302 106.23C187.62 106.772 187.778 107.406 187.778 108.134C187.778 108.862 187.62 109.502 187.302 110.052C186.994 110.594 186.574 111.018 186.042 111.326C185.51 111.625 184.913 111.774 184.25 111.774ZM184.25 110.5C184.605 110.5 184.932 110.412 185.23 110.234C185.538 110.057 185.786 109.796 185.972 109.45C186.159 109.096 186.252 108.657 186.252 108.134C186.252 107.612 186.159 107.178 185.972 106.832C185.795 106.478 185.552 106.212 185.244 106.034C184.946 105.857 184.619 105.768 184.264 105.768C183.91 105.768 183.578 105.857 183.27 106.034C182.972 106.212 182.729 106.478 182.542 106.832C182.356 107.178 182.262 107.612 182.262 108.134C182.262 108.657 182.356 109.096 182.542 109.45C182.729 109.796 182.972 110.057 183.27 110.234C183.569 110.412 183.896 110.5 184.25 110.5ZM189.383 111.606V104.662H190.699L190.811 105.88C191.026 105.451 191.339 105.115 191.749 104.872C192.169 104.62 192.65 104.494 193.191 104.494C194.031 104.494 194.689 104.756 195.165 105.278C195.651 105.801 195.893 106.58 195.893 107.616V111.606H194.423V107.77C194.423 106.426 193.873 105.754 192.771 105.754C192.221 105.754 191.763 105.95 191.399 106.342C191.045 106.734 190.867 107.294 190.867 108.022V111.606H189.383Z" fill="#EEFF70"/>
<path d="M54.5938 158.361V144.361H59.4138C60.5205 144.361 61.4272 144.548 62.1338 144.921C62.8538 145.294 63.3872 145.801 63.7338 146.441C64.0805 147.068 64.2538 147.768 64.2538 148.541C64.2538 149.408 64.0205 150.194 63.5538 150.901C63.1005 151.608 62.3872 152.114 61.4138 152.421L64.3938 158.361H61.9338L59.2138 152.721H56.7138V158.361H54.5938ZM56.7138 151.121H59.2938C60.2538 151.121 60.9538 150.888 61.3938 150.421C61.8472 149.954 62.0738 149.348 62.0738 148.601C62.0738 147.854 61.8538 147.261 61.4138 146.821C60.9738 146.368 60.2605 146.141 59.2738 146.141H56.7138V151.121Z" fill="white"/>
<g filter="url(#filter3_b_597_268)">
<rect x="94" y="141.361" width="157.357" height="20.7484" rx="2" fill="url(#paint4_linear_597_268)"/>
<rect x="93.75" y="141.111" width="157.857" height="21.2484" rx="2.25" stroke="white" stroke-opacity="0.6" stroke-width="0.5"/>
</g>
<path d="M130.223 156.75V146.95H133.597C134.371 146.95 135.006 147.081 135.501 147.342C136.005 147.603 136.378 147.958 136.621 148.406C136.863 148.845 136.985 149.335 136.985 149.876C136.985 150.483 136.821 151.033 136.495 151.528C136.177 152.023 135.678 152.377 134.997 152.592L137.083 156.75H135.361L133.457 152.802H131.707V156.75H130.223ZM131.707 151.682H133.513C134.185 151.682 134.675 151.519 134.983 151.192C135.3 150.865 135.459 150.441 135.459 149.918C135.459 149.395 135.305 148.98 134.997 148.672C134.689 148.355 134.189 148.196 133.499 148.196H131.707V151.682ZM141.508 156.918C140.827 156.918 140.22 156.769 139.688 156.47C139.166 156.162 138.755 155.737 138.456 155.196C138.158 154.655 138.008 154.025 138.008 153.306C138.008 152.578 138.153 151.939 138.442 151.388C138.741 150.837 139.152 150.408 139.674 150.1C140.206 149.792 140.822 149.638 141.522 149.638C142.204 149.638 142.796 149.792 143.3 150.1C143.804 150.399 144.196 150.8 144.476 151.304C144.756 151.808 144.896 152.363 144.896 152.97C144.896 153.063 144.892 153.166 144.882 153.278C144.882 153.381 144.878 153.497 144.868 153.628H139.464C139.511 154.3 139.73 154.813 140.122 155.168C140.524 155.513 140.986 155.686 141.508 155.686C141.928 155.686 142.278 155.593 142.558 155.406C142.848 155.21 143.062 154.949 143.202 154.622H144.686C144.5 155.275 144.126 155.821 143.566 156.26C143.016 156.699 142.33 156.918 141.508 156.918ZM141.508 150.856C141.014 150.856 140.575 151.005 140.192 151.304C139.81 151.593 139.576 152.032 139.492 152.62H143.412C143.384 152.079 143.193 151.649 142.838 151.332C142.484 151.015 142.04 150.856 141.508 150.856ZM149.17 156.75C148.489 156.75 147.948 156.587 147.546 156.26C147.145 155.924 146.944 155.331 146.944 154.482V151.052H145.754V149.806H146.944L147.126 148.042H148.428V149.806H150.388V151.052H148.428V154.482C148.428 154.865 148.508 155.131 148.666 155.28C148.834 155.42 149.119 155.49 149.52 155.49H150.318V156.75H149.17ZM154.989 156.918C154.307 156.918 153.701 156.769 153.169 156.47C152.646 156.162 152.235 155.737 151.937 155.196C151.638 154.655 151.489 154.025 151.489 153.306C151.489 152.578 151.633 151.939 151.923 151.388C152.221 150.837 152.632 150.408 153.155 150.1C153.687 149.792 154.303 149.638 155.003 149.638C155.684 149.638 156.277 149.792 156.781 150.1C157.285 150.399 157.677 150.8 157.957 151.304C158.237 151.808 158.377 152.363 158.377 152.97C158.377 153.063 158.372 153.166 158.363 153.278C158.363 153.381 158.358 153.497 158.349 153.628H152.945C152.991 154.3 153.211 154.813 153.603 155.168C154.004 155.513 154.466 155.686 154.989 155.686C155.409 155.686 155.759 155.593 156.039 155.406C156.328 155.21 156.543 154.949 156.683 154.622H158.167C157.98 155.275 157.607 155.821 157.047 156.26C156.496 156.699 155.81 156.918 154.989 156.918ZM154.989 150.856C154.494 150.856 154.055 151.005 153.673 151.304C153.29 151.593 153.057 152.032 152.973 152.62H156.893C156.865 152.079 156.673 151.649 156.319 151.332C155.964 151.015 155.521 150.856 154.989 150.856ZM159.917 156.75V149.806H161.233L161.345 151.024C161.559 150.595 161.872 150.259 162.283 150.016C162.703 149.764 163.183 149.638 163.725 149.638C164.565 149.638 165.223 149.899 165.699 150.422C166.184 150.945 166.427 151.724 166.427 152.76V156.75H164.957V152.914C164.957 151.57 164.406 150.898 163.305 150.898C162.754 150.898 162.297 151.094 161.933 151.486C161.578 151.878 161.401 152.438 161.401 153.166V156.75H159.917ZM171.086 156.75C170.405 156.75 169.864 156.587 169.462 156.26C169.061 155.924 168.86 155.331 168.86 154.482V151.052H167.67V149.806H168.86L169.042 148.042H170.344V149.806H172.304V151.052H170.344V154.482C170.344 154.865 170.424 155.131 170.582 155.28C170.75 155.42 171.035 155.49 171.436 155.49H172.234V156.75H171.086ZM174.674 148.49C174.394 148.49 174.161 148.406 173.974 148.238C173.797 148.061 173.708 147.841 173.708 147.58C173.708 147.319 173.797 147.104 173.974 146.936C174.161 146.759 174.394 146.67 174.674 146.67C174.954 146.67 175.183 146.759 175.36 146.936C175.547 147.104 175.64 147.319 175.64 147.58C175.64 147.841 175.547 148.061 175.36 148.238C175.183 148.406 174.954 148.49 174.674 148.49ZM173.932 156.75V149.806H175.416V156.75H173.932ZM180.624 156.918C179.961 156.918 179.364 156.769 178.832 156.47C178.309 156.162 177.894 155.737 177.586 155.196C177.278 154.645 177.124 154.006 177.124 153.278C177.124 152.55 177.278 151.915 177.586 151.374C177.903 150.823 178.328 150.399 178.86 150.1C179.392 149.792 179.984 149.638 180.638 149.638C181.3 149.638 181.893 149.792 182.416 150.1C182.948 150.399 183.368 150.823 183.676 151.374C183.993 151.915 184.151 152.55 184.151 153.278C184.151 154.006 183.993 154.645 183.676 155.196C183.368 155.737 182.948 156.162 182.416 156.47C181.884 156.769 181.286 156.918 180.624 156.918ZM180.624 155.644C180.978 155.644 181.305 155.555 181.604 155.378C181.912 155.201 182.159 154.939 182.346 154.594C182.532 154.239 182.626 153.801 182.626 153.278C182.626 152.755 182.532 152.321 182.346 151.976C182.168 151.621 181.926 151.355 181.618 151.178C181.319 151.001 180.992 150.912 180.638 150.912C180.283 150.912 179.952 151.001 179.644 151.178C179.345 151.355 179.102 151.621 178.916 151.976C178.729 152.321 178.636 152.755 178.636 153.278C178.636 153.801 178.729 154.239 178.916 154.594C179.102 154.939 179.345 155.201 179.644 155.378C179.942 155.555 180.269 155.644 180.624 155.644ZM185.756 156.75V149.806H187.072L187.184 151.024C187.399 150.595 187.712 150.259 188.122 150.016C188.542 149.764 189.023 149.638 189.564 149.638C190.404 149.638 191.062 149.899 191.538 150.422C192.024 150.945 192.266 151.724 192.266 152.76V156.75H190.796V152.914C190.796 151.57 190.246 150.898 189.144 150.898C188.594 150.898 188.136 151.094 187.772 151.486C187.418 151.878 187.24 152.438 187.24 153.166V156.75H185.756Z" fill="#EEFF70"/>
<path d="M54.5938 203.504V189.504H59.4138C60.5205 189.504 61.4272 189.691 62.1338 190.064C62.8538 190.438 63.3872 190.944 63.7338 191.584C64.0805 192.211 64.2538 192.911 64.2538 193.684C64.2538 194.551 64.0205 195.338 63.5538 196.044C63.1005 196.751 62.3872 197.258 61.4138 197.564L64.3938 203.504H61.9338L59.2138 197.864H56.7138V203.504H54.5938ZM56.7138 196.264H59.2938C60.2538 196.264 60.9538 196.031 61.3938 195.564C61.8472 195.098 62.0738 194.491 62.0738 193.744C62.0738 192.998 61.8538 192.404 61.4138 191.964C60.9738 191.511 60.2605 191.284 59.2738 191.284H56.7138V196.264Z" fill="white"/>
<g filter="url(#filter4_b_597_268)">
<rect x="94" y="186.504" width="135.052" height="20.7484" rx="2" fill="url(#paint5_linear_597_268)"/>
<rect x="93.75" y="186.254" width="135.552" height="21.2484" rx="2.25" stroke="white" stroke-opacity="0.6" stroke-width="0.5"/>
</g>
<path d="M130.633 201.894V192.094H134.007C134.781 192.094 135.416 192.224 135.911 192.486C136.415 192.747 136.788 193.102 137.031 193.55C137.273 193.988 137.395 194.478 137.395 195.02C137.395 195.626 137.231 196.177 136.905 196.672C136.587 197.166 136.088 197.521 135.407 197.736L137.493 201.894H135.771L133.867 197.946H132.117V201.894H130.633ZM132.117 196.826H133.923C134.595 196.826 135.085 196.662 135.393 196.336C135.71 196.009 135.869 195.584 135.869 195.062C135.869 194.539 135.715 194.124 135.407 193.816C135.099 193.498 134.599 193.34 133.909 193.34H132.117V196.826ZM141.918 202.062C141.237 202.062 140.63 201.912 140.098 201.614C139.576 201.306 139.165 200.881 138.866 200.34C138.568 199.798 138.418 199.168 138.418 198.45C138.418 197.722 138.563 197.082 138.852 196.532C139.151 195.981 139.562 195.552 140.084 195.244C140.616 194.936 141.232 194.782 141.932 194.782C142.614 194.782 143.206 194.936 143.71 195.244C144.214 195.542 144.606 195.944 144.886 196.448C145.166 196.952 145.306 197.507 145.306 198.114C145.306 198.207 145.302 198.31 145.292 198.422C145.292 198.524 145.288 198.641 145.278 198.772H139.874C139.921 199.444 140.14 199.957 140.532 200.312C140.934 200.657 141.396 200.83 141.918 200.83C142.338 200.83 142.688 200.736 142.968 200.55C143.258 200.354 143.472 200.092 143.612 199.766H145.096C144.91 200.419 144.536 200.965 143.976 201.404C143.426 201.842 142.74 202.062 141.918 202.062ZM141.918 196C141.424 196 140.985 196.149 140.602 196.448C140.22 196.737 139.986 197.176 139.902 197.764H143.822C143.794 197.222 143.603 196.793 143.248 196.476C142.894 196.158 142.45 196 141.918 196ZM148.519 201.894L145.915 194.95H147.469L149.401 200.48L151.333 194.95H152.873L150.283 201.894H148.519ZM156.985 202.062C156.303 202.062 155.697 201.912 155.165 201.614C154.642 201.306 154.231 200.881 153.933 200.34C153.634 199.798 153.485 199.168 153.485 198.45C153.485 197.722 153.629 197.082 153.919 196.532C154.217 195.981 154.628 195.552 155.151 195.244C155.683 194.936 156.299 194.782 156.999 194.782C157.68 194.782 158.273 194.936 158.777 195.244C159.281 195.542 159.673 195.944 159.953 196.448C160.233 196.952 160.373 197.507 160.373 198.114C160.373 198.207 160.368 198.31 160.359 198.422C160.359 198.524 160.354 198.641 160.345 198.772H154.941C154.987 199.444 155.207 199.957 155.599 200.312C156 200.657 156.462 200.83 156.985 200.83C157.405 200.83 157.755 200.736 158.035 200.55C158.324 200.354 158.539 200.092 158.679 199.766H160.163C159.976 200.419 159.603 200.965 159.043 201.404C158.492 201.842 157.806 202.062 156.985 202.062ZM156.985 196C156.49 196 156.051 196.149 155.669 196.448C155.286 196.737 155.053 197.176 154.969 197.764H158.889C158.861 197.222 158.669 196.793 158.315 196.476C157.96 196.158 157.517 196 156.985 196ZM161.913 201.894V194.95H163.229L163.341 196.168C163.555 195.738 163.868 195.402 164.279 195.16C164.699 194.908 165.179 194.782 165.721 194.782C166.561 194.782 167.219 195.043 167.695 195.566C168.18 196.088 168.423 196.868 168.423 197.904V201.894H166.953V198.058C166.953 196.714 166.402 196.042 165.301 196.042C164.75 196.042 164.293 196.238 163.929 196.63C163.574 197.022 163.397 197.582 163.397 198.31V201.894H161.913ZM172.732 202.062C171.892 202.062 171.23 201.8 170.744 201.278C170.268 200.755 170.03 199.976 170.03 198.94V194.95H171.514V198.786C171.514 200.13 172.065 200.802 173.166 200.802C173.717 200.802 174.17 200.606 174.524 200.214C174.879 199.822 175.056 199.262 175.056 198.534V194.95H176.54V201.894H175.224L175.112 200.676C174.898 201.105 174.58 201.446 174.16 201.698C173.75 201.94 173.274 202.062 172.732 202.062ZM181.676 202.062C180.995 202.062 180.388 201.912 179.856 201.614C179.334 201.306 178.923 200.881 178.624 200.34C178.326 199.798 178.176 199.168 178.176 198.45C178.176 197.722 178.321 197.082 178.61 196.532C178.909 195.981 179.32 195.552 179.842 195.244C180.374 194.936 180.99 194.782 181.69 194.782C182.372 194.782 182.964 194.936 183.468 195.244C183.972 195.542 184.364 195.944 184.644 196.448C184.924 196.952 185.064 197.507 185.064 198.114C185.064 198.207 185.06 198.31 185.05 198.422C185.05 198.524 185.046 198.641 185.036 198.772H179.632C179.679 199.444 179.898 199.957 180.29 200.312C180.692 200.657 181.154 200.83 181.676 200.83C182.096 200.83 182.446 200.736 182.726 200.55C183.016 200.354 183.23 200.092 183.37 199.766H184.854C184.668 200.419 184.294 200.965 183.734 201.404C183.184 201.842 182.498 202.062 181.676 202.062ZM181.676 196C181.182 196 180.743 196.149 180.36 196.448C179.978 196.737 179.744 197.176 179.66 197.764H183.58C183.552 197.222 183.361 196.793 183.006 196.476C182.652 196.158 182.208 196 181.676 196Z" fill="#EEFF70"/>
<path d="M54.5938 248.648V234.648H59.4138C60.5205 234.648 61.4272 234.835 62.1338 235.208C62.8538 235.581 63.3872 236.088 63.7338 236.728C64.0805 237.355 64.2538 238.055 64.2538 238.828C64.2538 239.695 64.0205 240.481 63.5538 241.188C63.1005 241.895 62.3872 242.401 61.4138 242.708L64.3938 248.648H61.9338L59.2138 243.008H56.7138V248.648H54.5938ZM56.7138 241.408H59.2938C60.2538 241.408 60.9538 241.175 61.3938 240.708C61.8472 240.241 62.0738 239.635 62.0738 238.888C62.0738 238.141 61.8538 237.548 61.4138 237.108C60.9738 236.655 60.2605 236.428 59.2738 236.428H56.7138V241.408Z" fill="white"/>
<g filter="url(#filter5_b_597_268)">
<rect x="94" y="231.648" width="121.422" height="20.7484" rx="2" fill="url(#paint6_linear_597_268)"/>
<rect x="93.75" y="231.398" width="121.922" height="21.2484" rx="2.25" stroke="white" stroke-opacity="0.6" stroke-width="0.5"/>
</g>
<path d="M130.23 247.037V237.237H133.604C134.379 237.237 135.014 237.368 135.508 237.629C136.012 237.89 136.386 238.245 136.628 238.693C136.871 239.132 136.992 239.622 136.992 240.163C136.992 240.77 136.829 241.32 136.502 241.815C136.185 242.31 135.686 242.664 135.004 242.879L137.09 247.037H135.368L133.464 243.089H131.714V247.037H130.23ZM131.714 241.969H133.52C134.192 241.969 134.682 241.806 134.99 241.479C135.308 241.152 135.466 240.728 135.466 240.205C135.466 239.682 135.312 239.267 135.004 238.959C134.696 238.642 134.197 238.483 133.506 238.483H131.714V241.969ZM141.516 247.205C140.835 247.205 140.228 247.056 139.696 246.757C139.173 246.449 138.763 246.024 138.464 245.483C138.165 244.942 138.016 244.312 138.016 243.593C138.016 242.865 138.161 242.226 138.45 241.675C138.749 241.124 139.159 240.695 139.682 240.387C140.214 240.079 140.83 239.925 141.53 239.925C142.211 239.925 142.804 240.079 143.308 240.387C143.812 240.686 144.204 241.087 144.484 241.591C144.764 242.095 144.904 242.65 144.904 243.257C144.904 243.35 144.899 243.453 144.89 243.565C144.89 243.668 144.885 243.784 144.876 243.915H139.472C139.519 244.587 139.738 245.1 140.13 245.455C140.531 245.8 140.993 245.973 141.516 245.973C141.936 245.973 142.286 245.88 142.566 245.693C142.855 245.497 143.07 245.236 143.21 244.909H144.694C144.507 245.562 144.134 246.108 143.574 246.547C143.023 246.986 142.337 247.205 141.516 247.205ZM141.516 241.143C141.021 241.143 140.583 241.292 140.2 241.591C139.817 241.88 139.584 242.319 139.5 242.907H143.42C143.392 242.366 143.201 241.936 142.846 241.619C142.491 241.302 142.048 241.143 141.516 241.143ZM146.794 247.037V241.339H145.8V240.093H146.794V239.085C146.794 238.329 146.981 237.788 147.354 237.461C147.737 237.125 148.273 236.957 148.964 236.957H149.692V238.217H149.188C148.861 238.217 148.628 238.287 148.488 238.427C148.348 238.558 148.278 238.782 148.278 239.099V240.093H149.874V241.339H148.278V247.037H146.794ZM154.258 247.205C153.577 247.205 152.97 247.056 152.438 246.757C151.916 246.449 151.505 246.024 151.206 245.483C150.908 244.942 150.758 244.312 150.758 243.593C150.758 242.865 150.903 242.226 151.192 241.675C151.491 241.124 151.902 240.695 152.424 240.387C152.956 240.079 153.572 239.925 154.272 239.925C154.954 239.925 155.546 240.079 156.05 240.387C156.554 240.686 156.946 241.087 157.226 241.591C157.506 242.095 157.646 242.65 157.646 243.257C157.646 243.35 157.642 243.453 157.632 243.565C157.632 243.668 157.628 243.784 157.618 243.915H152.214C152.261 244.587 152.48 245.1 152.872 245.455C153.274 245.8 153.736 245.973 154.258 245.973C154.678 245.973 155.028 245.88 155.308 245.693C155.598 245.497 155.812 245.236 155.952 244.909H157.436C157.25 245.562 156.876 246.108 156.316 246.547C155.766 246.986 155.08 247.205 154.258 247.205ZM154.258 241.143C153.764 241.143 153.325 241.292 152.942 241.591C152.56 241.88 152.326 242.319 152.242 242.907H156.162C156.134 242.366 155.943 241.936 155.588 241.619C155.234 241.302 154.79 241.143 154.258 241.143ZM159.186 247.037V240.093H160.516L160.642 241.409C160.885 240.952 161.221 240.592 161.65 240.331C162.089 240.06 162.616 239.925 163.232 239.925V241.479H162.826C162.415 241.479 162.047 241.549 161.72 241.689C161.403 241.82 161.146 242.048 160.95 242.375C160.763 242.692 160.67 243.136 160.67 243.705V247.037H159.186ZM164.504 247.037V240.093H165.834L165.96 241.409C166.203 240.952 166.539 240.592 166.968 240.331C167.407 240.06 167.934 239.925 168.55 239.925V241.479H168.144C167.734 241.479 167.365 241.549 167.038 241.689C166.721 241.82 166.464 242.048 166.268 242.375C166.082 242.692 165.988 243.136 165.988 243.705V247.037H164.504ZM172.175 247.205C171.587 247.205 171.101 247.107 170.719 246.911C170.336 246.715 170.051 246.458 169.865 246.141C169.678 245.814 169.585 245.46 169.585 245.077C169.585 244.405 169.846 243.873 170.369 243.481C170.891 243.089 171.638 242.893 172.609 242.893H174.429V242.767C174.429 242.226 174.279 241.82 173.981 241.549C173.691 241.278 173.313 241.143 172.847 241.143C172.436 241.143 172.077 241.246 171.769 241.451C171.47 241.647 171.288 241.941 171.223 242.333H169.739C169.785 241.829 169.953 241.4 170.243 241.045C170.541 240.681 170.915 240.406 171.363 240.219C171.82 240.023 172.319 239.925 172.861 239.925C173.831 239.925 174.583 240.182 175.115 240.695C175.647 241.199 175.913 241.89 175.913 242.767V247.037H174.625L174.499 245.847C174.303 246.23 174.018 246.552 173.645 246.813C173.271 247.074 172.781 247.205 172.175 247.205ZM172.469 246.001C172.87 246.001 173.206 245.908 173.477 245.721C173.757 245.525 173.971 245.268 174.121 244.951C174.279 244.634 174.377 244.284 174.415 243.901H172.763C172.175 243.901 171.755 244.004 171.503 244.209C171.26 244.414 171.139 244.671 171.139 244.979C171.139 245.296 171.255 245.548 171.489 245.735C171.731 245.912 172.058 246.001 172.469 246.001ZM177.643 247.037V236.957H179.127V247.037H177.643Z" fill="#EEFF70"/>
<path d="M378.902 89.0259C378.902 88.1112 379.112 87.3085 379.532 86.6179C379.962 85.9272 380.554 85.3905 381.31 85.0079C382.076 84.6252 382.958 84.4339 383.956 84.4339C384.955 84.4339 385.837 84.6252 386.602 85.0079C387.368 85.3999 387.965 85.9505 388.394 86.6599C388.824 87.3785 389.038 88.2232 389.038 89.1939C389.038 90.2952 388.772 91.2099 388.24 91.9379C387.708 92.6752 386.976 93.1512 386.042 93.3659L386.042 92.0079C386.63 91.8772 387.097 91.5645 387.442 91.0699C387.788 90.5845 387.96 89.9592 387.96 89.1939C387.96 88.4752 387.797 87.8499 387.47 87.3179C387.153 86.7859 386.696 86.3705 386.098 86.0719C385.501 85.7825 384.787 85.6379 383.956 85.6379C383.126 85.6379 382.412 85.7825 381.814 86.0719C381.217 86.3612 380.755 86.7625 380.428 87.2759C380.111 87.7892 379.952 88.3865 379.952 89.0679C379.952 90.1132 380.256 90.9019 380.862 91.4339C381.478 91.9659 382.318 92.2692 383.382 92.3439L383.382 89.5159L384.306 89.5159L384.306 93.5479L379.07 93.5479L379.07 92.4699L380.68 92.3719C380.111 92.0172 379.672 91.5832 379.364 91.0699C379.056 90.5565 378.902 89.8752 378.902 89.0259ZM379.07 95.3376L386.014 95.3376L386.014 96.4016L384.684 96.4996C385.142 96.7142 385.506 97.0409 385.776 97.4796C386.047 97.9182 386.182 98.4596 386.182 99.1036L384.95 99.1036L384.95 98.7816C384.95 98.3709 384.876 97.9929 384.726 97.6476C384.586 97.3022 384.344 97.0269 383.998 96.8216C383.653 96.6162 383.177 96.5136 382.57 96.5136L379.07 96.5136L379.07 95.3376ZM378.902 103.328C378.902 102.674 379.052 102.086 379.35 101.564C379.649 101.041 380.069 100.626 380.61 100.318C381.161 100.019 381.805 99.8698 382.542 99.8698C383.28 99.8698 383.919 100.024 384.46 100.332C385.011 100.64 385.436 101.055 385.734 101.578C386.033 102.11 386.182 102.702 386.182 103.356C386.182 104.009 386.033 104.597 385.734 105.12C385.436 105.642 385.011 106.053 384.46 106.352C383.919 106.66 383.28 106.814 382.542 106.814C381.805 106.814 381.161 106.66 380.61 106.352C380.069 106.044 379.649 105.624 379.35 105.092C379.052 104.569 378.902 103.981 378.902 103.328ZM379.91 103.328C379.91 103.729 380.008 104.102 380.204 104.448C380.4 104.793 380.694 105.073 381.086 105.288C381.478 105.502 381.964 105.61 382.542 105.61C383.121 105.61 383.606 105.502 383.998 105.288C384.39 105.082 384.684 104.807 384.88 104.462C385.076 104.116 385.174 103.748 385.174 103.356C385.174 102.954 385.076 102.581 384.88 102.236C384.684 101.89 384.39 101.61 383.998 101.396C383.606 101.181 383.121 101.074 382.542 101.074C381.964 101.074 381.478 101.181 381.086 101.396C380.694 101.61 380.4 101.886 380.204 102.222C380.008 102.567 379.91 102.936 379.91 103.328ZM379.07 109.589L386.014 107.559L386.014 108.735L380.568 110.205L386.014 111.829L386.014 113.159L380.568 114.797L386.014 116.253L386.014 117.443L379.07 115.413L379.07 114.209L384.796 112.501L379.07 110.793L379.07 109.589ZM379.07 121.488C379.07 120.853 379.224 120.354 379.532 119.99C379.84 119.626 380.396 119.444 381.198 119.444L385.02 119.444L385.02 118.24L386.014 118.24L386.014 119.444L387.68 119.598L387.68 120.62L386.014 120.62L386.014 122.664L385.02 122.664L385.02 120.62L381.198 120.62C380.76 120.62 380.461 120.708 380.302 120.886C380.153 121.063 380.078 121.376 380.078 121.824L380.078 122.552L379.07 122.552L379.07 121.488ZM379.07 124.158L389.15 124.158L389.15 125.334L384.824 125.334C385.254 125.567 385.585 125.899 385.818 126.328C386.061 126.757 386.182 127.224 386.182 127.728C386.182 128.531 385.93 129.175 385.426 129.66C384.932 130.145 384.166 130.388 383.13 130.388L379.07 130.388L379.07 129.226L383.004 129.226C384.451 129.226 385.174 128.643 385.174 127.476C385.174 126.869 384.955 126.361 384.516 125.95C384.087 125.539 383.471 125.334 382.668 125.334L379.07 125.334L379.07 124.158ZM379.07 135.875L389.15 135.875L389.15 137.051L384.824 137.051C385.254 137.284 385.585 137.615 385.818 138.045C386.061 138.474 386.182 138.941 386.182 139.445C386.182 140.247 385.93 140.891 385.426 141.377C384.932 141.862 384.166 142.105 383.13 142.105L379.07 142.105L379.07 140.943L383.004 140.943C384.451 140.943 385.174 140.359 385.174 139.193C385.174 138.586 384.955 138.077 384.516 137.667C384.087 137.256 383.471 137.051 382.668 137.051L379.07 137.051L379.07 135.875ZM378.902 146.196C378.902 145.618 379 145.137 379.196 144.754C379.392 144.372 379.654 144.087 379.98 143.9C380.307 143.714 380.662 143.62 381.044 143.62C381.754 143.62 382.3 143.891 382.682 144.432C383.065 144.974 383.256 145.711 383.256 146.644L383.256 148.52L383.34 148.52C383.947 148.52 384.404 148.362 384.712 148.044C385.03 147.727 385.188 147.302 385.188 146.77C385.188 146.313 385.072 145.916 384.838 145.58C384.614 145.254 384.283 145.048 383.844 144.964L383.844 143.76C384.348 143.807 384.773 143.975 385.118 144.264C385.464 144.563 385.725 144.932 385.902 145.37C386.089 145.809 386.182 146.276 386.182 146.77C386.182 147.741 385.921 148.469 385.398 148.954C384.885 149.449 384.199 149.696 383.34 149.696L379.07 149.696L379.07 148.646L380.316 148.576C379.924 148.38 379.588 148.091 379.308 147.708C379.038 147.335 378.902 146.831 378.902 146.196ZM379.896 146.378C379.896 146.826 380.013 147.209 380.246 147.526C380.48 147.853 380.783 148.1 381.156 148.268C381.53 148.436 381.922 148.52 382.332 148.52L382.346 148.52L382.346 146.742C382.346 146.052 382.225 145.562 381.982 145.272C381.749 144.992 381.455 144.852 381.1 144.852C380.736 144.852 380.442 144.983 380.218 145.244C380.004 145.515 379.896 145.893 379.896 146.378ZM378.902 154.653C378.902 153.99 379.052 153.393 379.35 152.861C379.658 152.338 380.083 151.923 380.624 151.615C381.175 151.316 381.814 151.167 382.542 151.167C383.27 151.167 383.905 151.316 384.446 151.615C384.997 151.923 385.422 152.338 385.72 152.861C386.028 153.393 386.182 153.99 386.182 154.653C386.182 155.474 385.968 156.165 385.538 156.725C385.109 157.294 384.535 157.653 383.816 157.803L383.816 156.599C384.246 156.505 384.577 156.277 384.81 155.913C385.053 155.549 385.174 155.124 385.174 154.639C385.174 154.247 385.076 153.878 384.88 153.533C384.684 153.187 384.39 152.907 383.998 152.693C383.606 152.478 383.121 152.371 382.542 152.371C381.964 152.371 381.478 152.478 381.086 152.693C380.694 152.907 380.396 153.187 380.19 153.533C379.994 153.878 379.896 154.247 379.896 154.639C379.896 155.124 380.013 155.549 380.246 155.913C380.489 156.277 380.83 156.505 381.268 156.599L381.268 157.803C380.568 157.663 379.999 157.308 379.56 156.739C379.122 156.169 378.902 155.474 378.902 154.653ZM379.07 159.445L389.15 159.445L389.15 160.621L383.088 160.621L386.014 163.463L386.014 164.905L382.878 161.825L379.07 165.297L379.07 163.799L382.668 160.621L379.07 160.621L379.07 159.445ZM378.902 169.116C378.902 168.453 379.052 167.865 379.35 167.352C379.658 166.838 380.083 166.432 380.624 166.134C381.166 165.844 381.805 165.7 382.542 165.7C383.27 165.7 383.905 165.844 384.446 166.134C384.997 166.423 385.422 166.824 385.72 167.338C386.028 167.86 386.182 168.462 386.182 169.144C386.182 169.816 386.028 170.394 385.72 170.88C385.422 171.374 385.025 171.752 384.53 172.014C384.036 172.275 383.504 172.406 382.934 172.406C382.832 172.406 382.729 172.401 382.626 172.392C382.524 172.392 382.407 172.392 382.276 172.392L382.276 166.862C381.744 166.89 381.301 167.011 380.946 167.226C380.601 167.45 380.34 167.725 380.162 168.052C379.985 168.388 379.896 168.742 379.896 169.116C379.896 169.601 380.008 170.007 380.232 170.334C380.456 170.66 380.76 170.898 381.142 171.048L381.142 172.21C380.498 172.023 379.962 171.664 379.532 171.132C379.112 170.609 378.902 169.937 378.902 169.116ZM385.188 169.116C385.188 168.556 385.016 168.056 384.67 167.618C384.334 167.188 383.84 166.941 383.186 166.876L383.186 171.244C383.812 171.216 384.302 171.001 384.656 170.6C385.011 170.198 385.188 169.704 385.188 169.116ZM379.07 173.965L386.014 173.965L386.014 175.029L384.684 175.127C385.142 175.341 385.506 175.668 385.776 176.107C386.047 176.545 386.182 177.087 386.182 177.731L384.95 177.731L384.95 177.409C384.95 176.998 384.876 176.62 384.726 176.275C384.586 175.929 384.344 175.654 383.998 175.449C383.653 175.243 383.177 175.141 382.57 175.141L379.07 175.141L379.07 173.965Z" fill="white" fill-opacity="0.4"/>
<path d="M436.654 25.7435L446.454 25.7435L446.454 27.1155L439.622 30.6435L446.454 34.1435L446.454 35.5295L436.654 35.5295L436.654 34.3535L444.354 34.3535L438.054 31.0775L438.054 30.1955L444.34 26.9195L436.654 26.9195L436.654 25.7435ZM436.486 39.837C436.486 39.2584 436.584 38.7777 436.78 38.395C436.976 38.0124 437.238 37.7277 437.564 37.541C437.891 37.3544 438.246 37.261 438.628 37.261C439.338 37.261 439.884 37.5317 440.266 38.073C440.649 38.6144 440.84 39.3517 440.84 40.285L440.84 42.161L440.924 42.161C441.531 42.161 441.988 42.0024 442.296 41.685C442.614 41.3677 442.772 40.943 442.772 40.411C442.772 39.9537 442.656 39.557 442.422 39.221C442.198 38.8944 441.867 38.689 441.428 38.605L441.428 37.401C441.932 37.4477 442.357 37.6157 442.702 37.905C443.048 38.2037 443.309 38.5724 443.486 39.011C443.673 39.4497 443.766 39.9164 443.766 40.411C443.766 41.3817 443.505 42.1097 442.982 42.595C442.469 43.0897 441.783 43.337 440.924 43.337L436.654 43.337L436.654 42.287L437.9 42.217C437.508 42.021 437.172 41.7317 436.892 41.349C436.622 40.9757 436.486 40.4717 436.486 39.837ZM437.48 40.019C437.48 40.467 437.597 40.8497 437.83 41.167C438.064 41.4937 438.367 41.741 438.74 41.909C439.114 42.077 439.506 42.161 439.916 42.161L439.93 42.161L439.93 40.383C439.93 39.6924 439.809 39.2024 439.566 38.913C439.333 38.633 439.039 38.493 438.684 38.493C438.32 38.493 438.026 38.6237 437.802 38.885C437.588 39.1557 437.48 39.5337 437.48 40.019ZM436.654 45.1013L443.598 45.1013L443.598 46.1653L442.268 46.2633C442.726 46.4779 443.09 46.8046 443.36 47.2433C443.631 47.6819 443.766 48.2233 443.766 48.8673L442.534 48.8673L442.534 48.5453C442.534 48.1346 442.46 47.7566 442.31 47.4113C442.17 47.0659 441.928 46.7906 441.582 46.5853C441.237 46.3799 440.761 46.2773 440.154 46.2773L436.654 46.2773L436.654 45.1013ZM436.654 50.1872L446.734 50.1872L446.734 51.3632L440.672 51.3632L443.598 54.2052L443.598 55.6472L440.462 52.5672L436.654 56.0392L436.654 54.5412L440.252 51.3632L436.654 51.3632L436.654 50.1872ZM436.486 59.858C436.486 59.1954 436.636 58.6074 436.934 58.094C437.242 57.5807 437.667 57.1747 438.208 56.876C438.75 56.5867 439.389 56.442 440.126 56.442C440.854 56.442 441.489 56.5867 442.03 56.876C442.581 57.1654 443.006 57.5667 443.304 58.08C443.612 58.6027 443.766 59.2047 443.766 59.886C443.766 60.558 443.612 61.1367 443.304 61.622C443.006 62.1167 442.609 62.4947 442.114 62.756C441.62 63.0174 441.088 63.148 440.518 63.148C440.416 63.148 440.313 63.1434 440.21 63.134C440.108 63.134 439.991 63.134 439.86 63.134L439.86 57.604C439.328 57.632 438.885 57.7534 438.53 57.968C438.185 58.192 437.924 58.4674 437.746 58.794C437.569 59.13 437.48 59.4847 437.48 59.858C437.48 60.3434 437.592 60.7494 437.816 61.076C438.04 61.4027 438.344 61.6407 438.726 61.79L438.726 62.952C438.082 62.7654 437.546 62.406 437.116 61.874C436.696 61.3514 436.486 60.6794 436.486 59.858ZM442.772 59.858C442.772 59.298 442.6 58.7987 442.254 58.36C441.918 57.9307 441.424 57.6834 440.77 57.618L440.77 61.986C441.396 61.958 441.886 61.7434 442.24 61.342C442.595 60.9407 442.772 60.446 442.772 59.858ZM436.654 67.2183C436.654 66.5836 436.808 66.0843 437.116 65.7203C437.424 65.3563 437.98 65.1743 438.782 65.1743L442.604 65.1743L442.604 63.9703L443.598 63.9703L443.598 65.1743L445.264 65.3283L445.264 66.3503L443.598 66.3503L443.598 68.3943L442.604 68.3943L442.604 66.3503L438.782 66.3503C438.344 66.3503 438.045 66.439 437.886 66.6163C437.737 66.7936 437.662 67.1063 437.662 67.5543L437.662 68.2823L436.654 68.2823L436.654 67.2183ZM436.486 72.819C436.486 72.1563 436.636 71.5683 436.934 71.055C437.242 70.5416 437.667 70.1356 438.208 69.837C438.75 69.5476 439.389 69.403 440.126 69.403C440.854 69.403 441.489 69.5476 442.03 69.837C442.581 70.1263 443.006 70.5276 443.304 71.041C443.612 71.5636 443.766 72.1656 443.766 72.847C443.766 73.519 443.612 74.0976 443.304 74.583C443.006 75.0776 442.609 75.4556 442.114 75.717C441.62 75.9783 441.088 76.109 440.518 76.109C440.416 76.109 440.313 76.1043 440.21 76.095C440.108 76.095 439.991 76.095 439.86 76.095L439.86 70.565C439.328 70.593 438.885 70.7143 438.53 70.929C438.185 71.153 437.924 71.4283 437.746 71.755C437.569 72.091 437.48 72.4456 437.48 72.819C437.48 73.3043 437.592 73.7103 437.816 74.037C438.04 74.3636 438.344 74.6016 438.726 74.751L438.726 75.913C438.082 75.7263 437.546 75.367 437.116 74.835C436.696 74.3123 436.486 73.6403 436.486 72.819ZM442.772 72.819C442.772 72.259 442.6 71.7596 442.254 71.321C441.918 70.8916 441.424 70.6443 440.77 70.579L440.77 74.947C441.396 74.919 441.886 74.7043 442.24 74.303C442.595 73.9016 442.772 73.407 442.772 72.819ZM436.486 80.7897C436.486 80.127 436.636 79.539 436.934 79.0257C437.242 78.5123 437.667 78.1063 438.208 77.8077C438.75 77.5183 439.389 77.3737 440.126 77.3737C440.854 77.3737 441.489 77.5183 442.03 77.8077C442.581 78.097 443.006 78.4983 443.304 79.0117C443.612 79.5343 443.766 80.1363 443.766 80.8177C443.766 81.4897 443.612 82.0683 443.304 82.5537C443.006 83.0483 442.609 83.4263 442.114 83.6877C441.62 83.949 441.088 84.0797 440.518 84.0797C440.416 84.0797 440.313 84.075 440.21 84.0657C440.108 84.0657 439.991 84.0657 439.86 84.0657L439.86 78.5357C439.328 78.5637 438.885 78.685 438.53 78.8997C438.185 79.1237 437.924 79.399 437.746 79.7257C437.569 80.0617 437.48 80.4163 437.48 80.7897C437.48 81.275 437.592 81.681 437.816 82.0077C438.04 82.3343 438.344 82.5723 438.726 82.7217L438.726 83.8837C438.082 83.697 437.546 83.3377 437.116 82.8057C436.696 82.283 436.486 81.611 436.486 80.7897ZM442.772 80.7897C442.772 80.2297 442.6 79.7303 442.254 79.2917C441.918 78.8623 441.424 78.615 440.77 78.5497L440.77 82.9177C441.396 82.8897 441.886 82.675 442.24 82.2737C442.595 81.8723 442.772 81.3777 442.772 80.7897ZM436.654 85.6384L443.598 85.6384L443.598 86.7024L442.268 86.8004C442.726 87.015 443.09 87.3417 443.36 87.7804C443.631 88.219 443.766 88.7604 443.766 89.4044L442.534 89.4044L442.534 89.0824C442.534 88.6717 442.46 88.2937 442.31 87.9484C442.17 87.603 441.928 87.3277 441.582 87.1224C441.237 86.917 440.761 86.8144 440.154 86.8144L436.654 86.8144L436.654 85.6384Z" fill="white" fill-opacity="0.4"/>
<defs>
<filter id="filter0_b_597_268" x="52.4977" y="-35.5721" width="310.174" height="103.753" filterUnits="userSpaceOnUse" color-interpolation-filters="sRGB">
<feFlood flood-opacity="0" result="BackgroundImageFix"/>
<feGaussianBlur in="BackgroundImage" stdDeviation="20.5011"/>
<feComposite in2="SourceAlpha" operator="in" result="effect1_backgroundBlur_597_268"/>
<feBlend mode="normal" in="SourceGraphic" in2="effect1_backgroundBlur_597_268" result="shape"/>
</filter>
<filter id="filter1_b_597_268" x="52.4977" y="9.57145" width="289.928" height="103.753" filterUnits="userSpaceOnUse" color-interpolation-filters="sRGB">
<feFlood flood-opacity="0" result="BackgroundImageFix"/>
<feGaussianBlur in="BackgroundImage" stdDeviation="20.5011"/>
<feComposite in2="SourceAlpha" operator="in" result="effect1_backgroundBlur_597_268"/>
<feBlend mode="normal" in="SourceGraphic" in2="effect1_backgroundBlur_597_268" result="shape"/>
</filter>
<filter id="filter2_b_597_268" x="52.4977" y="54.715" width="263.907" height="103.753" filterUnits="userSpaceOnUse" color-interpolation-filters="sRGB">
<feFlood flood-opacity="0" result="BackgroundImageFix"/>
<feGaussianBlur in="BackgroundImage" stdDeviation="20.5011"/>
<feComposite in2="SourceAlpha" operator="in" result="effect1_backgroundBlur_597_268"/>
<feBlend mode="normal" in="SourceGraphic" in2="effect1_backgroundBlur_597_268" result="shape"/>
</filter>
<filter id="filter3_b_597_268" x="52.4977" y="99.8586" width="240.362" height="103.753" filterUnits="userSpaceOnUse" color-interpolation-filters="sRGB">
<feFlood flood-opacity="0" result="BackgroundImageFix"/>
<feGaussianBlur in="BackgroundImage" stdDeviation="20.5011"/>
<feComposite in2="SourceAlpha" operator="in" result="effect1_backgroundBlur_597_268"/>
<feBlend mode="normal" in="SourceGraphic" in2="effect1_backgroundBlur_597_268" result="shape"/>
</filter>
<filter id="filter4_b_597_268" x="52.4977" y="145.002" width="218.057" height="103.753" filterUnits="userSpaceOnUse" color-interpolation-filters="sRGB">
<feFlood flood-opacity="0" result="BackgroundImageFix"/>
<feGaussianBlur in="BackgroundImage" stdDeviation="20.5011"/>
<feComposite in2="SourceAlpha" operator="in" result="effect1_backgroundBlur_597_268"/>
<feBlend mode="normal" in="SourceGraphic" in2="effect1_backgroundBlur_597_268" result="shape"/>
</filter>
<filter id="filter5_b_597_268" x="52.4977" y="190.146" width="204.426" height="103.753" filterUnits="userSpaceOnUse" color-interpolation-filters="sRGB">
<feFlood flood-opacity="0" result="BackgroundImageFix"/>
<feGaussianBlur in="BackgroundImage" stdDeviation="20.5011"/>
<feComposite in2="SourceAlpha" operator="in" result="effect1_backgroundBlur_597_268"/>
<feBlend mode="normal" in="SourceGraphic" in2="effect1_backgroundBlur_597_268" result="shape"/>
</filter>
<linearGradient id="paint0_linear_597_268" x1="6.39453" y1="1.75656" x2="-34.4303" y2="8.53765" gradientUnits="userSpaceOnUse">
<stop stop-color="#DDEE36"/>
<stop offset="1" stop-color="#96B42B"/>
</linearGradient>
<linearGradient id="paint1_linear_597_268" x1="91.2314" y1="5.93019" x2="314.647" y2="61.0112" gradientUnits="userSpaceOnUse">
<stop offset="0.383653" stop-color="#637B0D"/>
<stop offset="1" stop-color="#272B05"/>
</linearGradient>
<linearGradient id="paint2_linear_597_268" x1="91.4781" y1="51.0737" x2="296.989" y2="97.2252" gradientUnits="userSpaceOnUse">
<stop offset="0.383653" stop-color="#637B0D"/>
<stop offset="1" stop-color="#272B05"/>
</linearGradient>
<linearGradient id="paint3_linear_597_268" x1="91.7953" y1="96.2173" x2="273.518" y2="131.894" gradientUnits="userSpaceOnUse">
<stop offset="0.383653" stop-color="#637B0D"/>
<stop offset="1" stop-color="#272B05"/>
</linearGradient>
<linearGradient id="paint4_linear_597_268" x1="92.0822" y1="141.361" x2="251.594" y2="168.602" gradientUnits="userSpaceOnUse">
<stop offset="0.383653" stop-color="#637B0D"/>
<stop offset="1" stop-color="#272B05"/>
</linearGradient>
<linearGradient id="paint5_linear_597_268" x1="92.3541" y1="186.504" x2="230.285" y2="206.721" gradientUnits="userSpaceOnUse">
<stop offset="0.383653" stop-color="#637B0D"/>
<stop offset="1" stop-color="#272B05"/>
</linearGradient>
<linearGradient id="paint6_linear_597_268" x1="92.5202" y1="231.648" x2="217.032" y2="248.056" gradientUnits="userSpaceOnUse">
<stop offset="0.383653" stop-color="#637B0D"/>
<stop offset="1" stop-color="#272B05"/>
</linearGradient>
</defs>
</svg>