<svg width="185" height="38" viewBox="0 0 185 38" fill="none" xmlns="http://www.w3.org/2000/svg">
<path d="M45.246 1.30166C40.6371 1.30166 38.9779 4.52789 38.9779 7.56976V9.41331H38.0561C37.3187 9.41331 36.7656 9.96638 36.7656 10.7038C36.7656 11.4412 37.3187 11.9943 38.0561 11.9943H38.9779V24.7148C38.9779 25.4523 39.531 26.0975 40.3606 26.0975C41.1902 26.0975 41.7432 25.5444 41.7432 24.7148V11.9021H44.6929C45.4303 11.9021 45.9834 11.349 45.9834 10.6116C45.9834 9.8742 45.4303 9.32113 44.6929 9.32113H41.7432V7.47758C41.7432 5.81838 42.3885 3.79046 45.3382 3.79046C46.0756 3.79046 46.6287 3.2374 46.6287 2.59215C46.5365 1.85473 45.9834 1.30166 45.246 1.30166ZM55.7543 8.95242C53.9107 8.86024 52.2515 9.68985 51.1454 11.1647V10.4273C51.1454 9.68985 50.5923 9.0446 49.7627 9.0446C48.9331 9.0446 48.38 9.68985 48.38 10.4273V24.6227C48.38 25.3601 48.9331 26.0053 49.7627 26.0053C50.5923 26.0053 51.1454 25.4523 51.1454 24.6227V16.7875C51.1454 13.4691 52.8967 11.5334 55.7543 11.5334C56.4917 11.5334 57.0448 10.9803 57.0448 10.2429C57.0448 9.50549 56.3995 8.95242 55.7543 8.95242ZM72.0697 15.9579C72.0697 14.3909 71.6089 12.8239 70.7793 11.5334C69.4888 9.78202 67.3687 8.76807 65.1564 8.95242C60.4553 8.95242 57.7822 12.0865 57.7822 17.525C57.7822 23.1478 60.4553 26.1897 65.5251 26.1897C67.553 26.2819 69.5809 25.5444 71.148 24.1618C71.4245 23.9774 71.6088 23.6087 71.6088 23.24C71.6088 22.5947 71.0558 22.0417 70.4105 22.0417C70.134 22.0417 69.8575 22.1339 69.6731 22.3182C68.567 23.24 67.0921 23.7931 65.6173 23.7931C62.5754 23.7931 60.6397 21.7651 60.5475 18.5389H70.5027C72.0697 18.3546 72.0697 16.8797 72.0697 15.9579ZM65.2486 11.349C68.0139 11.349 69.3966 12.9161 69.4888 15.9579H60.5475C60.824 13.0082 62.4832 11.349 65.2486 11.349ZM81.1032 16.1423C79.0753 15.4049 77.4161 14.8518 77.4161 13.377C77.4161 11.7178 79.2596 11.5334 80.2736 11.5334C81.6562 11.4412 83.0389 11.9943 83.9607 12.9161C84.4216 13.377 85.2512 13.377 85.7121 12.9161C85.9886 12.6395 86.0808 12.363 86.0808 11.9943C86.0808 11.7178 85.9886 11.4412 85.8042 11.1647C84.4216 9.59767 82.3937 8.67589 80.3657 8.86024C76.9552 8.86024 74.8351 10.6116 74.8351 13.2848C74.8351 16.6032 77.7848 17.6171 80.3657 18.5389C82.3015 19.1842 84.0529 19.7372 84.0529 21.2121C84.0529 23.1478 81.8406 23.5165 80.5501 23.5165C78.9831 23.6087 77.4161 22.9635 76.3099 21.8573C76.0334 21.5808 75.7569 21.4886 75.3881 21.3964C74.7429 21.3964 74.1898 21.9495 74.1898 22.5947C74.1898 22.8713 74.282 23.1478 74.4664 23.4243C76.0334 25.2679 78.2457 26.1897 80.5501 26.1897C84.4216 26.1897 86.726 24.3461 86.726 21.3964C86.5417 17.9859 83.6842 17.0641 81.1032 16.1423ZM97.0499 8.86024C95.3907 8.76807 93.7315 9.50549 92.6254 10.796V1.76255C92.6254 1.02513 92.0723 0.379883 91.2427 0.379883C90.5053 0.379883 89.9522 0.93295 89.9522 1.76255V24.6227C89.9522 25.3601 90.5053 26.0053 91.2427 26.0053C91.9802 26.0053 92.6254 25.4523 92.6254 24.6227V16.0501C92.6254 12.9161 94.1003 11.349 97.0499 11.349C99.9996 11.349 101.014 12.6395 101.014 15.7736V24.6227C101.014 25.3601 101.567 26.0053 102.396 26.0053C103.134 26.0053 103.687 25.4523 103.687 24.6227V15.3127C103.687 11.0725 101.474 8.86024 97.0499 8.86024ZM125.994 9.13678C125.441 9.13678 124.888 9.50549 124.703 10.0586L120.832 20.9355L117.698 10.0586C117.421 9.32113 116.684 9.0446 115.946 9.22896C115.578 9.32113 115.301 9.68985 115.117 10.0586L111.983 20.9355L108.296 9.96638C108.111 9.41331 107.65 9.0446 107.005 9.13678C106.268 9.13678 105.715 9.68985 105.715 10.4273C105.715 10.6116 105.715 10.796 105.807 10.9803L110.969 25.0835C111.153 25.6366 111.614 26.0053 112.259 26.0053C112.812 26.0053 113.365 25.6366 113.55 25.0835L116.592 14.7596L119.634 25.0835C119.818 25.6366 120.371 26.0053 120.924 26.0053C121.477 26.0053 122.03 25.6366 122.215 25.0835L127.376 10.9803C127.469 10.796 127.469 10.6116 127.469 10.4273C127.284 9.68985 126.731 9.13678 125.994 9.13678ZM135.765 8.86024C130.879 8.86024 128.206 11.9021 128.206 17.4328C128.206 22.9635 130.879 26.0975 135.765 26.0975C140.65 26.0975 143.323 23.0556 143.323 17.4328C143.323 11.8099 140.65 8.86024 135.765 8.86024ZM135.765 23.6087C132.538 23.6087 130.879 21.5808 130.879 17.4328C130.879 13.2848 132.538 11.2569 135.765 11.2569C138.991 11.2569 140.558 13.377 140.558 17.4328C140.558 21.4886 138.991 23.7009 135.765 23.6087ZM153.647 8.95242C151.804 8.86024 150.144 9.68985 149.038 11.1647V10.4273C149.038 9.68985 148.485 9.0446 147.748 9.0446C147.01 9.0446 146.365 9.59767 146.365 10.3351V24.5305C146.365 25.2679 146.918 25.9131 147.656 25.9131C148.393 25.9131 149.038 25.3601 149.038 24.6227V16.7875C149.038 13.4691 150.79 11.5334 153.647 11.5334C154.385 11.5334 154.938 10.9803 154.938 10.2429C154.938 9.50549 154.385 8.95242 153.647 8.95242ZM163.879 15.9579L169.41 11.5334C169.778 11.2569 169.963 10.8882 169.963 10.4273C169.963 9.68985 169.41 9.13678 168.672 9.13678C168.303 9.13678 168.027 9.22896 167.75 9.50549L159.823 15.9579V1.76255C159.823 1.02513 159.27 0.379883 158.533 0.379883C157.795 0.379883 157.15 0.93295 157.15 1.67037V24.5305C157.15 25.2679 157.703 25.9131 158.44 25.9131C159.178 25.9131 159.823 25.3601 159.823 24.6227V19.092L161.667 17.6171L167.75 25.3601C168.027 25.7288 168.488 26.0053 168.856 26.0053C169.594 26.0053 170.147 25.4523 170.147 24.7148C170.147 24.4383 170.055 24.0696 169.87 23.8852L163.879 15.9579ZM178.996 16.1423C176.968 15.4049 175.309 14.8518 175.309 13.377C175.309 11.7178 177.152 11.5334 178.166 11.5334C179.549 11.4412 180.932 11.9943 181.854 12.9161C182.13 13.1926 182.407 13.2848 182.775 13.2848C183.421 13.1926 183.881 12.6395 183.881 11.9943C183.881 11.7178 183.789 11.4412 183.605 11.1647C182.222 9.59767 180.194 8.67589 178.166 8.86024C174.756 8.86024 172.636 10.6116 172.636 13.2848C172.636 16.6032 175.585 17.6171 178.166 18.5389C180.102 19.1842 181.854 19.7372 181.854 21.2121C181.854 23.1478 179.641 23.5165 178.351 23.5165C176.784 23.6087 175.217 22.9635 174.111 21.8573C173.834 21.5808 173.558 21.4886 173.189 21.3964C172.544 21.3964 171.991 21.9495 171.991 22.5947C171.991 22.8713 172.083 23.1478 172.267 23.4243C173.834 25.1757 176.046 26.0975 178.443 26.0053C182.314 26.0053 184.619 24.1618 184.619 21.2121C184.435 17.9859 181.577 17.0641 178.996 16.1423Z" fill="#4D4D4D"/>
<path d="M0.632812 23.8856C1.0937 27.204 2.66073 30.2458 5.05735 32.6424L10.4037 27.2961C10.4037 21.6733 13.3534 16.5113 18.2388 13.6538L0.632812 23.8856Z" fill="#9B65C3"/>
<path d="M10.4037 27.2958C7.63833 27.2958 4.96517 26.5584 2.56855 25.1757C1.9233 24.807 1.27806 24.3461 0.632812 23.8853C1.0937 27.2037 2.66073 30.2455 5.05735 32.6421L10.4037 27.2958Z" fill="#9B65C3"/>
<path d="M10.403 27.2956L5.05664 32.6419C7.45326 35.0385 10.4951 36.6055 13.8135 37.0664L23.9531 19.4604C21.1878 24.2537 16.0258 27.2956 10.403 27.2956Z" fill="#BE63C5"/>
<path d="M12.523 35.1305C11.1404 32.7339 10.403 30.0607 10.403 27.2954L5.05664 32.6417C7.45326 35.0383 10.4951 36.6054 13.8135 37.0663C13.3526 36.421 12.8918 35.7758 12.523 35.1305Z" fill="#BF63C6"/>
<path d="M30.4051 6.64795L18.2376 13.6535C13.3522 16.4188 7.45278 16.4188 2.56736 13.6535C1.18469 16.0501 0.447266 18.8154 0.447266 21.5808C0.447266 22.3182 0.539443 23.1478 0.631621 23.8852C1.27687 24.3461 1.92211 24.807 2.56736 25.1757C4.96398 26.5584 7.63714 27.2958 10.4025 27.2958L30.6816 7.01666C30.5894 6.92448 30.4972 6.8323 30.4051 6.64795Z" fill="#3278B1"/>
<path d="M2.56855 25.176C4.96517 26.5587 7.63833 27.2961 10.4037 27.2961C10.4037 21.6733 13.3534 16.5113 18.2388 13.6538L0.632812 23.7934C1.27806 24.3464 1.9233 24.8073 2.56855 25.176Z" fill="#3278B2"/>
<path d="M2.56736 13.6538C1.18469 16.0504 0.447266 18.8158 0.447266 21.5811C0.447266 22.3185 0.539443 23.1481 0.631621 23.8856L18.2376 13.6538C13.4443 16.5113 7.45278 16.5113 2.56736 13.6538Z" fill="#45A4EC"/>
<path d="M30.6806 7.01667C30.4041 6.74014 30.2198 6.55578 29.9432 6.37143C29.3902 6.00271 28.6527 5.81836 28.0075 5.81836H16.1165C10.4937 5.81836 5.33174 8.86023 2.56641 13.6535C7.45183 16.4188 13.3512 16.4188 18.2366 13.6535C13.3512 16.4188 10.4015 21.673 10.4015 27.2958C16.0244 27.2958 21.1863 24.3461 24.0438 19.4607L31.0494 7.2932C30.865 7.20103 30.7728 7.10885 30.6806 7.01667Z" fill="#19BB7D"/>
<path d="M18.2366 13.6535L30.4041 6.64801C30.2198 6.55583 30.1276 6.37147 29.9432 6.2793L2.56641 13.6535C7.45183 16.511 13.4434 16.511 18.2366 13.6535Z" fill="#08C7FB"/>
<path d="M27.9153 5.81836H16.1165C10.4937 5.81836 5.33174 8.86023 2.56641 13.6535L29.9432 6.27925C29.298 6.00272 28.6527 5.81836 27.9153 5.81836Z" fill="#59F2F6"/>
<path d="M24.0443 19.4605L31.0498 7.29303C30.9576 7.20085 30.8654 7.10867 30.7733 6.92432L10.4941 27.2034C10.4941 29.9688 11.2316 32.6419 12.6142 35.0386C12.9829 35.6838 13.4438 36.3291 13.9047 36.9743C14.6421 37.0665 15.3796 37.1587 16.117 37.1587C18.8823 37.1587 21.5555 36.4212 23.9521 35.0386C21.1868 30.2453 21.1868 24.2538 24.0443 19.4605Z" fill="#DA3757"/>
<path d="M10.4023 27.2956C10.4023 30.0609 11.1398 32.7341 12.5224 35.1307C12.8911 35.7759 13.352 36.4212 13.8129 37.0664L23.9525 19.4604C21.1872 24.2537 16.0252 27.2956 10.4023 27.2956Z" fill="#D33C4E"/>
<path d="M24.0458 19.4604L13.9062 37.0664C14.6437 37.1586 15.3811 37.2508 16.2107 37.2508C18.976 37.2508 21.6492 36.5133 24.0458 35.1307C21.1883 30.2453 21.1883 24.2537 24.0458 19.4604Z" fill="#EE5A24"/>
<path d="M31.3267 7.75408C31.0502 7.29319 30.7737 6.92448 30.4049 6.64795L18.2375 13.6535C13.352 16.4188 10.4023 21.6729 10.4023 27.2958C16.0252 27.2958 21.1872 24.3461 24.0447 19.4607C21.2793 24.3461 21.2793 30.2455 24.0447 35.1309C28.8379 32.3656 31.8798 27.2036 31.8798 21.6729V9.782C31.8798 9.04457 31.6954 8.39933 31.3267 7.75408Z" fill="#8BDF55"/>
<path d="M30.4049 6.64795L18.2375 13.6535C13.352 16.4188 10.4023 21.6729 10.4023 27.2958L30.6815 7.01666C30.5893 6.92448 30.4971 6.74013 30.4049 6.64795Z" fill="#25C16F"/>
<path d="M10.4023 27.2956C16.0252 27.2956 21.1872 24.3459 24.0447 19.4605L31.0502 7.29303C30.958 7.20085 30.8658 7.10867 30.7737 6.92432L10.4023 27.2956Z" fill="#8BDF55"/>
<path d="M31.0502 7.29346L24.0447 19.4609C21.2794 24.3464 21.2794 30.2457 24.0447 35.1312L31.4189 7.75435C31.2346 7.56999 31.1424 7.47781 31.0502 7.29346Z" fill="#FFBB00"/>
<path d="M24.0449 35.1307C28.9303 32.3654 31.88 27.2034 31.88 21.5806V9.78182C31.88 9.0444 31.6957 8.39915 31.327 7.75391L24.0449 35.1307Z" fill="#FFA800"/>
</svg>