<svg width="70" height="17" viewBox="0 0 70 17" fill="none" xmlns="http://www.w3.org/2000/svg">
<path fill-rule="evenodd" clip-rule="evenodd" d="M67.0486 10.2604C68.5702 10.2604 69.7452 9.02051 69.7603 7.55039C69.6546 6.90839 69.4297 5.7207 67.7633 5.7207C65.9414 5.7207 65.3369 8.26749 63.8533 9.90903C63.7329 10.8429 62.8501 11.6783 61.7461 11.8183C62.0171 12.1016 62.6179 12.2538 63.3354 12.2538C64.6496 12.2538 66.2405 11.8583 67.0727 11.0367C65.9626 11.051 65.2483 10.3376 65.1777 9.34866C65.7193 10.0049 66.3315 10.2604 67.0486 10.2604Z" fill="#12ABDB"/>
<path fill-rule="evenodd" clip-rule="evenodd" d="M55.3589 6.20861C55.3589 5.40008 55.3099 4.8597 54.781 4.8597C54.5398 4.8597 54.4218 4.90705 54.2108 4.97766C54.3982 7.71219 53.7807 10.1202 53.0264 10.1202C52.0375 10.1202 52.5313 4.25933 50.4355 4.25933C48.5042 4.25933 48.2267 8.93784 48.0071 8.93784C47.8573 8.93784 47.8349 7.70933 47.8426 6.77306C47.9238 6.32329 47.9675 5.92087 47.9675 5.61476C47.9675 5.17887 47.7904 4.42544 46.8011 4.80216C46.8362 8.14686 46.166 10.1692 45.4122 10.1692C44.3053 10.1692 44.2939 7.1359 44.2939 6.30003C44.2939 5.48375 44.3522 4.39279 43.1396 4.78134C42.9576 7.69954 42.1936 9.90227 41.7111 9.90227C40.992 9.90227 41.1369 4.86011 39.5819 4.86011C38.1848 4.86011 37.7526 9.63535 37.4612 9.63535C36.94 9.63535 37.624 4.25933 35.6062 4.25933C34.5471 4.25933 34.1267 6.05474 33.712 8.06319C33.6312 8.45256 33.5467 8.46398 33.5333 8.02524C33.5224 7.65012 33.5191 7.27483 33.5235 6.89959C34.0332 4.88052 33.4112 4.13485 32.4762 4.67278C32.7774 8.39868 31.0677 10.2202 29.7551 10.2202C29.2804 10.2202 28.9078 10.0186 28.6286 9.69983C30.2024 8.73499 30.9016 7.6273 30.9016 6.54573C30.9016 5.37274 30.2281 4.69767 29.1098 4.69767C27.5483 4.69767 26.6757 6.30493 26.6757 7.67097C26.6757 8.40644 26.8124 9.03089 27.0389 9.54596C26.5026 9.80187 25.997 10.0231 25.5264 10.2378C25.4856 8.83213 25.3264 7.35589 25.2056 5.99433C24.375 5.76537 24.1322 6.16493 24.0681 6.90448C23.9212 8.59214 23.2959 9.63902 22.7433 9.63902C22.327 9.63902 22.0735 9.13293 22.0429 8.59541C21.8886 5.89026 24.0848 5.13765 25.2329 5.52987C25.4713 4.93358 25.2097 4.50381 24.1738 4.50381C22.9167 4.50381 21.9776 5.26703 21.2891 6.24656C20.8291 6.89959 20.2985 7.36282 19.5928 7.9232C19.6108 7.76198 19.6206 7.60077 19.6206 7.44241C19.6206 5.53477 18.5868 4.69767 17.5999 4.69767C16.7832 4.69767 16.2702 5.18744 15.9722 5.93842C15.8988 5.1854 15.749 4.86011 15.311 4.86011C15.1233 4.86011 14.8633 4.91317 14.5833 5.04867C14.7115 5.46906 14.7613 6.40165 14.7613 7.0155C14.7613 9.30924 14.1042 10.3369 13.4716 10.3369C12.7492 10.3369 12.6341 7.61628 12.5737 6.55756C12.4606 6.51417 12.3405 6.49204 12.2194 6.49226C11.566 6.49226 11.4807 7.37058 11.3194 8.17788C11.1407 9.07252 10.6252 10.1978 9.86197 10.1978C9.40077 10.1978 9.11304 9.75289 9.07712 8.95294C9.00202 7.3314 10.3513 5.40947 12.4626 6.00739C12.7394 5.36131 12.3051 4.8695 11.4288 4.8695C9.88564 4.8695 8.6098 6.02453 8.05351 7.39139C7.48864 8.64438 6.49972 10.4851 4.48841 10.4851C3.06808 10.4851 1.98161 9.2468 1.98161 6.64736C1.98161 4.40667 3.39378 2.27822 4.90104 2.27822C5.95526 2.27822 6.19974 3.3149 6.10709 4.28872C6.65236 4.72747 7.54864 4.31974 7.54864 3.22429C7.54864 2.46923 6.93561 1.1893 4.95695 1.1893C2.50771 1.1893 0.34375 3.63161 0.34375 6.84122C0.34375 9.94798 1.9208 11.7846 4.15332 11.7846C5.56141 11.7846 6.89072 10.9806 7.80821 9.49821C8.03881 10.7961 8.92366 11.3426 9.58689 11.3426C10.6599 11.3426 11.3607 10.6483 11.7435 9.70718C11.9823 10.65 12.4863 11.3463 13.323 11.3463C13.9132 11.3463 14.3731 11.0479 14.7197 10.5684C14.5825 13.8429 14.4086 15.9305 16.3436 15.5191C16.0449 14.5885 15.9494 12.8935 15.9494 11.372C15.9494 7.20773 16.6363 5.83761 17.497 5.83761C18.1207 5.83761 18.3227 6.63266 18.3227 7.48078C18.3227 7.93504 18.2794 8.45705 18.1635 8.92845C17.106 9.59576 16.2612 10.1223 16.2612 10.7916C16.2612 11.321 16.6538 11.3703 16.9938 11.3703C17.806 11.3703 18.7835 10.5732 19.3239 9.06926C19.7965 8.78356 20.2699 8.45582 20.7234 8.00973C20.7083 8.16237 20.6989 8.31583 20.6989 8.47256C20.6989 9.96594 21.3531 10.8675 22.3963 10.8675C23.2139 10.8675 23.8273 10.288 24.2599 9.41985C24.2873 9.92023 24.304 10.381 24.3117 10.8055C22.6535 11.5716 20.8181 12.3511 20.8181 14.5142C20.8181 15.6334 21.6262 16.4762 22.6792 16.4762C24.9893 16.4762 25.5158 14.0379 25.5378 11.2055C26.2896 10.8789 26.85 10.6275 27.4965 10.3084C28.0491 10.9998 28.8001 11.3467 29.4894 11.3467C30.7934 11.3467 31.7721 10.6557 32.5586 9.25496C32.6982 10.321 32.9745 11.3467 33.541 11.3467C34.5748 11.3467 34.7838 5.94291 35.5527 5.94291C36.1413 5.94291 35.6576 11.7899 37.2118 11.7899C38.5424 11.7899 38.7921 6.6445 39.4398 6.6445C39.899 6.6445 39.9337 11.3475 41.3826 11.3475C42.0952 11.3475 42.8682 10.4912 43.256 8.69703C43.4376 9.89043 44.0408 11.3475 45.2183 11.3475C45.9052 11.3475 46.4958 10.6524 46.9517 9.7284C47.0774 10.6794 47.3467 11.3475 47.8671 11.3475C49.2209 11.3475 49.1756 5.95515 50.2474 5.95515C51.0833 5.95515 50.8245 11.3475 52.8146 11.3475C53.7615 11.3475 54.2104 10.5402 54.4773 9.528C54.8434 11.0173 55.4352 11.3475 55.9217 11.3475C56.2299 11.3475 56.4629 11.2389 56.7682 10.8749C55.2295 10.2071 55.3589 7.7779 55.3589 6.20861ZM22.7759 15.4677C22.298 15.4677 22.0453 15.0142 22.0453 14.5004C22.0453 13.118 23.0608 12.3838 24.3122 11.7536C24.255 14.7767 23.5526 15.4677 22.7759 15.4677ZM28.9919 5.66823C29.4572 5.66823 29.7237 6.09555 29.6776 6.71021C29.6233 7.43221 29.098 8.25787 28.185 8.90722C27.7075 7.55016 28.0625 5.66823 28.9923 5.66823H28.9919ZM43.7355 3.62427C44.1792 3.60916 44.4889 3.22837 44.4906 2.77533C44.4922 2.3223 44.1861 1.96681 43.7425 1.98273C43.2988 1.99783 42.9372 2.37781 42.9352 2.83125C42.9331 3.28428 43.2915 3.63937 43.7355 3.62427ZM54.7643 3.85405C55.1679 3.83976 55.4973 3.47733 55.4989 3.04593C55.501 2.61371 55.1749 2.27577 54.7704 2.29006C54.3659 2.30475 54.0374 2.66718 54.0353 3.09858C54.0337 3.53039 54.3602 3.86874 54.7643 3.85405ZM69.7569 7.44241C69.7238 5.73353 68.9104 4.29157 67.657 3.14062C66.7052 2.27128 65.5743 1.61132 64.3886 1.11421C64.2932 1.0739 64.1973 1.03485 64.1009 0.99707H64.1005C62.6405 2.74595 57.5853 4.05118 57.5853 7.71791C57.5853 9.15129 58.4906 10.4916 59.8199 11.0296C60.5905 11.321 61.3614 11.3369 62.1328 11.0777C62.8185 10.8524 63.3825 10.4271 63.8515 9.9088C65.3363 8.26726 65.9404 5.72129 67.7619 5.72129C69.4287 5.72129 69.6532 6.90775 69.7597 7.55016C69.7597 7.54853 69.7589 7.50363 69.7569 7.44241Z" fill="#0070AD"/>
</svg>