<svg width="78" height="17" viewBox="0 0 78 17" fill="none" xmlns="http://www.w3.org/2000/svg">
<path d="M8.30128 0.124512V2.91909H6.49734C1.19486 2.91909 0.101562 6.8532 0.101562 9.70204C0.101562 11.7641 0.730207 13.5819 1.87817 14.7757C2.86213 15.8067 4.17409 16.3493 5.7047 16.3493C6.74333 16.3493 7.59063 16.1594 8.30128 15.7796L8.32861 16.0509H11.8272V0.124512H8.30128ZM3.43611 9.59351C3.43611 8.23692 3.81877 5.95785 6.36068 5.79506C6.716 5.76793 7.6453 5.71366 8.30128 5.68653V12.6594C7.83663 12.9579 7.12598 13.202 6.30601 13.2292C5.51337 13.2563 4.83006 13.0121 4.36541 12.578C3.7641 11.9811 3.43611 10.9772 3.43611 9.59351Z" fill="#231F20"/>
<path d="M20.9835 13.2563C19.0975 13.2292 18.0862 12.2253 17.7582 10.4618H26.2586V10.3261C26.2859 9.1323 26.2586 8.12843 26.2313 7.69432C26.0946 6.20207 25.548 4.95401 24.646 4.05866C23.6347 3.05478 22.2407 2.56641 20.4641 2.56641C18.4415 2.56641 16.7743 3.3261 15.6263 4.70982C14.615 5.95788 14.0684 7.69432 14.0684 9.64781C14.0684 12.8765 15.8996 16.3222 21.0381 16.3222C23.006 16.3222 24.9193 15.7253 26.0399 15.1827V11.954C25.4386 12.2796 23.5527 13.2835 20.9835 13.2563ZM20.4641 5.5509C21.7761 5.5509 22.6781 6.47339 22.7601 7.61292H17.8402C18.1955 6.36486 19.0702 5.5509 20.4641 5.5509Z" fill="#231F20"/>
<path d="M36.8913 8.26381V16.0506H40.4172V7.74831C40.4172 4.27543 38.8045 2.59326 35.47 2.59326C34.3494 2.59326 33.0647 3.00024 32.6001 3.19016L32.5728 2.91884H29.0742V16.0506H32.6001V6.20179C33.3654 5.74055 34.5407 5.5235 35.4973 5.74055C36.4266 5.98474 36.8913 6.58164 36.8913 8.26381Z" fill="#231F20"/>
<path d="M70.1821 10.6786V2.91895H66.6562V11.2213C66.6562 14.6941 68.2689 16.3763 71.6034 16.3763C72.7514 16.3763 74.0087 15.9422 74.4733 15.7794L74.5006 16.0507H77.9992V2.91895H74.4733V12.7678C73.708 13.229 72.5327 13.4461 71.5761 13.229C70.6468 12.9848 70.1821 12.3879 70.1821 10.6786Z" fill="#231F20"/>
<path d="M43.3691 0.124512V11.5199C43.3691 13.0935 43.6425 14.2059 44.2164 14.9656C44.9271 15.8881 46.0477 16.3222 47.6603 16.3222C48.9723 16.3222 50.2296 16.0509 50.9675 15.8067V12.6865C50.5029 12.7951 49.1089 13.0935 48.3163 13.0935C47.797 13.0935 47.4417 12.985 47.223 12.7679C46.895 12.4424 46.895 11.8997 46.895 11.3571V5.79506C48.289 5.79506 50.0109 5.87645 50.9675 5.98498V2.91909H46.895V0.124512H43.3691Z" fill="#231F20"/>
<path d="M63.6775 9.67488C62.9669 8.69814 61.9009 8.20976 59.9057 7.82992C59.0857 7.66713 58.1017 7.50434 57.5277 7.20589C57.2544 7.07023 57.1178 6.85317 57.1178 6.60899C57.1178 6.39193 57.2817 6.17488 57.5004 6.03922C58.0197 5.7679 58.949 5.63224 60.3703 5.87643C61.7369 6.12061 63.2402 6.63612 63.7049 6.85317V3.67875C62.0649 2.8648 60.6163 2.56635 59.0037 2.59348C57.5004 2.62061 56.1885 3.00046 55.2045 3.73301C54.1932 4.49271 53.6192 5.57798 53.5645 6.8803C53.4552 9.05085 54.8492 10.3532 58.0197 10.9772C58.703 11.1129 59.6323 11.3028 60.0423 11.4656C60.4523 11.6284 60.6983 11.8997 60.6983 12.1981C60.6983 12.4966 60.507 12.7679 60.1516 12.9036C59.5503 13.1478 58.5937 13.1206 57.9651 13.0392C56.1611 12.8493 54.4118 12.2253 53.7832 11.9268V15.1826C54.8492 15.7253 56.5438 16.3493 58.5664 16.3222C60.8623 16.2679 63.7322 15.6167 64.2515 12.578C64.4428 11.4927 64.2515 10.4888 63.6775 9.67488Z" fill="#231F20"/>
</svg>