<svg width="50" height="14" viewBox="0 0 50 14" fill="none" xmlns="http://www.w3.org/2000/svg">
<path d="M14.025 0.58957C14.4388 0.527255 14.915 0.488305 15.2663 0.745372C15.4849 0.908924 15.563 1.20494 15.5473 1.46987C15.563 1.9061 15.36 2.37354 14.9697 2.59949C14.6262 2.78646 14.2124 2.80196 13.8298 2.76304C13.5722 2.73193 13.3146 2.59174 13.1819 2.35801C12.8852 1.68024 13.2521 0.722007 14.025 0.58957ZM1.64314 1.08037C1.66652 0.846637 1.87734 0.636299 2.11933 0.644135C3.9228 0.644135 5.71839 0.651885 7.51401 0.644135C7.70918 0.628549 7.91999 0.7142 8.01362 0.885588C8.14631 1.11932 8.02924 1.37639 8.01362 1.61792C7.95902 1.94506 7.97459 2.38137 7.59211 2.50598C6.28051 2.54493 4.96891 2.50597 3.65731 2.52156C3.53241 3.3473 3.41531 4.16528 3.29036 4.98327C3.29036 5.01444 3.29821 5.08462 3.29821 5.11568C4.25845 5.10793 5.2187 5.11568 6.17894 5.10793C6.44441 5.09234 6.72541 5.31835 6.70199 5.59873C6.67861 5.88699 6.61613 6.16743 6.57712 6.45569C6.54583 6.65042 6.38972 6.82961 6.18673 6.86856C5.11716 6.89193 4.03196 6.8452 2.9625 6.89193C2.79069 8.06827 2.5877 9.24456 2.40813 10.421C2.38477 10.6547 2.19734 10.8572 1.96314 10.865C1.51819 10.8728 1.07314 10.8728 0.628186 10.865C0.339334 10.8728 0.105103 10.5533 0.183142 10.2807C0.659508 7.21139 1.15132 4.14981 1.64314 1.08037ZM9.57498 0.659635C9.98099 0.628521 10.3947 0.651885 10.8007 0.644135C11.0506 0.628549 11.3004 0.823273 11.3237 1.08037C11.3237 1.28287 11.2691 1.48546 11.2457 1.68799C10.9178 3.77584 10.5821 5.86369 10.2542 7.95151C10.2073 8.28648 10.1215 8.64481 10.223 8.98761C10.3401 9.33036 10.8631 9.18233 10.988 9.54067C11.0661 9.82893 10.9802 10.1327 10.9568 10.4288C10.9334 10.8183 10.4884 10.904 10.184 10.9898C9.52039 11.1144 8.71619 11.0209 8.23997 10.4755C7.89646 10.0783 7.87302 9.5173 7.94335 9.01878C8.3571 6.37007 8.77084 3.72136 9.19247 1.06478C9.21591 0.870002 9.37202 0.690835 9.57498 0.659635ZM25.0718 1.08037C25.0952 0.846637 25.306 0.644135 25.5402 0.644135H26.7269C27.0236 0.636299 27.2656 0.955738 27.1953 1.23614C26.9221 2.96563 26.6411 4.69512 26.3678 6.42449C26.7816 6.36221 27.25 6.28431 27.5389 5.94934C28.0229 5.40395 28.4211 4.77305 28.7177 4.11086C28.8192 3.85374 28.8739 3.47982 29.2096 3.43306C29.6546 3.41748 30.1073 3.42526 30.5523 3.43306C30.8568 3.42526 31.0832 3.76803 30.9817 4.04846C30.8646 4.46144 30.6695 4.84311 30.4665 5.20928C30.0137 5.94159 29.5141 6.66606 28.8582 7.24254C29.1471 8.10725 29.5141 8.94863 29.8341 9.79782C29.9278 10.0782 30.1543 10.4054 29.9434 10.6781C29.7013 11.0053 29.2486 10.8416 28.9129 10.8806C28.5616 10.8416 28.0541 11.0208 27.8589 10.6236C27.492 9.77437 27.1876 8.90193 26.8128 8.05274C26.5942 8.06047 26.3678 8.06833 26.1492 8.04497C26.1336 8.07614 26.1024 8.1384 26.0867 8.16962C25.9696 8.94863 25.8447 9.7277 25.7198 10.5067C25.6729 10.6936 25.5246 10.8573 25.3217 10.8729C24.9079 10.8885 24.4863 10.8806 24.0647 10.8806C23.8851 10.8806 23.7212 10.7638 23.6431 10.608C23.5651 10.4521 23.6119 10.273 23.6354 10.1016C24.1194 7.09451 24.5956 4.08741 25.0718 1.08037ZM46.7674 1.92953C46.8221 1.71132 47.0328 1.56336 47.2515 1.57111C47.5638 1.57894 47.8838 1.56336 48.2039 1.57894C48.4615 1.58669 48.6645 1.84379 48.6332 2.09308C48.5864 2.53715 48.4771 2.98122 48.4459 3.4252C48.7503 3.4252 49.0626 3.41745 49.3671 3.4252C49.6403 3.4252 49.8668 3.70569 49.8199 3.9705C49.7808 4.2121 49.7262 4.44583 49.6871 4.68723C49.6481 4.88984 49.4764 5.05342 49.2813 5.08457C48.9065 5.10793 48.5396 5.06898 48.1726 5.10793C48.0165 6.15178 47.8448 7.19566 47.6808 8.23969C47.6573 8.48117 47.6418 8.75379 47.7823 8.96416C47.9931 9.22126 48.36 9.12771 48.6567 9.15894C48.8909 9.22901 49.0392 9.48616 49.0001 9.71992C48.9611 9.98471 48.9533 10.2496 48.8909 10.5066C48.7972 10.7949 48.4615 10.8495 48.2038 10.9195C47.4934 11.1065 46.6737 11.1065 46.0414 10.6936C45.4559 10.2963 45.3621 9.52505 45.4246 8.87065C45.5885 7.60859 45.8462 6.35437 45.9867 5.08454C45.7681 5.09229 45.5026 5.12349 45.3387 4.92871C45.1514 4.73398 45.2451 4.44572 45.2763 4.20415C45.3232 3.94708 45.3153 3.61212 45.5964 3.47187C45.8227 3.38613 46.0804 3.44853 46.3224 3.41733C46.4707 2.91884 46.6113 2.4203 46.7674 1.92953ZM42.3565 4.45355C42.8483 3.96275 43.4416 3.55766 44.1208 3.35516C44.4174 3.2227 44.8 3.47201 44.7922 3.7992C44.7376 4.22768 44.6361 4.6483 44.5658 5.06898C44.5345 5.27935 44.355 5.45854 44.1442 5.4819C43.3791 5.61428 42.7155 6.07385 42.1847 6.61924C42.052 6.78291 41.8568 6.93868 41.8334 7.16458C41.6695 8.25522 41.4977 9.34589 41.3259 10.4365C41.3026 10.6702 41.0995 10.8962 40.8575 10.8806H39.6708C39.3976 10.8962 39.1556 10.6236 39.1868 10.3509C39.5303 8.1929 39.8739 6.04282 40.2095 3.88482C40.2252 3.66674 40.3813 3.4564 40.6077 3.43301C40.8965 3.41742 41.1854 3.4252 41.4821 3.4252C41.7163 3.4252 41.9348 3.63554 41.9348 3.87707C41.9348 4.21204 41.9036 4.55479 41.8958 4.89756C42.0832 4.7808 42.2003 4.5938 42.3565 4.45355ZM13.174 3.46418C13.5956 3.37853 14.0328 3.44865 14.4543 3.42523C14.6964 3.39411 14.954 3.54989 14.993 3.79142C15.0243 4.00951 14.9618 4.21988 14.9383 4.43024C14.6183 6.43241 14.2982 8.4345 13.9859 10.4366C13.9625 10.6626 13.7752 10.8885 13.5331 10.8807C13.1116 10.8807 12.69 10.8885 12.2606 10.8729C11.9952 10.8417 11.8 10.538 11.8703 10.2808C12.206 8.20085 12.5261 6.12856 12.8618 4.04849C12.8774 3.82257 12.9398 3.55766 13.174 3.46418ZM38.4373 3.56553C37.2741 3.34733 36.0875 3.19152 34.9086 3.30838C33.8546 3.44084 32.7929 3.91608 32.145 4.7808C31.2472 5.91817 30.9426 7.44512 31.1456 8.86301C31.2549 9.54072 31.5516 10.2263 32.1059 10.6469C32.6211 11.0443 33.316 11.0988 33.9406 10.9975C34.8149 10.8261 35.5565 10.2653 36.1655 9.64202C36.1967 9.90686 36.1343 10.1718 36.1499 10.4289C36.1655 10.6703 36.3841 10.8962 36.6261 10.8806H37.4225C37.6567 10.8806 37.8519 10.6626 37.8675 10.4366C38.2032 8.3254 38.5388 6.22196 38.8668 4.11861C38.9135 3.85371 38.7028 3.59664 38.4373 3.56553ZM36.2436 7.23476C35.9313 7.81904 35.4941 8.34879 35.0023 8.80055C34.7213 9.03428 34.3621 9.27582 33.9796 9.19795C33.6049 9.12005 33.4253 8.73054 33.3394 8.39552C33.1443 7.52302 33.3238 6.57254 33.8156 5.81693C34.0342 5.46629 34.3855 5.20147 34.7915 5.09237C35.3614 4.95213 35.9626 5.02225 36.5169 5.17805L36.5481 5.20928C36.4778 5.88699 36.3451 6.55699 36.2436 7.23476ZM23.1123 6.06622C23.1045 5.28715 22.8937 4.46919 22.3472 3.88488C21.9725 3.47201 21.4104 3.26168 20.8639 3.2694C19.9583 3.23831 19.1073 3.68238 18.4438 4.27439C18.2954 4.39129 18.1939 4.56268 18.03 4.65614C18.03 4.39899 18.0534 4.14195 18.0456 3.8771C18.0534 3.63554 17.827 3.42523 17.5928 3.42523H16.7964C16.5467 3.42523 16.3436 3.6434 16.328 3.88485C15.8362 7.00103 15.3366 10.1172 14.8447 13.2333C14.7745 13.5216 15.0244 13.8176 15.321 13.8098C15.7582 13.802 16.2032 13.841 16.6326 13.7786C16.9761 13.6851 16.9682 13.2878 17.0229 12.9996C17.1478 12.314 17.2337 11.6285 17.3118 10.9351C18.8497 11.2311 20.6375 11.0286 21.7852 9.86783C22.722 8.84737 23.1591 7.43729 23.1123 6.06622ZM20.9264 6.853C20.8796 7.56973 20.6219 8.29425 20.1223 8.81614C19.4743 9.43165 18.4906 9.34589 17.6943 9.13563C17.6787 9.11221 17.6552 9.06545 17.6475 9.04215C17.7723 8.36438 17.8348 7.6788 17.991 7.00883C18.4282 6.29217 18.959 5.56758 19.7163 5.17033C19.9973 5.03792 20.3799 5.06906 20.5829 5.32616C20.9264 5.75461 20.9576 6.33109 20.9264 6.853Z" fill="white" stroke="#107BD4" stroke-width="0.101"/>
</svg>