<svg width="177" height="54" viewBox="0 0 177 54" fill="none" xmlns="http://www.w3.org/2000/svg">
<path fill-rule="evenodd" clip-rule="evenodd" d="M109.934 41.9478C99.6957 49.4047 84.864 53.4914 72.0834 53.4914C54.1788 53.4914 38.0495 46.9191 25.8541 35.7297C24.8951 34.8431 25.7484 33.7764 26.9012 34.4869C40.0674 42.1239 56.3474 46.7429 73.1657 46.7429C84.5097 46.7429 96.9771 44.4334 108.454 39.4621C110.177 38.7497 111.625 40.703 109.934 41.9478Z" fill="#FF9900"/>
<path fill-rule="evenodd" clip-rule="evenodd" d="M114.195 36.9737C112.884 35.3747 105.542 36.2633 102.24 36.6175C101.242 36.7937 101.086 35.907 101.984 35.1966C107.842 31.1119 117.446 32.3547 118.56 33.5975C119.681 35.0185 118.264 44.7889 112.772 49.4059C111.927 50.1164 111.128 49.5821 111.5 48.6954C112.739 45.6755 115.504 38.7489 114.195 36.9718V36.9737Z" fill="#FF9900"/>
<path fill-rule="evenodd" clip-rule="evenodd" d="M102.466 6.07034V1.98368C102.474 1.45132 102.926 0.918963 103.484 0.918963H121.402C121.97 0.918963 122.438 1.45132 122.438 1.98368V5.53602C122.43 6.07034 121.944 6.7808 121.087 8.02167L111.806 21.3464C115.255 21.1702 118.897 21.7006 122.029 23.4778C122.737 23.832 122.929 24.5425 122.98 25.0768V29.3396C122.98 29.872 122.338 30.5824 121.663 30.2262C116.145 27.3843 108.831 27.0301 102.731 30.2262C102.106 30.5824 101.451 29.872 101.451 29.3396V25.2529C101.451 24.5425 101.464 23.4778 102.12 22.5911L112.875 6.95891H103.51C102.932 6.95891 102.472 6.60466 102.466 6.07229V6.07034ZM137.911 6.24649C133.893 6.24649 133.637 11.7541 133.637 15.1283C133.637 18.5025 133.586 25.9615 137.864 25.9615C142.092 25.9615 142.288 19.9235 142.288 16.3711C142.288 14.0616 142.184 11.2198 141.477 8.9122C140.867 6.95695 139.642 6.24649 137.911 6.24649ZM137.864 0.562751C145.959 0.562751 150.332 7.49127 150.332 16.3711C150.332 24.8967 145.5 31.6452 137.864 31.6452C129.928 31.6452 125.597 24.7186 125.597 16.0149C125.597 7.31317 129.975 0.562751 137.864 0.562751ZM93.6863 31.1128C93.3242 31.289 92.6686 31.289 92.3946 31.1128C90.5332 29.6919 89.2669 27.5605 89.2669 27.5605C86.2724 30.5805 84.1567 31.4671 80.2833 31.4671C75.6937 31.4671 72.1218 28.6272 72.1218 22.9434C72.1218 18.5006 74.5213 15.4826 77.9347 14.0616C80.8901 12.6407 85.0276 12.4645 88.1866 12.1083C88.1866 12.1083 88.4469 8.7341 87.5231 7.48931C86.8106 6.42459 85.5854 6.07034 84.4639 6.07034C82.4382 6.07034 80.4849 7.13506 80.0994 9.26646C79.9878 9.79882 79.5416 10.3331 79.0679 10.3331L73.8461 9.79882C73.4468 9.62267 72.9027 9.26646 73.0338 8.55599C74.2532 2.16179 80.0406 0.208496 85.2312 0.208496C87.8851 0.208496 91.3514 0.918963 93.4417 2.87226C96.0956 5.35791 95.8412 8.7341 95.8412 12.2864V20.812C95.8412 23.4738 96.902 24.5405 97.8982 25.9615C98.2466 26.4958 98.3249 27.0281 97.8786 27.3824C96.765 28.271 93.6863 31.1128 93.6863 31.1128ZM88.1866 17.614C88.1866 19.7473 88.2394 21.5225 87.1688 23.4758C86.3057 25.0748 84.9278 25.9615 83.3953 25.9615C81.3031 25.9615 80.0798 24.3644 80.0798 22.0549C80.0798 17.2597 84.2467 16.5492 88.1866 16.5492V17.614ZM22.2149 31.1128C21.8548 31.289 21.1913 31.289 20.931 31.1128C19.0697 29.6919 17.8034 27.5605 17.8034 27.5605C14.8088 30.5805 12.6911 31.4671 8.81978 31.4671C4.22229 31.4671 0.652344 28.6272 0.652344 22.9434C0.652344 18.5006 3.05188 15.4826 6.46525 14.0616C9.42064 12.6407 13.5562 12.4645 16.7152 12.1083C16.7152 12.1083 16.9774 8.7341 16.0536 7.48931C15.3334 6.42459 14.114 6.07034 12.9925 6.07034C10.9688 6.07034 9.0155 7.13506 8.62797 9.26646C8.51641 9.79882 8.07212 10.3331 7.60044 10.3331L2.37469 9.79882C1.97542 9.62267 1.43131 9.26646 1.56245 8.55599C2.78179 2.16179 8.56925 0.208496 13.7598 0.208496C16.4137 0.208496 19.8819 0.918963 21.9722 2.87226C24.6262 5.35791 24.3718 8.7341 24.3718 12.2864V20.812C24.3718 23.4738 25.4326 24.5405 26.4288 25.9615C26.7752 26.4958 26.8555 27.0281 26.4092 27.3824C25.2936 28.271 22.2149 31.1128 22.2149 31.1128ZM16.7152 17.614C16.7152 19.7473 16.768 21.5225 15.6935 23.4758C14.8284 25.0748 13.4525 25.9615 11.918 25.9615C9.82774 25.9615 8.60253 24.3644 8.60253 22.0549C8.60253 17.2597 12.7714 16.5492 16.7093 16.5492V17.614H16.7152ZM38.1525 15.1283C38.1525 11.9302 38.0037 7.49127 41.9221 7.49127C45.7895 7.49127 45.2787 12.1103 45.2787 15.1283L45.2845 30.0481C45.2845 30.5805 45.7151 31.1128 46.2612 31.1128H51.7061C52.2913 31.1128 52.7552 30.5805 52.7552 30.0481V15.1283C52.7552 13.5293 52.7043 11.2198 53.268 9.79882C53.8297 8.37789 55.1998 7.48931 56.5228 7.48931C58.1043 7.48931 59.3216 8.02363 59.7307 9.97693C59.9851 11.0436 59.8794 14.0616 59.8794 15.1283V30.0481C59.8794 30.5805 60.31 31.1128 60.8561 31.1128H66.303C66.8862 31.1128 67.3501 30.5805 67.3501 30.0481L67.3579 12.2864C67.3579 9.26646 67.7102 5.89223 65.982 3.58272C64.4574 1.45132 61.9639 0.386602 59.67 0.386602C56.4641 0.386602 53.4637 2.16179 52.1387 5.71412C50.6121 2.16179 48.4767 0.386602 45.0692 0.386602C41.7126 0.386602 39.2152 2.16179 37.8902 5.71412H37.7865V2.16179C37.7865 1.45132 37.3265 1.09707 36.7687 1.09707H31.6858C31.1222 1.09707 30.6681 1.45132 30.6681 2.16179V30.0481C30.6681 30.5805 31.128 31.1128 31.6858 31.1128H37.1308C37.6945 31.1128 38.1486 30.5805 38.1486 30.0481L38.1544 15.1283H38.1525ZM161.891 30.0481C161.891 30.5805 161.431 31.1128 160.873 31.1128H155.428C154.865 31.1128 154.411 30.5805 154.411 30.0481V2.16179C154.411 1.45132 154.871 1.09707 155.428 1.09707H160.462C161.05 1.09707 161.478 1.62943 161.478 1.80754V6.07034H161.584C163.11 2.3399 165.246 0.560794 169.015 0.560794C171.46 0.560794 173.85 1.44937 175.376 3.75887C176.801 6.07034 176.801 9.79882 176.801 12.4645V30.2243C176.742 30.7566 176.296 31.1128 175.758 31.1128H170.293C169.787 31.1128 169.381 30.7566 169.323 30.2243L169.33 13.175C169.33 7.49127 167.158 7.49127 165.909 7.49127C164.453 7.49127 163.281 8.55599 162.768 9.62267C162.009 11.3979 161.883 12.9969 161.883 14.9502L161.891 30.0481Z" fill="black"/>
</svg>