<svg width="34" height="13" viewBox="0 0 34 13" fill="none" xmlns="http://www.w3.org/2000/svg">
<path d="M2.0676 8.98606C2.20914 9.36107 2.40509 9.68172 2.6555 9.948C2.90591 10.2143 3.20258 10.4181 3.54549 10.5594C3.88844 10.7007 4.26131 10.7714 4.66414 10.7714C5.05609 10.7714 5.4235 10.698 5.76645 10.5512C6.10941 10.4045 6.40878 10.198 6.66461 9.9317C6.92044 9.66538 7.11914 9.34747 7.26068 8.9779C7.40222 8.60833 7.47297 8.19533 7.47297 7.73878V0.695312H9.18765V12.1083H7.4893V11.0485C7.10827 11.4507 6.65915 11.7605 6.14204 11.9779C5.62488 12.1953 5.06697 12.304 4.46818 12.304C3.85849 12.304 3.28966 12.198 2.76163 11.986C2.23364 11.7741 1.77635 11.4725 1.3899 11.0811C1.00344 10.6898 0.698576 10.2198 0.47541 9.67083C0.252208 9.12192 0.140625 8.51053 0.140625 7.83658V0.695312H1.85531V7.73878C1.85531 8.19533 1.92606 8.61104 2.0676 8.98606ZM12.1433 0.695312V4.8529C12.5243 4.47247 12.9653 4.17087 13.4661 3.94802C13.9669 3.72518 14.5112 3.61377 15.0991 3.61377C15.7088 3.61377 16.2803 3.72788 16.8138 3.95614C17.3472 4.1844 17.8099 4.49419 18.2018 4.88551C18.5938 5.27683 18.9041 5.73876 19.1327 6.27136C19.3613 6.80399 19.4756 7.36921 19.4756 7.96703C19.4756 8.56482 19.3613 9.12733 19.1327 9.65448C18.9041 10.1817 18.5938 10.6409 18.2018 11.0322C17.8099 11.4235 17.3472 11.7333 16.8138 11.9616C16.2803 12.1898 15.7087 12.3039 15.0991 12.3039C14.5112 12.3039 13.9641 12.1925 13.4579 11.9697C12.9517 11.7469 12.508 11.4452 12.127 11.0648V12.1083H10.4939V0.695312H12.1433ZM12.3311 9.09201C12.478 9.43986 12.6822 9.74421 12.9435 10.0051C13.2048 10.2659 13.5096 10.4725 13.858 10.6247C14.2064 10.7768 14.582 10.8529 14.9848 10.8529C15.3767 10.8529 15.7469 10.7768 16.0952 10.6247C16.4436 10.4725 16.7457 10.266 17.0016 10.0051C17.2574 9.74424 17.4616 9.43986 17.614 9.09201C17.7664 8.7442 17.8426 8.36922 17.8426 7.96703C17.8426 7.56485 17.7664 7.18713 17.614 6.83387C17.4616 6.4806 17.2574 6.17355 17.0016 5.91268C16.7457 5.65185 16.4436 5.44802 16.0952 5.30129C15.7468 5.15457 15.3767 5.08115 14.9848 5.08115C14.5929 5.08115 14.2227 5.15453 13.8744 5.30129C13.526 5.44805 13.2212 5.65185 12.9598 5.91268C12.6986 6.17355 12.4917 6.4806 12.3393 6.83387C12.1869 7.18713 12.1107 7.56485 12.1107 7.96703C12.1106 8.36922 12.1841 8.7442 12.3311 9.09201ZM20.4063 6.2877C20.624 5.76596 20.9234 5.30674 21.3044 4.91C21.6854 4.51327 22.1373 4.20077 22.6599 3.97252C23.1825 3.74426 23.7486 3.63015 24.3582 3.63015C24.957 3.63015 25.5123 3.73885 26.0239 3.95621C26.5356 4.17361 26.9765 4.47524 27.3467 4.86112C27.7168 5.24696 28.0054 5.70351 28.2122 6.23066C28.419 6.75785 28.5225 7.33122 28.5225 7.9508V8.48885H21.7454C21.7998 8.8258 21.9087 9.1383 22.072 9.4263C22.2353 9.71433 22.4394 9.96435 22.6844 10.1763C22.9293 10.3883 23.207 10.5541 23.5172 10.6736C23.8275 10.7931 24.1568 10.853 24.5052 10.853C25.496 10.853 26.2962 10.4453 26.9058 9.6301L28.0979 10.5105C27.6842 11.0649 27.1726 11.4997 26.5629 11.8149C25.9532 12.1301 25.2673 12.2877 24.5053 12.2877C23.8847 12.2877 23.305 12.1789 22.7661 11.9616C22.2272 11.7442 21.759 11.4398 21.3617 11.0485C20.9643 10.6572 20.6513 10.198 20.4227 9.67083C20.1941 9.14367 20.0797 8.57027 20.0797 7.95073C20.0797 7.3638 20.1886 6.80944 20.4063 6.2877ZM22.7007 5.64366C22.238 6.02954 21.9305 6.54312 21.7781 7.18442H26.8568C26.7153 6.54312 26.4132 6.02954 25.9505 5.64366C25.4878 5.25782 24.9461 5.06488 24.3256 5.06488C23.705 5.06488 23.1634 5.25782 22.7007 5.64366ZM31.6088 5.83115C31.2604 6.21158 31.0862 6.72787 31.0862 7.38007V12.1083H29.4368V3.79314H31.0699V4.82032C31.2767 4.48336 31.5462 4.21704 31.8782 4.0214C32.2103 3.82572 32.6049 3.72788 33.0622 3.72788H33.6337V5.26049H32.9479C32.4035 5.26053 31.9572 5.45072 31.6088 5.83115Z" fill="white"/>
</svg>