<svg width="56" height="18" viewBox="0 0 56 18" fill="none" xmlns="http://www.w3.org/2000/svg">
<g clip-path="url(#clip0_347_269)">
<path d="M17.0578 3.45573C16.8337 5.64578 16.2741 7.7887 15.3984 9.80995C14.33 12.3377 12.647 14.5609 10.501 16.2794L8.86473 17.5421L7.23512 16.2794C4.68852 14.3079 2.6796 11.2814 1.5649 7.76051C1.12671 6.35899 0.830161 4.91738 0.679688 3.45715C2.26956 2.44273 4.03565 1.73294 5.88714 1.36426C5.90616 2.99408 6.1638 4.61243 6.65193 6.16817C6.67848 6.26829 6.71309 6.37595 6.74676 6.48031C6.77331 6.54123 6.79417 6.60829 6.81408 6.6692C6.8615 6.79576 6.9018 6.9157 6.94874 7.03754C6.97529 7.10317 7.00184 7.16409 7.02223 7.22312C7.10236 7.41673 7.17917 7.61176 7.26973 7.79923C7.30245 7.87904 7.34322 7.95554 7.37641 8.03959C7.39064 8.06604 7.40439 8.09248 7.41719 8.1194C7.4518 8.1992 7.49068 8.2757 7.53146 8.35551C7.90488 9.09954 8.35216 9.80447 8.86663 10.4597C10.6906 8.16709 11.7845 4.88751 11.8442 1.36473C13.6986 1.73304 15.4676 2.44351 17.0597 3.45951L17.0578 3.45573Z" fill="white"/>
<path d="M17.0614 3.45378C16.8388 5.64455 16.2791 7.78817 15.4019 9.80942C14.3333 12.3339 12.6521 14.5548 10.5093 16.2727L8.87305 17.5402V10.454C10.6971 8.16136 11.7956 4.88178 11.8506 1.3623C13.7035 1.72899 15.471 2.4384 17.0614 3.45378Z" fill="white"/>
<path d="M37.905 12.7005C37.3539 12.7135 36.8083 12.5895 36.3175 12.3397C35.882 12.1118 35.5203 11.7655 35.2744 11.341C35.0249 10.9049 34.8971 10.4102 34.9046 9.90825V6.30566H36.3152V9.89455C36.309 10.1882 36.3832 10.478 36.5299 10.7327C36.6685 10.9688 36.8683 11.1634 37.1084 11.2961C37.3516 11.4292 37.6246 11.4989 37.9021 11.4989C38.1796 11.4989 38.4526 11.4292 38.6958 11.2961C38.9359 11.1634 39.1357 10.9688 39.2743 10.7327C39.421 10.478 39.4952 10.1882 39.4891 9.89455V6.30566H40.8996V9.90872C40.9071 10.4114 40.7771 10.9067 40.5236 11.3414C40.2757 11.7643 39.9145 12.1101 39.4805 12.3402C38.9938 12.5895 38.4521 12.7134 37.905 12.7005Z" fill="white"/>
<path d="M54.2445 7.81981C53.9986 7.35593 53.6272 6.96988 53.1724 6.70536C53.0897 6.65652 53.0044 6.61222 52.9169 6.57267C52.5131 6.39186 52.0746 6.30081 51.632 6.30586H48.3457V12.7054H51.6367C52.1753 12.7103 52.7055 12.5719 53.1724 12.3045C53.6069 12.055 53.965 11.6924 54.2084 11.2557C54.2217 11.2345 54.2337 11.2126 54.2445 11.1901C54.5126 10.668 54.6456 10.0876 54.6313 9.50139C54.6461 8.91741 54.5131 8.33911 54.2445 7.81981ZM53.1255 10.3486C53.126 10.3522 53.126 10.3558 53.1255 10.3594C52.9835 10.6103 52.7767 10.8188 52.5267 10.9634C52.2531 11.1206 51.9415 11.2 51.6258 11.1929H49.789V7.81225H51.6173C51.9329 7.80552 52.2445 7.88488 52.5181 8.04175C52.7679 8.1873 52.9746 8.39619 53.117 8.64714C53.1175 8.65074 53.1175 8.6544 53.117 8.658C53.2599 8.91698 53.3349 9.20773 53.3349 9.50328C53.3349 9.79883 53.2599 10.0896 53.117 10.3486H53.1255Z" fill="white"/>
<path d="M47.1242 11.2583V12.7005H44.8331C44.2221 12.7005 43.6361 12.4588 43.2041 12.0284C42.772 11.5981 42.5293 11.0145 42.5293 10.406V6.30566H43.9773V10.406C43.9773 10.6283 44.0647 10.8419 44.2209 11.0008C44.377 11.1597 44.5895 11.2513 44.8127 11.256C44.8274 11.2568 44.8422 11.2568 44.8568 11.256L47.1242 11.2583Z" fill="white"/>
<path d="M23.8574 12.7005L23.4278 12.3647C21.7683 11.0803 20.7793 8.81079 20.7793 6.29763H22.1899C22.1438 7.97481 22.7394 9.60675 23.856 10.8631C24.4724 10.2078 24.927 9.41848 25.1836 8.55768C25.4133 7.824 25.5286 7.05954 25.5254 6.29102H26.936C26.939 7.20234 26.8021 8.10876 26.5301 8.9789C26.1407 10.3039 25.3597 11.4814 24.2889 12.3581L23.8574 12.7005Z" fill="white"/>
<path d="M33.3008 9.97076C32.9057 8.62443 32.1126 7.42781 31.0249 6.53676L30.5863 6.19629L30.143 6.53676C28.4598 7.8434 27.457 10.1455 27.457 12.7007H28.8927C28.892 12.3109 28.9208 11.9216 28.979 11.5362H32.206C32.2615 11.9219 32.2893 12.311 32.289 12.7007H33.7261C33.726 11.7752 33.5835 10.8552 33.3036 9.97265L33.3008 9.97076ZM29.2777 10.2829C29.5393 9.45413 29.9862 8.69526 30.5849 8.06346C31.1817 8.69639 31.6278 9.45494 31.8902 10.2829H29.2777Z" fill="white"/>
</g>
<defs>
<clipPath id="clip0_347_269">
<rect width="55" height="17" fill="white" transform="translate(0.175781 0.879395)"/>
</clipPath>
</defs>
</svg>