<svg width="102" height="28" viewBox="0 0 102 28" fill="none" xmlns="http://www.w3.org/2000/svg">
<path d="M28.8087 1.01023C29.6452 0.884234 30.6077 0.805481 31.3177 1.32524C31.7595 1.65592 31.9173 2.25443 31.8857 2.79009C31.9173 3.6721 31.5071 4.61719 30.7183 5.07404C30.0238 5.45208 29.1876 5.48342 28.4143 5.40472C27.8936 5.34181 27.3729 5.05837 27.1047 4.58579C26.5049 3.21542 27.2466 1.278 28.8087 1.01023ZM3.78241 2.00256C3.82967 1.52999 4.25577 1.10471 4.7449 1.12055C8.39009 1.12055 12.0194 1.13622 15.6487 1.12055C16.0432 1.08904 16.4693 1.26221 16.6585 1.60874C16.9267 2.08131 16.6901 2.60107 16.6585 3.08943C16.5482 3.75085 16.5796 4.63303 15.8065 4.88496C13.1555 4.96372 10.5045 4.88496 7.85347 4.91648C7.60104 6.58601 7.36435 8.23988 7.1118 9.89375C7.1118 9.95678 7.12766 10.0987 7.12766 10.1615C9.06852 10.1458 11.0094 10.1615 12.9502 10.1458C13.4868 10.1143 14.0548 10.5712 14.0074 11.1381C13.9602 11.721 13.8339 12.288 13.755 12.8708C13.6918 13.2645 13.3763 13.6268 12.966 13.7056C10.8041 13.7528 8.61074 13.6583 6.44913 13.7528C6.10186 16.1313 5.69158 18.5096 5.32861 20.8881C5.2814 21.3607 4.90257 21.7702 4.4292 21.7858C3.52986 21.8016 2.63032 21.8016 1.73098 21.7858C1.14715 21.8016 0.673717 21.1557 0.831449 20.6044C1.79429 14.3987 2.78835 8.2086 3.78241 2.00256ZM19.8143 1.15189C20.635 1.08898 21.4712 1.13622 22.2918 1.12055C22.7968 1.08904 23.3018 1.48275 23.349 2.00256C23.349 2.412 23.2385 2.8216 23.1912 3.23109C22.5284 7.45247 21.85 11.6738 21.1871 15.8952C21.0925 16.5724 20.9189 17.2969 21.1241 17.99C21.3608 18.683 22.4179 18.3837 22.6704 19.1082C22.8282 19.6911 22.6546 20.3053 22.6072 20.904C22.56 21.6915 21.6605 21.8647 21.0452 22.0382C19.704 22.2901 18.0785 22.1011 17.116 20.9984C16.4217 20.1952 16.3743 19.061 16.5165 18.0531C17.3527 12.6977 18.189 7.34232 19.0412 1.97105C19.0886 1.57723 19.4041 1.21497 19.8143 1.15189ZM51.1368 2.00256C51.184 1.52999 51.6101 1.12055 52.0835 1.12055H54.482C55.0816 1.10471 55.5709 1.75057 55.4288 2.31751C54.8766 5.81433 54.3085 9.31114 53.7563 12.8077C54.5926 12.6818 55.5394 12.5243 56.1232 11.847C57.1014 10.7443 57.9064 9.46871 58.5059 8.12985C58.7109 7.60998 58.8215 6.85396 59.5 6.75942C60.3995 6.72791 61.3146 6.74364 62.214 6.75942C62.8295 6.74364 63.2871 7.43669 63.0819 8.00368C62.8453 8.83868 62.4508 9.61037 62.0406 10.3507C61.1253 11.8314 60.1155 13.2961 58.7899 14.4617C59.3737 16.2101 60.1155 17.9112 60.7624 19.6282C60.9517 20.1952 61.4095 20.8567 60.9833 21.4081C60.494 22.0696 59.5788 21.7387 58.9004 21.8174C58.1903 21.7387 57.1646 22.101 56.7701 21.2977C56.0284 19.5808 55.4131 17.8168 54.6556 16.0999C54.2138 16.1155 53.7562 16.1314 53.3143 16.0841C53.2829 16.1472 53.2197 16.273 53.1881 16.3362C52.9513 17.9112 52.699 19.4864 52.4464 21.0614C52.3517 21.4394 52.0519 21.7703 51.6417 21.8018C50.8054 21.8333 49.9533 21.8174 49.1012 21.8174C48.7382 21.8174 48.4069 21.5812 48.2491 21.2662C48.0913 20.951 48.1859 20.5889 48.2334 20.2424C49.2116 14.1624 50.1742 8.08244 51.1368 2.00256ZM94.9881 3.71946C95.0986 3.27828 95.5245 2.97911 95.9665 2.99478C96.5977 3.01062 97.2446 2.97911 97.8915 3.01062C98.4123 3.02629 98.8225 3.54611 98.7593 4.05014C98.6647 4.94799 98.4437 5.84584 98.3807 6.74352C98.996 6.74352 99.6272 6.72785 100.243 6.74352C100.795 6.74352 101.253 7.31064 101.158 7.84606C101.079 8.33454 100.968 8.80711 100.89 9.29519C100.811 9.70485 100.464 10.0356 100.069 10.0986C99.3117 10.1458 98.5701 10.067 97.8284 10.1458C97.5128 12.2563 97.1657 14.3669 96.8343 16.4778C96.7868 16.9661 96.7554 17.5173 97.0394 17.9426C97.4655 18.4624 98.207 18.2733 98.8068 18.3364C99.2801 18.4781 99.5799 18.998 99.501 19.4707C99.4221 20.006 99.4063 20.5416 99.2801 21.0613C99.0908 21.6441 98.4122 21.7545 97.8914 21.8961C96.4555 22.2743 94.7987 22.2743 93.5207 21.4394C92.3372 20.636 92.1478 19.0767 92.274 17.7535C92.6053 15.2018 93.1262 12.6659 93.4101 10.0985C92.9683 10.1142 92.4318 10.1773 92.1005 9.78343C91.7218 9.38972 91.9111 8.80688 91.9742 8.31846C92.069 7.79871 92.0531 7.12144 92.6212 6.83789C93.0787 6.66454 93.5996 6.7907 94.0887 6.72762C94.3885 5.71973 94.6725 4.71173 94.9881 3.71946ZM86.0727 8.82272C87.0668 7.83039 88.2659 7.01135 89.6388 6.60192C90.2384 6.33409 91.0116 6.83817 90.9959 7.49971C90.8855 8.36605 90.6803 9.21649 90.5382 10.067C90.475 10.4924 90.1121 10.8547 89.6861 10.9019C88.1397 11.1696 86.7985 12.0988 85.7254 13.2015C85.4573 13.5324 85.0627 13.8474 85.0154 14.3041C84.6841 16.5092 84.3369 18.7144 83.9898 20.9196C83.9425 21.392 83.532 21.849 83.043 21.8175H80.6444C80.0922 21.849 79.6031 21.2978 79.6661 20.7464C80.3604 16.3832 81.0549 12.036 81.7333 7.67283C81.7648 7.23188 82.0805 6.8066 82.538 6.75931C83.1219 6.72779 83.7056 6.74352 84.3053 6.74352C84.7787 6.74352 85.2205 7.1688 85.2205 7.65716C85.2205 8.33442 85.1574 9.02741 85.1416 9.72046C85.5204 9.48438 85.7571 9.10628 86.0727 8.82272ZM27.0887 6.82233C27.9408 6.64916 28.8245 6.79093 29.6766 6.74358C30.1658 6.68067 30.6865 6.99562 30.7653 7.48398C30.8286 7.92493 30.7021 8.35026 30.6548 8.7756C30.008 12.8237 29.3609 16.8717 28.7297 20.9197C28.6824 21.3767 28.3039 21.8334 27.8146 21.8175C26.9625 21.8175 26.1104 21.8334 25.2426 21.8019C24.706 21.7388 24.3115 21.1247 24.4536 20.6047C25.1321 16.3993 25.7792 12.2094 26.4577 8.00374C26.4892 7.54695 26.6154 7.01135 27.0887 6.82233ZM78.1513 7.02725C75.8001 6.58607 73.4017 6.27106 71.0189 6.50732C68.8887 6.77515 66.7427 7.73603 65.4331 9.48438C63.6184 11.784 63.0029 14.8713 63.4131 17.7381C63.6342 19.1084 64.2337 20.4945 65.3541 21.345C66.3955 22.1484 67.7999 22.2585 69.0623 22.0538C70.8295 21.7072 72.3285 20.5734 73.5595 19.3132C73.6225 19.8487 73.4963 20.3843 73.5279 20.9041C73.5595 21.3922 74.0013 21.849 74.4904 21.8175H76.1C76.5734 21.8175 76.9679 21.3766 76.9995 20.9197C77.678 16.6511 78.3564 12.3982 79.0192 8.14552C79.1138 7.60992 78.6879 7.09016 78.1513 7.02725ZM73.7174 14.446C73.0861 15.6273 72.2024 16.6984 71.2083 17.6118C70.6403 18.0844 69.9143 18.5728 69.1413 18.4153C68.3838 18.2578 68.0208 17.4703 67.8474 16.7929C67.4529 15.0288 67.8158 13.1071 68.8098 11.5793C69.2516 10.8704 69.9617 10.3349 70.7823 10.1143C71.9341 9.83079 73.1493 9.97256 74.2697 10.2876L74.3327 10.3507C74.1907 11.721 73.9224 13.0756 73.7174 14.446ZM47.1762 12.0833C47.1603 10.5082 46.7343 8.85435 45.6298 7.67294C44.8724 6.83817 43.7362 6.4129 42.6317 6.42851C40.8012 6.36566 39.0813 7.26351 37.74 8.46047C37.4401 8.69685 37.235 9.04337 36.9038 9.23233C36.9038 8.7124 36.951 8.1927 36.9352 7.65722C36.951 7.1688 36.4934 6.74358 36.02 6.74358H34.4104C33.9056 6.74358 33.4953 7.1847 33.4637 7.67289C32.4696 13.9734 31.4598 20.2739 30.4656 26.5744C30.3237 27.1571 30.8287 27.7557 31.4283 27.74C32.3119 27.7242 33.2114 27.803 34.0792 27.6768C34.7736 27.4878 34.7577 26.6845 34.8682 26.1018C35.1206 24.7156 35.2943 23.3295 35.452 21.9276C38.5606 22.5261 42.1741 22.1168 44.4937 19.7697C46.3872 17.7065 47.2708 14.8555 47.1762 12.0833ZM42.7579 13.6741C42.6633 15.1232 42.1425 16.5882 41.1327 17.6433C39.823 18.8878 37.8346 18.7144 36.2252 18.2893C36.1938 18.242 36.1463 18.1474 36.1305 18.1003C36.383 16.7299 36.5092 15.3438 36.8249 13.9892C37.7085 12.5402 38.7814 11.0752 40.312 10.272C40.8801 10.0042 41.6533 10.0672 42.0636 10.587C42.7579 11.4533 42.821 12.6189 42.7579 13.6741Z" fill="white" stroke="#107BD4" stroke-width="0.101"/>
</svg>