<svg width="83" height="27" viewBox="0 0 83 27" fill="none" xmlns="http://www.w3.org/2000/svg">
<path d="M82.13 8.09098C81.3861 5.91261 79.3584 4.34834 76.9773 4.34834H76.9275C75.3794 4.34834 73.9841 5.0081 72.9911 6.0674C71.9965 5.0081 70.6012 4.34834 69.0548 4.34834H69.0049C67.6441 4.34834 66.4002 4.85869 65.4449 5.7031V5.27368C65.4121 4.84593 65.0686 4.50984 64.6443 4.50984H60.9915C60.5447 4.50984 60.1841 4.8795 60.1841 5.33848V25.6536C60.1841 26.1129 60.545 26.4822 60.9915 26.4822H64.6443C65.0515 26.4822 65.3866 26.1706 65.44 25.7677L65.4384 11.1839C65.4384 11.1329 65.44 11.0856 65.4452 11.0379C65.5036 10.3869 65.9691 9.85201 66.7048 9.78486H67.3782C67.6857 9.81306 67.9453 9.92386 68.1496 10.0911C68.4676 10.3496 68.6443 10.7475 68.6443 11.1839L68.6581 25.6959C68.6581 26.1552 69.0207 26.5265 69.4655 26.5265H73.1183C73.5494 26.5265 73.9002 26.1746 73.9209 25.7365L73.9192 11.1648C73.9176 10.686 74.134 10.2532 74.5136 9.99638C74.7008 9.87316 74.926 9.79056 75.1853 9.76572H75.8587C76.6491 9.83623 77.1268 10.4503 77.1252 11.1648L77.1389 25.6573C77.1389 26.1166 77.5015 26.4859 77.9464 26.4859H81.5992C82.0441 26.4859 82.4067 26.1162 82.4067 25.6573V10.0706C82.4067 9.00759 82.29 8.55533 82.13 8.09098ZM57.4011 4.56289H55.3117V1.08583C55.3117 0.668822 54.9819 0.331055 54.5748 0.331055C54.5266 0.331055 54.4803 0.338106 54.4354 0.346835C52.1192 0.99786 52.5831 4.28321 48.355 4.56289H47.9442C47.8822 4.56289 47.8239 4.57162 47.7672 4.58404H47.7639L47.7672 4.58572C47.4062 4.66831 47.1348 4.99567 47.1348 5.38985V9.13114C47.1348 9.58676 47.4974 9.95811 47.9439 9.95811H50.1483L50.145 25.8214C50.145 26.2737 50.5023 26.6397 50.9439 26.6397H54.5554C54.9954 26.6397 55.3527 26.2737 55.3527 25.8214L55.3543 9.95811H57.4007C57.8456 9.95811 58.2082 9.58676 58.2082 9.13114V5.39018C58.2088 4.93423 57.8463 4.56289 57.4011 4.56289Z" fill="white"/>
<path d="M44.2571 4.56317H40.6043C40.1594 4.56317 39.7985 4.93451 39.7985 5.39013V13.1255C39.79 13.6043 39.412 13.9878 38.9428 13.9878H37.4138C36.9397 13.9878 36.5565 13.5973 36.5565 13.1114L36.5427 5.39013C36.5427 4.93451 36.1801 4.56317 35.7352 4.56317H32.0821C31.6353 4.56317 31.2747 4.93451 31.2747 5.39013V13.8682C31.2747 17.0884 33.5168 19.3847 36.6627 19.3847C36.6627 19.3847 39.0235 19.3847 39.0956 19.3988C39.5218 19.4481 39.8532 19.8141 39.8532 20.2647C39.8532 20.7099 39.5283 21.0742 39.1074 21.1286C39.0867 21.1319 39.0677 21.1373 39.0454 21.141L33.7036 21.1605C33.2568 21.1605 32.8961 21.5318 32.8961 21.9874V25.7267C32.8961 26.1843 33.2571 26.5537 33.7036 26.5537H39.6759C42.8234 26.5537 45.0639 24.2591 45.0639 21.0372V5.39047C45.0646 4.93451 44.7039 4.56317 44.2571 4.56317ZM9.22157 4.5625H1.23737C0.799379 4.5625 0.445312 4.92646 0.445312 5.37368V9.0391C0.445312 9.04615 0.446952 9.0532 0.446952 9.06025C0.446952 9.07771 0.445312 9.0955 0.445312 9.11128V25.7008C0.445312 26.1514 0.775119 26.5191 1.18426 26.5295H4.90589C5.35077 26.5295 5.71336 26.1598 5.71336 25.7025L5.72713 20.0172H9.2219C12.1462 20.0172 14.1841 17.9392 14.1841 14.9319V9.65487C14.1837 6.64753 12.1459 4.5625 9.22157 4.5625ZM8.90029 13.7265C8.90029 14.2104 8.51704 14.6045 8.04463 14.6045L5.7268 14.6062V9.98021H8.04463C8.51704 9.98021 8.90029 10.3707 8.90029 10.8565V13.7265ZM23.4757 4.58365H18.4073C17.9588 4.58365 17.5962 4.93216 17.5962 5.35958V6.81473C17.5962 6.82346 17.5979 6.83421 17.5979 6.84294C17.5979 6.85334 17.5962 6.86409 17.5962 6.8745V8.8682C17.5962 9.32046 17.9811 9.68979 18.4552 9.68979H23.2816C23.6629 9.75123 23.9655 10.0363 24.0084 10.4815V10.9636C23.9655 11.3877 23.6665 11.6973 23.3023 11.7325H20.9123C17.7336 11.7325 15.4692 13.8951 15.4692 16.9323V21.282C15.4692 24.3014 17.4159 26.4499 20.572 26.4499H27.1957C28.3848 26.4499 29.3486 25.5279 29.3486 24.3927V10.1988C29.3486 6.75698 27.6166 4.58365 23.4757 4.58365ZM24.0566 20.7847C24.0566 20.8324 24.0497 20.8781 24.0429 20.9221C24.0343 20.9634 24.0227 21.004 24.0084 21.0436C23.895 21.371 23.5754 21.6084 23.1957 21.6084H21.6752C21.2011 21.6084 20.8143 21.2387 20.8143 20.7847V20.079C20.8143 20.0703 20.8127 20.0615 20.8127 20.0525L20.8143 18.1749V17.5874L20.8159 17.582C20.8176 17.1297 21.2008 16.7638 21.6749 16.7638H23.1954C23.6714 16.7638 24.0563 17.1314 24.0563 17.5874V20.7847H24.0566Z" fill="white"/>
</svg>