<svg width="143" height="37" viewBox="0 0 143 37" fill="none" xmlns="http://www.w3.org/2000/svg">
<path d="M140.532 16.9154C140.485 15.5643 139.394 14.4028 137.782 14.4028C136.005 14.4028 134.985 15.5169 134.82 16.9154H140.532ZM137.83 12.3644C140.745 12.3644 142.902 14.4976 142.902 17.4605C142.902 17.6739 142.902 18.0531 142.855 18.219C142.855 18.4798 142.594 18.6931 142.357 18.6931H134.63C134.63 20.1864 136.028 21.7034 137.972 21.7034C139.276 21.7034 140.034 21.2293 140.722 20.8027C140.935 20.6368 141.148 20.5893 141.362 20.8501L142.002 21.8693C142.215 22.0826 142.262 22.296 141.954 22.6278C141.148 23.3152 139.679 24.0263 137.806 24.0263C134.393 24.0263 132.236 21.3953 132.236 18.2427C132.283 15.0428 134.44 12.3644 137.83 12.3644ZM122.707 22.8649C122.541 22.77 122.375 22.533 122.494 22.2723L122.992 21.253C123.11 21.0397 123.418 20.9212 123.703 21.0871C124.343 21.4664 125.172 21.893 126.452 21.893C127.377 21.893 127.922 21.4664 127.922 20.8264C127.922 20.0679 127.069 19.5938 125.552 18.9064C123.821 18.1479 122.518 17.2472 122.518 15.4221C122.518 14.0236 123.489 12.4118 126.192 12.4118C127.756 12.4118 128.894 12.8858 129.439 13.2177C129.7 13.431 129.818 13.7628 129.652 14.0236L129.273 14.7821C129.107 15.1139 128.775 15.1139 128.562 14.9954C127.803 14.6636 127.045 14.4502 126.192 14.4502C125.22 14.4502 124.793 14.9243 124.793 15.4221C124.793 16.1095 125.599 16.5361 126.689 17.0339C128.752 17.8872 130.316 18.6457 130.316 20.6842C130.316 22.3908 128.799 23.9078 126.31 23.9078C124.604 23.9789 123.371 23.2915 122.707 22.8649ZM114.885 22.0115C116.023 22.0115 117.161 21.2056 117.469 20.6842V18.859C117.303 18.7405 116.45 18.4798 115.407 18.4798C114.103 18.4798 113.084 19.1672 113.084 20.3049C113.155 21.253 113.747 22.0115 114.885 22.0115ZM115.264 16.702C116.402 16.702 117.54 17.0339 117.54 17.0339C117.587 15.2561 117.161 14.5213 115.762 14.5213C114.459 14.5213 113.226 14.9006 112.633 15.0665C112.302 15.1139 112.088 14.9006 111.993 14.5925L111.78 13.6917C111.733 13.3125 111.899 13.1466 112.159 13.0517C112.373 13.0043 113.937 12.4118 115.999 12.4118C119.555 12.4118 119.887 14.545 119.887 17.2946V23.1967C119.863 23.4811 119.626 23.7182 119.341 23.7419H118.536C118.322 23.7419 118.204 23.6471 118.109 23.3626L117.848 22.6041C116.924 23.5048 115.691 24.0026 114.387 24.0026C112.278 24.0026 110.761 22.6041 110.761 20.3049C110.785 18.2427 112.396 16.702 115.264 16.702ZM104.788 12.3644C106.518 12.3644 107.822 13.0043 108.841 14.2843C109.054 14.545 109.007 14.8769 108.722 15.0902L107.869 15.8961C107.537 16.1569 107.324 15.9435 107.158 15.7776C106.684 15.2324 105.76 14.6636 104.835 14.6636C102.939 14.6636 101.422 16.228 101.422 18.1479C101.422 20.139 102.891 21.6797 104.717 21.6797C106.186 21.6797 106.779 20.8738 107.371 20.2812C107.585 20.0679 107.869 20.0679 108.13 20.2338L108.888 20.8264C109.149 21.0397 109.268 21.3004 109.102 21.6323C108.177 23.0308 106.684 23.9315 104.717 23.9315C101.588 23.9315 98.9804 21.4664 98.9804 18.1479C99.0515 14.9243 101.706 12.3644 104.788 12.3644ZM93.8842 7.41039C93.8842 7.14966 94.0976 6.86522 94.4294 6.86522H95.7805C96.0649 6.88893 96.302 7.10225 96.3257 7.41039V23.173C96.302 23.4574 96.0649 23.6945 95.7805 23.7182H94.4294C94.1213 23.7182 93.8842 23.4811 93.8842 23.173V7.41039ZM87.9348 7.41039C87.9348 7.14966 88.1481 6.86522 88.4799 6.86522H89.831C90.1154 6.88893 90.3525 7.10225 90.3762 7.41039V23.173C90.3525 23.4574 90.1154 23.6945 89.831 23.7182H88.4799C88.1718 23.7182 87.9348 23.4811 87.9348 23.173V7.41039ZM79.6149 22.0115C80.7527 22.0115 81.8904 21.2056 82.1986 20.6842V18.859C82.0327 18.7405 81.1793 18.4798 80.1364 18.4798C78.8327 18.4798 77.8135 19.1672 77.8135 20.3049C77.8372 21.253 78.4298 22.0115 79.6149 22.0115ZM79.9468 16.702C81.0845 16.702 82.2223 17.0339 82.2223 17.0339C82.2697 15.2561 81.843 14.5213 80.4446 14.5213C79.1409 14.5213 77.9083 14.9006 77.3157 15.0665C76.9839 15.1139 76.7706 14.9006 76.6758 14.5925L76.4624 13.6917C76.415 13.3125 76.5809 13.1466 76.8417 13.0517C77.055 13.0043 78.6194 12.4118 80.6816 12.4118C84.2371 12.4118 84.6163 14.545 84.6163 17.2946V23.1967C84.5926 23.4811 84.3556 23.7182 84.0711 23.7419H83.2652C83.0519 23.7419 82.9334 23.6471 82.7912 23.3626L82.5304 22.6041C81.606 23.5048 80.3734 24.0026 79.0698 24.0026C76.9602 24.0026 75.4432 22.6041 75.4432 20.3049C75.4432 18.2427 77.0787 16.702 79.9468 16.702ZM56.1725 13.1466C56.1725 12.8858 56.3859 12.6014 56.7177 12.6014H57.2629C57.5236 12.6014 57.6895 12.6962 57.7606 12.9332L58.0925 13.9051C58.3058 13.6443 59.491 12.3407 61.648 12.3407C63.2598 12.3407 64.2316 12.9806 65.0612 14.1184C65.3931 13.7865 66.673 12.3407 68.83 12.3407C72.2433 12.3407 73.0966 14.6873 73.0966 17.6027V23.173C73.0966 23.4574 72.8595 23.7182 72.5514 23.7182H71.2003C70.8685 23.7182 70.6551 23.5048 70.6551 23.173V17.4842C70.6551 15.7065 69.9441 14.6399 68.4508 14.6399C66.7678 14.6399 65.9619 15.7539 65.7486 15.9198C65.796 16.1332 65.8671 16.8205 65.8671 17.4131V23.1493C65.8671 23.41 65.6538 23.6945 65.3931 23.6945H63.9472C63.6153 23.6945 63.402 23.4811 63.402 23.1493V17.4605C63.402 15.6354 62.762 14.6162 61.1976 14.6162C59.5147 14.6162 58.6614 15.8487 58.5428 16.228V23.1493C58.5191 23.4337 58.2821 23.6708 57.9977 23.6945H56.6466C56.3384 23.6945 56.1014 23.4574 56.1014 23.1493V13.1229H56.1725V13.1466ZM45.9565 22.8649C45.7905 22.77 45.6246 22.533 45.7431 22.2723L46.2172 21.253C46.3357 21.0397 46.6439 20.9212 46.9283 21.0871C47.5683 21.4664 48.3979 21.893 49.6779 21.893C50.6023 21.893 51.1475 21.4664 51.1475 20.8264C51.1475 20.0679 50.2941 19.5938 48.7771 18.9064C47.0468 18.1479 45.7431 17.2472 45.7431 15.4221C45.7431 14.0236 46.715 12.4118 49.4171 12.4118C50.9815 12.4118 52.1193 12.8858 52.6645 13.2177C52.9252 13.431 53.0437 13.7628 52.8778 14.0236L52.4985 14.7821C52.3326 15.1139 52.0245 15.1139 51.7874 14.9954C51.0289 14.6636 50.2704 14.4502 49.4171 14.4502C48.4453 14.4502 48.0186 14.9243 48.0186 15.4221C48.0186 16.1095 48.8245 16.5361 49.9149 17.0339C51.9771 17.8872 53.5415 18.6457 53.5415 20.6842C53.5415 22.3908 52.0245 23.9078 49.5356 23.9078C47.8527 23.9789 46.6202 23.2915 45.9565 22.8649ZM16.1379 4.70824L22.3481 7.69483C22.6563 7.83705 22.7748 8.2163 22.6326 8.52444C22.5852 8.64296 22.4666 8.73778 22.3481 8.80889L16.3275 11.8666C16.1379 11.9614 15.9483 11.9614 15.7587 11.8666L9.54843 8.87999C9.24028 8.73777 9.12177 8.35852 9.26399 8.05038C9.31139 7.93187 9.42991 7.83705 9.54843 7.76594L15.569 4.70824C15.7587 4.61342 15.972 4.61342 16.1379 4.70824ZM16.1853 16.0857L30.8813 8.61926C31.1894 8.45333 31.3079 8.09779 31.142 7.78965C31.0709 7.67113 30.9761 7.57632 30.8576 7.52891L16.3038 0.489078C16.1379 0.394266 15.9246 0.394266 15.7349 0.489078L1.03899 7.95557C0.730853 8.12149 0.612337 8.47704 0.778259 8.78518C0.849368 8.9037 0.944181 8.9985 1.0627 9.06961L15.6401 16.0857C15.8061 16.1569 16.0194 16.1569 16.1853 16.0857ZM28.5347 21.4664C28.4161 24.0263 27.0176 26.3492 24.8133 27.6529C22.7748 28.6958 21.1156 27.6292 21.1156 25.2589C21.2341 22.6989 22.6326 20.376 24.837 19.0723C26.8754 18.0294 28.5347 19.0961 28.5347 21.4664ZM32.8723 27.8662V11.2503C32.8723 10.9185 32.5879 10.634 32.2323 10.634C32.1375 10.634 32.0427 10.6577 31.9479 10.7051L17.1097 18.2901C16.8964 18.385 16.7779 18.5983 16.7779 18.8353V35.4512C16.7779 35.7831 17.0623 36.0675 17.4179 36.0675C17.5127 36.0675 17.6075 36.0438 17.7023 35.9964L32.5405 28.4351C32.7538 28.3166 32.8723 28.1032 32.8723 27.8662ZM9.95138 29.3358L3.26709 26.1359C2.95895 25.9937 2.84043 25.6144 2.98265 25.3063C3.00635 25.2826 3.00635 25.2589 3.03006 25.2352L6.3722 20.3286C6.56183 20.0442 6.96478 19.9731 7.24922 20.1627C7.34403 20.2338 7.43884 20.3286 7.48625 20.4471L10.8284 28.5536C10.9706 28.8617 10.8284 29.2173 10.5203 29.3595C10.3069 29.4306 10.1173 29.4306 9.95138 29.3358Z" fill="white"/>
</svg>