<svg width="79" height="24" viewBox="0 0 79 24" fill="none" xmlns="http://www.w3.org/2000/svg">
<path fill-rule="evenodd" clip-rule="evenodd" d="M8.67186 1.09595C8.67186 1.3438 8.72388 1.38463 9.04262 1.38682C9.71672 1.39143 10.3657 1.78218 10.6126 2.33186C10.815 2.78269 10.8346 3.10608 10.8369 6.02643C10.8386 8.25846 10.8018 9.22691 10.7151 9.22691C10.6469 9.22691 10.326 8.99152 10.0021 8.70388C9.67839 8.41624 9.13103 8.0399 8.78594 7.86771C8.21394 7.58226 8.04761 7.55528 6.90362 7.56289C5.10036 7.57488 4.10672 7.98823 2.86348 9.24363C1.21275 10.9104 0.496208 13.2277 0.604356 16.5505C0.69003 19.1847 1.24936 20.7709 2.62973 22.2939C3.76391 23.5452 5.125 24.0744 6.93146 23.9662C8.12439 23.8948 8.69399 23.6142 9.78505 22.5604C10.283 22.0795 10.7239 21.7199 10.7649 21.7613C10.8058 21.8027 10.8394 22.3234 10.8394 22.9183V24L11.2672 23.9208C15.4115 23.1531 17.1723 22.7545 17.2062 22.5763C17.2312 22.4451 17.1399 22.358 16.9217 22.305C16.2105 22.132 15.7771 21.8163 15.5598 21.3131C15.3569 20.8436 15.3441 20.298 15.3109 10.8127L15.2758 0.807617H11.9739H8.67186V1.09595ZM25.1383 7.61571C24.8146 7.67453 24.2825 7.82919 23.9559 7.95929C22.2013 8.65855 20.6031 10.5702 19.9072 12.8022C19.5371 13.9897 19.4026 16.159 19.6143 17.5282C20.1262 20.8377 22.3702 23.4319 25.0994 23.869C26.1356 24.0349 27.6423 24.0151 28.5357 23.8237C30.6407 23.3725 32.6287 21.4991 33.3779 19.2606C34.0845 17.1489 34.0634 14.2983 33.3253 12.1753C32.6137 10.1282 30.9409 8.48324 28.921 7.84407C28.0122 7.55655 26.0997 7.4411 25.1383 7.61571ZM42.2504 7.6675C40.5365 7.98189 39.3957 8.49962 38.4737 9.38123C37.6747 10.1451 37.3321 10.7483 37.2381 11.5565C37.1419 12.3848 37.2233 12.6991 37.6667 13.2097C38.198 13.8214 38.6084 13.9927 39.5444 13.9934C40.8953 13.9944 41.6409 13.3431 41.6409 12.1625C41.6409 11.6338 41.5824 11.4782 41.1807 10.9396C40.373 9.85651 40.4433 9.39887 41.4923 8.91332C42.5992 8.40101 43.6721 8.52903 44.4743 9.26924C44.9666 9.72342 45.0635 10.1698 45.0622 11.9801L45.0612 13.6672L42.8591 14.7908C39.2525 16.631 37.8722 17.6933 37.2153 19.1338C36.9896 19.6289 36.9304 19.9474 36.9256 20.6908C36.9187 21.7809 37.0882 22.2624 37.6942 22.8752C38.2772 23.4644 38.732 23.6701 39.5884 23.7321C40.9789 23.8328 42.3039 23.3286 43.9679 22.066C44.507 21.657 44.9951 21.3518 45.0527 21.3879C45.1105 21.4239 45.1933 21.6667 45.2369 21.9275C45.3248 22.4541 45.9103 23.1976 46.4655 23.4879C46.9379 23.7348 48.328 23.8201 49.0454 23.6462C49.7363 23.4786 50.6043 22.8583 51.245 22.0745C51.6435 21.587 51.6724 21.5105 51.5179 21.3542C51.3632 21.1979 51.3232 21.1983 51.1416 21.3585C50.5262 21.9016 50.0831 21.8827 49.7682 21.2998C49.5913 20.9722 49.564 20.3815 49.5114 15.7432C49.46 11.1932 49.4288 10.4996 49.2591 10.118C49.0177 9.57522 48.0251 8.56063 47.3449 8.16135C46.3077 7.55262 44.0631 7.33499 42.2504 7.6675ZM63.2591 7.6517C62.315 7.89978 61.5384 8.39121 60.4459 9.4322C60.2162 9.65099 59.9724 9.79504 59.904 9.75237C59.8322 9.7075 59.7797 9.31157 59.7797 8.81644V7.95825H56.6995C53.8416 7.95825 53.6194 7.97278 53.6206 8.16008C53.6215 8.29675 53.8148 8.4363 54.2195 8.59258C54.7053 8.78011 54.8598 8.90963 55.0453 9.28458C55.2648 9.72838 55.2735 9.97657 55.2735 15.8009C55.2735 21.3768 55.2575 21.8854 55.0715 22.2295C54.8756 22.592 54.1517 23.0668 53.795 23.0668C53.6954 23.0668 53.6193 23.1667 53.6193 23.2975C53.6193 23.5236 53.6954 23.5282 57.441 23.5282C61.0062 23.5282 61.2625 23.5147 61.2586 23.3263C61.2561 23.2049 61.0636 23.0326 60.7757 22.8938C60.4881 22.7553 60.2049 22.5019 60.0668 22.2595C59.8474 21.8746 59.8351 21.6241 59.8016 16.8749C59.7622 11.2934 59.7187 11.6265 60.6164 10.6379C61.1189 10.0845 62.0333 9.57591 62.5292 9.57406C62.931 9.57256 63.538 10.0049 63.8233 10.4959C64.0507 10.8874 64.0576 11.0594 64.0576 16.3199C64.0576 22.6027 64.0829 22.4316 63.0941 22.8708C62.7252 23.0347 62.522 23.196 62.5203 23.3263C62.5178 23.5147 62.7773 23.5282 66.3963 23.5282C70.0144 23.5282 70.275 23.5146 70.2744 23.3263C70.274 23.1878 70.1066 23.0702 69.7409 22.9515C69.0948 22.7418 68.8311 22.4013 68.6789 21.5807C68.6143 21.232 68.5622 18.9798 68.5603 16.4484C68.5566 11.7061 68.4819 10.5748 68.1178 9.74268C67.8218 9.06613 66.9519 8.14266 66.3184 7.83277C65.6826 7.5216 64.109 7.42841 63.2591 7.6517ZM27.9092 9.02485C28.8517 9.86147 29.0931 11.1163 29.0903 15.1635C29.0883 18.1834 28.9456 20.2982 28.6816 21.2186C28.2236 22.8155 26.5984 23.4509 25.4895 22.4665C24.9949 22.0276 24.7178 21.4939 24.5137 20.5872C24.2991 19.6342 24.2951 12.8079 24.5082 11.4182C24.743 9.88811 25.2215 9.03373 26.012 8.73351C26.1061 8.69776 26.4765 8.66432 26.8351 8.65936C27.4144 8.65129 27.5342 8.69199 27.9092 9.02485ZM8.74453 9.21791C9.39467 9.51639 10.1131 10.1996 10.5069 10.8938L10.8372 11.4759L10.8383 15.6341L10.8394 19.7923L10.5106 20.3165C9.35851 22.1531 7.69864 22.6839 6.6547 21.5496C6.27983 21.1423 5.72939 19.9469 5.5107 19.0649C5.22242 17.9022 5.22083 12.9966 5.50831 11.7642C6.03832 9.49287 7.25613 8.53468 8.74453 9.21791ZM45.0369 17.5401L45.0063 20.2021L44.3508 20.6134C43.1339 21.377 42.1665 21.2069 41.559 20.1224C41.0085 19.1398 41.3975 17.8321 42.6154 16.571C43.2626 15.9008 44.6557 14.8782 44.9217 14.8782C45.0368 14.8782 45.0611 15.4391 45.0369 17.5401ZM74.6762 18.6894C74.2519 18.8176 73.3772 19.6671 73.171 20.151C72.9899 20.5762 72.9603 21.8738 73.1219 22.3037C73.2729 22.705 74.0079 23.5053 74.4304 23.7282C74.8099 23.9283 76.0462 23.9933 76.5846 23.8414C76.9615 23.7351 77.872 22.9178 78.0834 22.4962C78.3179 22.0285 78.3925 21.2012 78.2575 20.565C78.1054 19.8484 77.5457 19.1475 76.8554 18.8097C76.3323 18.5536 75.3115 18.4974 74.6762 18.6894Z" fill="white"/>
</svg>