<svg width="90" height="23" viewBox="0 0 90 23" fill="none" xmlns="http://www.w3.org/2000/svg">
<path d="M16.5359 1.5799V21.387C16.5865 21.7446 16.3337 22.0508 15.9798 22.1014H13.4022C13.0473 22.1529 12.744 21.8973 12.6934 21.5396V20.3149C11.6326 21.6931 10.0147 22.5105 7.79008 22.5105C3.74534 22.5105 0.458984 19.0388 0.458984 14.4959C0.458984 9.95215 3.7959 6.48134 7.79008 6.48134C9.96413 6.48134 11.582 7.29778 12.6943 8.67599V1.52934C12.6428 1.17168 12.8956 0.864578 13.2495 0.814018H15.8281C16.182 0.763459 16.4853 1.01813 16.5359 1.37579C16.5865 1.47784 16.5865 1.52934 16.5359 1.5799ZM12.6943 14.5474C12.6943 12.1992 10.8236 10.3613 8.54847 10.3613C6.22275 10.3613 4.40261 12.2498 4.40261 14.5465C4.40261 16.8956 6.2733 18.7336 8.54847 18.7336C10.8236 18.7336 12.6943 16.8956 12.6943 14.5474ZM30.642 6.94012C30.9959 6.88863 31.2992 7.14423 31.3498 7.50189V21.387C31.4003 21.7446 31.1476 22.0508 30.7936 22.1014H28.1636C27.8097 22.1529 27.5063 21.8973 27.4558 21.5396V20.519C26.5963 21.7952 25.2312 22.5105 23.3605 22.5105C20.5797 22.5105 18.4562 20.3664 18.4562 16.64V7.65451C18.4057 7.29778 18.6585 6.99068 19.0124 6.94012H21.6415C21.9954 6.88863 22.2987 7.14423 22.3493 7.50189V16.3339C22.3493 18.0688 23.3605 18.8852 24.7256 18.8852C26.2424 18.8852 27.4558 18.0173 27.4558 15.7206V7.65451C27.4052 7.29778 27.658 6.99068 28.0119 6.94012H30.641H30.642ZM46.2133 22.1529H43.382C43.0281 22.1529 42.7247 21.9993 42.5225 21.6941L37.5686 15.2618V21.387C37.6182 21.7446 37.3663 22.0508 37.0124 22.1014H34.3833C34.0294 22.1529 33.7261 21.8973 33.6755 21.5396V1.5799C33.625 1.22224 33.8778 0.916073 34.2317 0.865514H36.8598C37.2137 0.814019 37.518 1.06962 37.5676 1.42728V13.628L42.2191 7.39984C42.4213 7.09274 42.7247 6.94012 43.0786 6.94012H45.9605C46.5672 6.94012 46.7694 7.34834 46.4155 7.80806L41.3596 14.4444L46.7189 21.2334C47.0222 21.7446 46.82 22.1529 46.2133 22.1529ZM54.2017 6.5319C57.5386 6.5319 60.3193 8.52244 60.3193 12.5045V21.4375C60.3699 21.7952 60.1171 22.1023 59.7632 22.1529H57.2352C56.8813 22.2034 56.5779 21.9487 56.5274 21.5911V20.8252C55.6679 21.8973 54.3533 22.5611 52.4321 22.5611C49.7524 22.5611 47.3762 20.9788 47.3762 17.8141C47.3762 14.6485 49.7524 13.0147 52.4321 13.0147C53.8983 12.9127 55.3645 13.423 56.5274 14.3424V12.7086C56.5274 10.9221 55.6173 10.1563 54.2017 10.1563C53.0894 10.1563 52.2298 10.615 51.9771 11.4324C51.8254 11.8406 51.6737 12.0962 51.2187 12.0962H48.8424C48.4885 12.1468 48.1851 11.8921 48.1345 11.5345V11.3304C48.4885 8.26777 51.1175 6.5319 54.2017 6.5319ZM56.5274 17.7626C56.5274 16.5885 55.4656 15.8732 53.7972 15.8732C52.1287 15.8732 51.2692 16.6906 51.2692 17.7626C51.2692 18.8347 52.0782 19.6511 53.7972 19.6511C55.5162 19.6511 56.5274 18.8852 56.5274 17.7626ZM68.9135 6.5319C72.2504 6.5319 75.0312 8.52244 75.0312 12.5045V21.4375C75.0817 21.7952 74.8289 22.1023 74.475 22.1529H71.947C71.5931 22.2034 71.2898 21.9487 71.2392 21.5911V20.8252C70.3797 21.8973 69.0652 22.5611 67.1439 22.5611C64.4643 22.5611 62.088 20.9788 62.088 17.8141C62.088 14.6485 64.4643 13.0147 67.1439 13.0147C68.6101 12.9127 70.0763 13.423 71.2392 14.3424V12.7086C71.2392 10.9221 70.3291 10.1563 68.9135 10.1563C67.8012 10.1563 66.9417 10.615 66.6889 11.4324C66.5372 11.8406 66.3855 12.0962 65.9305 12.0962H63.5036C63.1497 12.1468 62.8464 11.8921 62.7958 11.5345V11.3304C63.2003 8.26777 65.8294 6.5319 68.9135 6.5319ZM71.2392 17.7626C71.2392 16.5885 70.1775 15.8732 68.509 15.8732C66.8406 15.8732 65.981 16.6906 65.981 17.7626C65.981 18.8347 66.79 19.6511 68.509 19.6511C70.228 19.6511 71.2392 18.8852 71.2392 17.7626ZM84.9904 6.5319C87.7712 6.5319 89.8947 8.72655 89.8947 12.4024V21.387C89.9452 21.7446 89.6924 22.0508 89.3385 22.1014H86.7094C86.3555 22.1529 86.0522 21.8973 86.0016 21.5396V12.7086C86.0016 10.9727 84.9904 10.1563 83.6262 10.1563C82.1095 10.1563 80.896 11.0242 80.896 13.3209V21.387C80.9466 21.7446 80.6938 22.0508 80.3399 22.1014H77.7108C77.3569 22.1529 77.0535 21.8973 77.003 21.5396V7.65451C76.9524 7.29778 77.2052 6.99068 77.5591 6.94012H80.1882C80.5421 6.88863 80.8455 7.14423 80.896 7.50189V8.47188C81.705 7.24629 83.1207 6.5319 84.9904 6.5319Z" fill="white"/>
</svg>