<svg width="105" height="22" viewBox="0 0 105 22" fill="none" xmlns="http://www.w3.org/2000/svg">
<path d="M4.29909 14.3421C4.29909 15.5471 4.56356 16.4721 4.90923 17.0318C5.36245 17.7649 6.03843 18.0754 6.72759 18.0754C7.61647 18.0754 8.42963 17.8548 9.99669 15.6875C11.2521 13.9504 12.7314 11.512 13.7267 9.98334L15.4123 7.39352C16.5832 5.59491 17.9384 3.59549 19.4923 2.24022C20.7609 1.13406 22.1293 0.519531 23.5065 0.519531C25.8187 0.519531 28.0212 1.85943 29.7067 4.37243C31.5514 7.12466 32.4469 10.5913 32.4469 14.1687C32.4469 16.2955 32.0277 17.8581 31.3144 19.0927C30.6252 20.2866 29.282 21.4795 27.0225 21.4795V18.0754C28.9572 18.0754 29.4401 16.2977 29.4401 14.2631C29.4401 11.3638 28.7641 8.14632 27.2749 5.84731C26.2182 4.2166 24.8486 3.22018 23.3419 3.22018C21.7123 3.22018 20.4009 4.44925 18.9272 6.64072C18.1436 7.80504 17.3393 9.22395 16.4361 10.825L15.4419 12.5863C13.4447 16.1276 12.9388 16.9341 11.9401 18.2653C10.1898 20.5961 8.69519 21.4795 6.72759 21.4795C4.39346 21.4795 2.91749 20.4688 2.00337 18.9456C1.25715 17.7045 0.890625 16.076 0.890625 14.2203L4.29909 14.3421Z" fill="white"/>
<path d="M3.57812 4.61276C5.14079 2.20401 7.39591 0.519531 9.98244 0.519531C11.4804 0.519531 12.9695 0.962873 14.5245 2.23254C16.2254 3.62073 18.0383 5.90657 20.3 9.67388L21.111 11.0258C23.0687 14.2873 24.1825 15.9652 24.8344 16.7564C25.6728 17.7725 26.2599 18.0754 27.0226 18.0754C28.9572 18.0754 29.4401 16.2977 29.4401 14.2631L32.4469 14.1687C32.4469 16.2955 32.0277 17.8581 31.3144 19.0927C30.6252 20.2866 29.2821 21.4795 27.0226 21.4795C25.6179 21.4795 24.3735 21.1744 22.9974 19.8762C21.9395 18.8798 20.7027 17.1097 19.7513 15.5185L16.9212 10.791C15.5012 8.41847 14.1986 6.6495 13.4447 5.84841C12.6337 4.98697 11.5912 3.94665 9.92757 3.94665C8.58108 3.94665 7.43761 4.89149 6.4807 6.33674L3.57812 4.61276Z" fill="white"/>
<path d="M9.92755 3.94665C8.58106 3.94665 7.43759 4.89149 6.48068 6.33674C5.12761 8.37897 4.29909 11.4209 4.29909 14.3421C4.29909 15.5471 4.56356 16.4721 4.90923 17.0318L2.00337 18.9456C1.25715 17.7045 0.890625 16.076 0.890625 14.2203C0.890625 10.8459 1.81681 7.32877 3.57811 4.61276C5.14078 2.20401 7.39589 0.519531 9.98242 0.519531L9.92755 3.94665Z" fill="white"/>
<path d="M39.0723 1.18237H43.0152L49.719 13.3106L56.424 1.18237H60.2813V21.1108H57.0649V5.83746L51.1851 16.414H48.1674L42.2887 5.83746V21.1108H39.0723V1.18237ZM70.3597 8.61273C68.053 8.61273 66.6637 10.3488 66.3312 12.4986H74.1599C73.9986 10.284 72.7212 8.61273 70.3597 8.61273ZM63.1422 13.7232C63.1422 9.19983 66.0656 5.90769 70.4156 5.90769C74.6943 5.90769 77.249 9.15813 77.249 13.9647V14.848H66.3312C66.7186 17.1866 68.2703 18.7624 70.7723 18.7624C72.7684 18.7624 74.0161 18.1534 75.1991 17.0395L76.9077 19.1322C75.2979 20.6126 73.2502 21.4663 70.6582 21.4663C65.9493 21.4663 63.1422 18.0326 63.1422 13.7232ZM81.1491 8.89805H78.1884V6.26434H81.1491V1.90884H84.2525V6.26434H88.7507V8.89805H84.2525V15.5734C84.2525 17.8527 84.9812 18.6625 86.7721 18.6625C87.5896 18.6625 88.0582 18.5923 88.7507 18.4771V21.0823C87.8881 21.3259 87.0651 21.4378 86.174 21.4378C82.8237 21.4378 81.1491 19.6074 81.1491 15.9432V8.89805ZM101.818 11.4593C101.195 9.8857 99.8046 8.72686 97.7613 8.72686C95.1056 8.72686 93.4058 10.6111 93.4058 13.6804C93.4058 16.673 94.9706 18.6483 97.634 18.6483C99.7278 18.6483 101.222 17.4302 101.818 15.9147V11.4593ZM104.922 21.1108H101.875V19.0324C101.024 20.2559 99.4743 21.4663 96.9646 21.4663C92.9284 21.4663 90.231 18.0875 90.231 13.6804C90.231 9.23166 92.9931 5.90769 97.1357 5.90769C99.1835 5.90769 100.79 6.72634 101.875 8.17159V6.26434H104.922V21.1108Z" fill="white"/>
</svg>