<svg width="96" height="22" viewBox="0 0 96 22" fill="none" xmlns="http://www.w3.org/2000/svg">
<path d="M47.2042 12.2463C47.177 12.3652 47.1484 12.4596 47.1344 12.556C46.955 13.7723 46.7775 14.9887 46.5987 16.205C46.3973 17.5748 46.1992 18.9454 45.9919 20.3146C45.8908 20.9825 45.6549 21.1799 44.9683 21.1819C43.6676 21.1859 42.3668 21.1833 41.0668 21.1826C40.9677 21.1826 40.868 21.1813 40.771 21.168C40.2798 21.1028 39.9641 20.714 40.0226 20.2169C40.0871 19.6698 40.1755 19.1255 40.2559 18.5798C40.4107 17.5316 40.5676 16.4835 40.7225 15.4353C40.9365 13.9817 41.1478 12.5274 41.3625 11.0732C41.6304 9.25598 41.9009 7.43947 42.1701 5.62229C42.3708 4.26639 42.5735 2.91115 42.7683 1.55392C42.848 0.996271 42.9637 0.651313 43.8444 0.63669C44.5084 0.626056 45.173 0.634696 45.8377 0.634032C46.3887 0.634032 46.9403 0.630709 47.4913 0.636026C47.6455 0.637355 47.7997 0.660618 47.9539 0.679229C48.281 0.718443 48.4897 0.913188 48.6219 1.20165C48.6751 1.3173 48.7216 1.43561 48.7695 1.55325C49.813 4.10355 50.8558 6.65384 51.9 9.20414C51.9419 9.30649 51.9917 9.40553 52.0502 9.53381C52.1546 9.42746 52.1553 9.31447 52.1699 9.21344C52.346 8.0257 52.5195 6.83662 52.6943 5.64888C52.8957 4.27902 53.0977 2.90916 53.3011 1.5393C53.3177 1.42763 53.3363 1.31398 53.3749 1.20896C53.4726 0.943098 53.6414 0.741707 53.9365 0.687869C54.0887 0.660618 54.2436 0.637355 54.3978 0.63669C55.656 0.632703 56.9142 0.632703 58.1724 0.63669C58.3266 0.637355 58.4835 0.655301 58.6337 0.689199C59.0949 0.79355 59.3469 1.16111 59.2797 1.63102C59.174 2.37211 59.0617 3.11254 58.952 3.85364C58.7081 5.50332 58.4648 7.15234 58.2209 8.80202C57.9504 10.6332 57.6786 12.4643 57.4087 14.2954C57.1694 15.9172 56.9321 17.5389 56.6935 19.1607C56.6357 19.5522 56.5792 19.9437 56.5194 20.3345C56.5041 20.4322 56.4855 20.5306 56.4556 20.6243C56.3679 20.9008 56.1851 21.0862 55.8966 21.1454C55.7597 21.1733 55.6161 21.1819 55.4759 21.1819C54.2316 21.1846 52.9881 21.1806 51.7438 21.1853C51.23 21.1873 50.8984 21.1228 50.6186 20.4329C49.5631 17.8267 48.4897 15.2279 47.4209 12.6265C47.3671 12.5008 47.3365 12.3586 47.2042 12.2463Z" fill="white"/>
<path d="M76.7988 13.1634C76.8287 11.7583 77.0062 10.5453 77.282 9.34297C77.6529 7.72785 78.2837 6.22638 79.2009 4.84522C80.2876 3.20883 81.6807 1.91474 83.468 1.07661C84.8877 0.410622 86.3892 0.0929156 87.9564 0.204578C89.3708 0.305606 90.7041 0.689114 91.8939 1.50531C93.1933 2.39729 94.1278 3.57705 94.6928 5.0393C95.2909 6.58929 95.5528 8.19377 95.4039 9.8614C95.2624 11.4473 94.9613 12.9953 94.3578 14.4728C93.6698 16.157 92.6888 17.6505 91.3469 18.8855C90.0242 20.1038 88.4955 20.9539 86.7295 21.3613C85.6873 21.6019 84.6391 21.7123 83.5744 21.5866C82.3381 21.4404 81.1736 21.0881 80.1321 20.3736C78.9789 19.582 78.1441 18.5378 77.607 17.2564C77.189 16.2594 76.9497 15.2139 76.8547 14.1371C76.8208 13.7563 76.8101 13.3741 76.7988 13.1634ZM89.5137 9.47523C89.5257 8.87837 89.4838 8.28616 89.3476 7.70591C89.1934 7.05056 88.9262 6.44838 88.4297 5.96916C88.1778 5.72656 87.8827 5.5697 87.539 5.51121C86.891 5.40088 86.2722 5.47731 85.6993 5.82028C85.2699 6.07683 84.909 6.41249 84.5873 6.79201C84.0403 7.4354 83.6647 8.1745 83.3723 8.96212C82.7688 10.5892 82.6119 12.2582 82.9024 13.9663C83.0101 14.6011 83.244 15.19 83.6521 15.6984C83.9672 16.0912 84.3706 16.3279 84.8784 16.3757C85.567 16.4409 86.1971 16.286 86.7614 15.8799C87.236 15.5376 87.6454 15.1295 87.9638 14.6383C88.9787 13.067 89.4998 11.3462 89.5137 9.47523Z" fill="white"/>
<path d="M26.8681 0.63522C27.4756 0.63522 28.0838 0.631232 28.6913 0.637878C28.8594 0.639872 29.0309 0.654495 29.1944 0.690386C29.6557 0.79075 29.9083 1.15365 29.8511 1.62822C29.8119 1.95058 29.7567 2.27094 29.7089 2.59264C29.2968 5.37357 28.884 8.1545 28.4719 10.9354C28.329 11.8998 28.1788 12.8629 28.0525 13.8294C28.0107 14.1491 27.9954 14.4827 28.0373 14.8004C28.129 15.4903 28.4826 16.0221 29.1452 16.2879C29.6211 16.4787 30.1156 16.4574 30.5915 16.2647C31.3878 15.9416 31.9528 15.3694 32.321 14.6004C32.4619 14.3066 32.5603 13.9995 32.6081 13.6732C32.9092 11.6041 33.2169 9.53632 33.5233 7.46791C33.7945 5.63744 34.0677 3.80697 34.3402 1.9765C34.3734 1.75317 34.4047 1.52918 34.4486 1.30785C34.5183 0.950267 34.7324 0.73226 35.0986 0.679752C35.2375 0.659812 35.3784 0.638543 35.5186 0.637878C36.7622 0.634555 38.0065 0.634555 39.25 0.637878C39.3903 0.638543 39.5325 0.65383 39.6694 0.681746C40.1792 0.785432 40.4404 1.14568 40.3753 1.66411C40.3275 2.0423 40.2643 2.41916 40.2085 2.79602C40.0503 3.85815 39.8901 4.91961 39.7332 5.98173C39.5166 7.4493 39.3032 8.91753 39.0859 10.3844C38.935 11.4047 38.7901 12.4256 38.6246 13.4432C38.4332 14.6223 38.0969 15.7562 37.5086 16.805C36.951 17.7994 36.2684 18.6927 35.3917 19.4304C34.1887 20.4434 32.8148 21.0914 31.2768 21.4217C29.6471 21.7714 28.0412 21.7115 26.4727 21.1585C24.3856 20.4234 23.0118 18.9944 22.3837 16.8529C22.0055 15.5628 21.9875 14.2647 22.1843 12.9493C22.4933 10.8816 22.7951 8.81251 23.1002 6.74409C23.3541 5.02529 23.6126 3.30648 23.8592 1.58701C23.9596 0.889119 24.2314 0.639872 24.9592 0.636549C25.596 0.633225 26.232 0.63522 26.8681 0.63522Z" fill="white"/>
<path d="M68.8226 5.97379C68.7422 5.95119 68.691 5.9266 68.6385 5.92394C68.5116 5.91663 68.384 5.91862 68.257 5.91862C66.2777 5.91862 64.299 5.91929 62.3196 5.91729C62.1508 5.91729 61.9787 5.91663 61.8125 5.89004C61.312 5.80962 61.0448 5.46865 61.0847 4.96683C61.1006 4.77009 61.1385 4.57535 61.1678 4.37927C61.306 3.44277 61.4436 2.50627 61.5839 1.56976C61.6025 1.44414 61.6244 1.31786 61.6616 1.19689C61.7434 0.935015 61.9155 0.757551 62.1894 0.70039C62.3409 0.669151 62.4958 0.652535 62.6493 0.637248C62.733 0.628607 62.8188 0.635254 62.9039 0.635254C67.696 0.635254 72.4882 0.634589 77.2804 0.637913C77.5051 0.637913 77.7344 0.649211 77.9524 0.695738C78.3857 0.789454 78.631 1.18692 78.5559 1.6236C78.5187 1.84028 78.4097 2.01774 78.2781 2.18723C77.767 2.84591 77.2558 3.50458 76.7474 4.16525C74.5154 7.06582 72.2848 9.96706 70.0529 12.8683C69.355 13.7755 68.6565 14.6821 67.9593 15.5901C67.9028 15.6638 67.8582 15.7463 67.7958 15.844C67.944 15.9191 68.0709 15.8971 68.1919 15.8971C69.6761 15.8985 71.1602 15.8985 72.6444 15.8985C73.1389 15.8985 73.6341 15.8958 74.1286 15.9005C74.2689 15.9018 74.4084 15.9231 74.548 15.9397C75.0731 16.0022 75.3257 16.5392 75.2585 16.9287C75.1914 17.3182 75.1409 17.711 75.0824 18.1025C74.9761 18.815 74.8704 19.5282 74.762 20.2407C74.7454 20.3523 74.7228 20.4633 74.6969 20.573C74.6171 20.9146 74.3951 21.1087 74.0548 21.1599C73.902 21.1832 73.7451 21.1832 73.5902 21.1832C71.6395 21.1845 69.6887 21.1838 67.7379 21.1838C64.9251 21.1838 62.1116 21.1838 59.2988 21.1832C59.1432 21.1832 58.9877 21.1825 58.8328 21.1705C58.103 21.112 57.9375 20.3224 58.1974 19.905C58.2499 19.8213 58.3058 19.7395 58.3662 19.6611C60.8767 16.387 63.3884 13.1129 65.8988 9.83878C66.8187 8.63907 67.7359 7.43737 68.6532 6.23566C68.7123 6.16056 68.7575 6.07615 68.8226 5.97379Z" fill="white"/>
<path d="M0.977463 20.5564C1.71058 19.4756 6.48549 12.8676 7.40471 11.6001C7.53565 11.4193 7.83408 11.2611 8.10592 11.5004C8.11922 11.5124 8.35982 11.733 8.37245 11.7443C9.59875 12.8317 10.4861 13.5701 11.711 14.6589C11.7682 14.7094 11.826 14.7585 11.8852 14.8077C12.0101 14.9114 12.1976 14.8868 12.2886 14.7532C12.3219 14.7047 12.3511 14.6555 12.3843 14.6097C13.388 13.2258 14.3883 11.8394 15.3892 10.4536C16.6388 8.72412 17.8877 6.99468 19.1386 5.26656L19.1406 5.26391C19.2635 5.09442 19.5208 5.121 19.6105 5.30977C19.6145 5.31774 19.6178 5.32572 19.6218 5.33369C19.9867 6.05817 20.2074 6.83184 20.3802 7.62012C20.6633 8.91089 20.5982 10.1997 20.3616 11.4918C19.9774 13.5874 19.0542 15.4186 17.6856 17.0357C16.3444 18.6215 14.7027 19.7927 12.7579 20.5191C11.6266 20.9419 10.4528 21.1818 9.23651 21.1811C6.77794 21.1798 4.31936 21.1831 1.86079 21.1825C1.73384 21.1825 1.60623 21.1765 1.48127 21.1565C1.2626 21.1227 1.0878 21.0303 0.976134 20.8628C0.913656 20.7704 0.91432 20.6488 0.977463 20.5564Z" fill="white"/>
<path d="M11.5914 10.7939C11.5655 10.8404 11.4584 11.0046 11.2431 10.8458C11.1274 10.76 11.168 10.7972 11.0749 10.7181C9.84067 9.66134 8.78519 8.75208 7.55225 7.69262C7.20397 7.37824 6.86367 7.52247 6.69418 7.90531C5.89326 9.55765 5.21398 10.9368 4.4144 12.5898C3.32569 14.8404 2.23632 17.0909 1.14561 19.3408C1.04591 19.5681 0.908328 19.5109 0.922951 19.4072C1.0818 18.3172 1.24199 17.2271 1.40283 16.1378C1.6441 14.5027 1.88538 12.8683 2.12665 11.2333C2.36792 9.5982 2.60786 7.9638 2.84847 6.32874C3.06647 4.84788 3.28382 3.36636 3.50315 1.8855C3.52974 1.70405 3.55433 1.52127 3.5982 1.34314C3.68328 0.999512 3.88201 0.762229 4.25156 0.709057C4.39047 0.689117 4.53138 0.671171 4.67162 0.671171C7.10228 0.669177 9.53227 0.657213 11.9629 0.674494C13.3806 0.684464 14.7365 0.992201 16.0027 1.64955C16.0114 1.6542 16.02 1.65885 16.0286 1.66351C15.9495 1.83765 13.1021 7.676 11.5914 10.7939Z" fill="white"/>
</svg>