<svg width="103" height="29" viewBox="0 0 103 29" fill="none" xmlns="http://www.w3.org/2000/svg">
<path fill-rule="evenodd" clip-rule="evenodd" d="M23.2444 16.7313L23.125 23.3081H27.1546V16.7313C27.1546 15.2282 28.3767 14.0054 29.8804 14.0054H31.7755V10.1541L29.8804 10.0952C26.2148 10.0952 23.2444 13.0657 23.2444 16.7313Z" fill="#F58024"/>
<path fill-rule="evenodd" clip-rule="evenodd" d="M72.7015 10.0952C69.0362 10.0952 66.0645 13.0657 66.0645 16.7313C66.0645 20.3965 69.0362 23.3673 72.7015 23.3673C76.3658 23.3673 79.3369 20.3965 79.3369 16.7313C79.3369 13.0657 76.3658 10.0952 72.7015 10.0952ZM75.0708 16.7313C75.0708 18.0379 74.0075 19.101 72.7015 19.101C71.3939 19.101 70.3312 18.0379 70.3312 16.7313C70.3312 15.4243 71.3939 14.361 72.7015 14.361C74.0075 14.361 75.0708 15.4243 75.0708 16.7313Z" fill="#F58024"/>
<path fill-rule="evenodd" clip-rule="evenodd" d="M44.6524 19.6741C43.1606 19.6741 41.9473 18.4608 41.9473 16.9691C41.9473 15.4774 43.1606 14.2637 44.6524 14.2637C46.1438 14.2637 47.3574 15.4774 47.3574 16.9691C47.3574 18.4608 46.1438 19.6741 44.6524 19.6741ZM38.0716 16.7782L38.0664 28.4402H41.734V22.873C42.6138 23.3088 43.6043 23.5548 44.6524 23.5548C48.2893 23.5548 51.2377 20.6058 51.2377 16.9691C51.2377 13.3321 48.2893 10.3828 44.6524 10.3828C41.0792 10.3828 38.1724 13.2297 38.0716 16.7782Z" fill="#F58024"/>
<path fill-rule="evenodd" clip-rule="evenodd" d="M58.4593 19.678C56.9679 19.678 55.754 18.464 55.754 16.9723C55.754 15.4809 56.9679 14.2672 58.4593 14.2672C59.9504 14.2672 61.1641 15.4809 61.1641 16.9723C61.1641 18.464 59.9504 19.678 58.4593 19.678ZM55.5406 11.0684V5.50122H51.873V17.1635C51.9797 20.7117 54.8858 23.5586 58.4593 23.5586C62.096 23.5586 65.045 20.6092 65.045 16.9723C65.045 13.3359 62.096 10.3866 58.4593 10.3866C57.411 10.3866 56.4205 10.6329 55.5406 11.0684Z" fill="#F58024"/>
<path fill-rule="evenodd" clip-rule="evenodd" d="M32.8398 10.1393L37.0086 10.1299V23.3126H32.8398V10.1393Z" fill="#F58024"/>
<path fill-rule="evenodd" clip-rule="evenodd" d="M93.7832 0.56567V9.93572H103V0.559814H99.5283V1.81508H101.745V8.68046H95.0385V1.82093H97.3291V0.56567H93.7832Z" fill="#F58024"/>
<path fill-rule="evenodd" clip-rule="evenodd" d="M97.4338 7.56838C97.0764 7.4464 96.7449 7.26587 96.4395 7.02744L96.9345 6.27637C97.1967 6.47186 97.4644 6.62019 97.7363 6.7207C98.0076 6.82154 98.2688 6.87196 98.5196 6.87196C98.7574 6.87196 98.9425 6.82479 99.0739 6.72981C99.205 6.63515 99.2707 6.50862 99.2707 6.34955V6.33134C99.2707 6.23961 99.2414 6.16057 99.1839 6.09323C99.1256 6.0259 99.0463 5.96637 98.9454 5.91433C98.8449 5.86261 98.7285 5.81674 98.5974 5.77706C98.466 5.73738 98.33 5.69606 98.1895 5.65313C98.0122 5.60434 97.8336 5.54644 97.6537 5.4791C97.4732 5.41209 97.3115 5.32492 97.1678 5.21823C97.0243 5.11121 96.9069 4.97849 96.8148 4.81943C96.7234 4.66069 96.6779 4.4652 96.6779 4.23295V4.21473C96.6779 3.98248 96.7218 3.77625 96.8106 3.59637C96.8987 3.41617 97.0211 3.26166 97.1772 3.1335C97.3327 3.00534 97.5165 2.90743 97.7266 2.8401C97.9377 2.77309 98.1621 2.73926 98.4002 2.73926C98.7057 2.73926 99.0141 2.78838 99.3257 2.88596C99.6373 2.98387 99.9213 3.11821 100.178 3.28931L99.7381 4.07714C99.5059 3.93694 99.2707 3.82537 99.0326 3.74275C98.7942 3.66045 98.5743 3.61914 98.3729 3.61914C98.1589 3.61914 97.9927 3.66501 97.8733 3.75641C97.7542 3.84814 97.6947 3.96427 97.6947 4.10479V4.123C97.6947 4.20888 97.725 4.28337 97.7864 4.34745C97.8473 4.41185 97.9283 4.46975 98.0291 4.52147C98.1299 4.57352 98.2461 4.62101 98.3771 4.66362C98.5089 4.70623 98.6445 4.7521 98.7851 4.80089C98.9623 4.85619 99.1393 4.92027 99.3166 4.99346C99.4938 5.06697 99.6542 5.15707 99.7977 5.26377C99.9411 5.37078 100.059 5.50057 100.15 5.65313C100.242 5.80601 100.288 5.9924 100.288 6.21229V6.2305C100.288 6.48682 100.242 6.70997 100.15 6.89928C100.059 7.08892 99.932 7.24603 99.77 7.37126C99.6083 7.4965 99.4174 7.59115 99.1975 7.65523C98.9776 7.71964 98.7421 7.75152 98.492 7.75152C98.1436 7.75152 97.791 7.69036 97.4338 7.56838Z" fill="#F58024"/>
<path fill-rule="evenodd" clip-rule="evenodd" d="M17.6725 19.4571C16.1691 19.4571 14.9467 18.2344 14.9467 16.7313C14.9467 15.2282 16.1691 14.0054 17.6725 14.0054C18.517 14.0054 19.2628 14.4 19.7638 15.0047L22.7892 12.5055C21.5713 11.033 19.7319 10.0952 17.6725 10.0952C14.0066 10.0952 11.0352 13.0657 11.0352 16.7313C11.0352 20.3965 14.0066 23.3673 17.6725 23.3673C19.7189 23.3673 21.5473 22.4403 22.7648 20.984L19.754 18.4693C19.2534 19.0681 18.5114 19.4571 17.6725 19.4571Z" fill="#F58024"/>
<path fill-rule="evenodd" clip-rule="evenodd" d="M10.4763 20.8241C10.1846 21.3823 9.79097 21.8565 9.29752 22.2456C8.80309 22.6346 8.22832 22.9303 7.57222 23.1326C6.91548 23.3349 6.2145 23.4361 5.46863 23.4361C4.4479 23.4361 3.47173 23.3144 2.54045 23.0718C1.60787 22.8288 0.761809 22.4723 0 22.0019L1.60494 18.9638C1.83101 19.1261 2.09839 19.2761 2.40643 19.4137C2.71415 19.5516 3.03455 19.6729 3.36731 19.7783C3.6991 19.8837 4.03089 19.9647 4.363 20.0213C4.69511 20.0782 4.99925 20.1062 5.27509 20.1062C6.19791 20.1062 6.66014 19.8232 6.66014 19.2559C6.66014 18.9807 6.51864 18.7693 6.23467 18.6236C5.95102 18.4778 5.59874 18.3402 5.17815 18.2104C4.75594 18.081 4.29794 17.9388 3.80416 17.785C3.31006 17.6308 2.85174 17.4164 2.43083 17.1406C2.00959 16.8651 1.65633 16.5047 1.37301 16.059C1.08904 15.6134 0.947544 15.0344 0.947544 14.3207C0.947544 13.689 1.08156 13.1182 1.34927 12.6078C1.61632 12.0968 1.98161 11.6593 2.44254 11.295C2.90379 10.9303 3.46002 10.6467 4.10733 10.4444C4.75594 10.2414 5.45302 10.1399 6.19791 10.1399C7.08951 10.1399 7.85945 10.2176 8.50806 10.3708C9.15569 10.5254 9.8043 10.7478 10.4519 11.0399L8.99403 14.0052C8.62093 13.8107 8.22409 13.6487 7.80285 13.5192C7.38063 13.3895 6.98444 13.3241 6.61134 13.3241C6.15758 13.3241 5.80074 13.4093 5.54214 13.5794C5.28289 13.7502 5.15343 13.9727 5.15343 14.2482C5.15343 14.4759 5.29525 14.6581 5.57825 14.7953C5.86189 14.9329 6.21905 15.0627 6.6481 15.184C7.07715 15.3057 7.53904 15.4391 8.0338 15.5848C8.5279 15.7312 8.9898 15.9377 9.41917 16.2051C9.84822 16.4728 10.2047 16.8208 10.489 17.2505C10.772 17.6799 10.9135 18.2348 10.9135 18.9153C10.9135 19.6283 10.7681 20.2639 10.4763 20.8241Z" fill="#F58024"/>
<path fill-rule="evenodd" clip-rule="evenodd" d="M37.1303 5.91671C37.1303 7.22337 36.0673 8.28671 34.761 8.28671C33.453 8.28671 32.3906 7.22337 32.3906 5.91671C32.3906 4.60973 33.453 3.54639 34.761 3.54639C36.0673 3.54639 37.1303 4.60973 37.1303 5.91671Z" fill="#F58024"/>
<path fill-rule="evenodd" clip-rule="evenodd" d="M85.2629 13.5891L82.6961 10.0835H78.0586L82.9703 16.7205L78.1542 23.2987H82.687L85.2629 19.8182L87.8388 23.2987H92.3716L87.5555 16.7205L92.4669 10.0835H87.8297L85.2629 13.5891Z" fill="#F58024"/>
</svg>