<svg width="111" height="46" viewBox="0 0 111 46" fill="none" xmlns="http://www.w3.org/2000/svg">
<path d="M41.3346 37.2016V32.0773L27.8009 45.5319C26.2938 45.8386 24.7335 45.9999 23.1351 45.9999C20.6871 45.9999 18.3279 45.6221 16.1131 44.921C6.76901 41.966 0 33.269 0 22.9999C0 10.2972 10.3577 0 23.1351 0C34.4151 0 43.8092 8.02483 45.8562 18.6453C46.1276 20.0553 46.2701 21.5108 46.2701 22.9999C46.2701 28.3599 44.4261 33.291 41.3346 37.2016Z" fill="#056A67"/>
<path d="M48.3056 18.6455V43.9148H41.3342V32.0775L27.8005 45.5321C26.2933 45.8388 24.7331 46.0001 23.1346 46.0001C20.6866 46.0001 18.3275 45.6223 16.1127 44.9213L35.5714 25.5762H21.9624V18.6455H48.3056Z" fill="#37ED81"/>
<path d="M60.3802 23.8772H62.6623V28.1819C62.0493 28.6311 61.3604 28.97 60.6275 29.1832C59.8748 29.4145 59.091 29.5328 58.3026 29.5341C57.2519 29.552 56.2136 29.309 55.2835 28.8276C54.4117 28.3792 53.6828 27.7024 53.1774 26.8718C52.6788 26.0107 52.4166 25.0367 52.4166 24.0457C52.4166 23.0546 52.6788 22.0807 53.1774 21.2196C53.6836 20.3835 54.4183 19.7042 55.2978 19.2591C56.2385 18.7787 57.2857 18.5359 58.3454 18.5526C59.2255 18.5422 60.0993 18.7011 60.9175 19.0205C61.6658 19.3191 62.332 19.7872 62.862 20.3867L61.2598 21.8419C60.9049 21.4633 60.473 21.1627 59.9921 20.9595C59.5112 20.7563 58.9922 20.6552 58.469 20.6628C57.832 20.6498 57.2022 20.7964 56.6385 21.0886C56.1099 21.3549 55.6707 21.766 55.3739 22.2724C55.0796 22.8169 54.9257 23.4242 54.9257 24.041C54.9257 24.6578 55.0796 25.2651 55.3739 25.8097C55.665 26.3169 56.0949 26.7335 56.6148 27.0121C57.1701 27.309 57.7943 27.459 58.4262 27.4473C59.1021 27.4515 59.7686 27.2908 60.366 26.9794L60.3802 23.8772ZM68.2582 21.3787C68.7947 21.1679 69.3685 21.0645 69.946 21.0745V23.2549C69.6798 23.2549 69.4991 23.2269 69.4088 23.2269C69.1145 23.2097 68.8197 23.2509 68.542 23.3482C68.2643 23.4454 68.0093 23.5967 67.7923 23.793C67.5816 24.0235 67.4206 24.2938 67.3193 24.5873C67.2179 24.8809 67.1783 25.1917 67.2027 25.5008V29.3516H64.8256V21.1962H67.1219V22.2724C67.4092 21.8766 67.8026 21.5672 68.2582 21.3787ZM72.8985 28.9352C72.2262 28.5959 71.6632 28.079 71.2725 27.4426C70.8893 26.782 70.6878 26.0345 70.6878 25.2739C70.6878 24.5133 70.8893 23.7658 71.2725 23.1052C71.6611 22.4636 72.2243 21.9418 72.8985 21.5986C73.6274 21.2445 74.4295 21.0604 75.2424 21.0604C76.0553 21.0604 76.8573 21.2445 77.5863 21.5986C78.2549 21.9395 78.8144 22.4562 79.2028 23.0912C79.5891 23.7507 79.7925 24.4986 79.7925 25.2599C79.7925 26.0212 79.5891 26.7691 79.2028 27.4286C78.8144 28.0636 78.2549 28.5802 77.5863 28.9212C76.8573 29.2752 76.0553 29.4594 75.2424 29.4594C74.4295 29.4594 73.6274 29.2752 72.8985 28.9212V28.9352ZM76.7685 26.9186C77.1491 26.4549 77.3566 25.8769 77.3566 25.2809C77.3566 24.6849 77.1491 24.1069 76.7685 23.6433C76.5764 23.4354 76.3412 23.2705 76.0787 23.1599C75.8162 23.0493 75.5326 22.9956 75.2471 23.0023C74.9632 22.9928 74.6805 23.0426 74.4175 23.1482C74.1545 23.2538 73.9171 23.413 73.721 23.6152C73.3371 24.0774 73.1274 24.6559 73.1274 25.2529C73.1274 25.8498 73.3371 26.4283 73.721 26.8905C73.9177 27.092 74.1551 27.2507 74.418 27.3563C74.6809 27.4618 74.9633 27.512 75.2471 27.5034C75.5282 27.5161 75.8088 27.4706 76.0709 27.3699C76.3329 27.2691 76.5706 27.1154 76.7685 26.9186ZM94.4738 21.1962L91.4738 29.3516H89.1632L87.2994 24.289L85.3692 29.3516H83.0585L80.0728 21.1962H82.3359L84.2947 26.7127L86.3248 21.1962H88.3597L90.3327 26.7127L92.3486 21.1962H94.4738ZM101.177 28.9586C100.915 29.1397 100.62 29.2699 100.307 29.3423C99.9517 29.4317 99.5858 29.4758 99.2186 29.4733C98.3874 29.5249 97.568 29.2584 96.9318 28.7293C96.6489 28.4422 96.4307 28.0996 96.2914 27.7239C96.1522 27.3482 96.095 26.9479 96.1235 26.5489V23.1988H94.8351V21.3787H96.114V19.3901H98.5197V21.3787H100.583V23.1988H98.5197V26.5162C98.4989 26.8054 98.5946 27.0911 98.786 27.3116C98.8863 27.4089 99.0063 27.4842 99.1382 27.5325C99.2701 27.5809 99.411 27.6013 99.5514 27.5923C99.8941 27.5989 100.229 27.4918 100.502 27.2882L101.177 28.9586ZM110.049 21.9823C110.683 22.5905 111 23.4904 111 24.682V29.361H108.623V25.0563C108.662 24.5372 108.508 24.0218 108.19 23.6059C108.029 23.443 107.833 23.3168 107.617 23.236C107.401 23.1552 107.17 23.1217 106.94 23.138C106.676 23.1282 106.413 23.1726 106.167 23.2685C105.921 23.3644 105.699 23.5095 105.513 23.6948C105.311 23.9179 105.154 24.1782 105.054 24.4609C104.954 24.7435 104.911 25.0429 104.929 25.3418V29.375H102.551V18.1455H104.929V22.0665C105.257 21.7477 105.651 21.502 106.084 21.3459C106.558 21.1776 107.059 21.0937 107.563 21.0979C108.016 21.0763 108.469 21.1433 108.896 21.295C109.323 21.4468 109.715 21.6804 110.049 21.9823ZM54.2281 45.4613C53.5714 45.2672 52.9639 44.9387 52.4452 44.4974L53.0157 43.3137C53.4788 43.7072 54.0148 44.009 54.5942 44.2027C55.2302 44.4278 55.9008 44.5433 56.5767 44.5442C57.2762 44.586 57.9726 44.4232 58.5783 44.0763C58.7814 43.9492 58.9485 43.7736 59.0641 43.5658C59.1796 43.358 59.2399 43.1248 59.2392 42.8879C59.2458 42.723 59.217 42.5587 59.1548 42.4055C59.0925 42.2523 58.9981 42.1138 58.8778 41.9989C58.6229 41.7614 58.3176 41.5824 57.984 41.4748C57.6322 41.3532 57.1282 41.2175 56.4816 41.0678C55.8151 40.9182 55.1592 40.726 54.5181 40.4922C54.025 40.302 53.5862 39.997 53.2392 39.6032C52.8625 39.1443 52.6727 38.5639 52.7067 37.975C52.7056 37.4296 52.8713 36.8965 53.1821 36.4449C53.525 35.958 54.0039 35.5794 54.5609 35.3547C55.288 35.0589 56.0708 34.9186 56.8572 34.943C57.4914 34.9421 58.1229 35.0239 58.7352 35.1863C59.3024 35.324 59.8402 35.5601 60.3232 35.8835L59.8145 37.0953C59.3637 36.8153 58.8757 36.598 58.3644 36.4496C57.8749 36.3074 57.3676 36.2334 56.8572 36.2297C56.1693 36.1817 55.4831 36.3452 54.8937 36.6976C54.6902 36.8296 54.5236 37.0097 54.409 37.2214C54.2944 37.4331 54.2354 37.6696 54.2376 37.9095C54.2316 38.0751 54.2616 38.24 54.3255 38.3933C54.3895 38.5466 54.4859 38.6848 54.6084 38.7985C54.874 39.035 55.1864 39.215 55.526 39.3272C56.0124 39.4887 56.5076 39.623 57.0094 39.7296C57.6686 39.8816 58.3166 40.077 58.9492 40.3144C59.4369 40.5051 59.8718 40.8065 60.2186 41.1941C60.5923 41.64 60.7824 42.2077 60.7511 42.7849C60.75 43.3286 60.5845 43.8596 60.2756 44.3103C59.9196 44.804 59.4235 45.1832 58.8493 45.4005C58.1148 45.6875 57.3287 45.8244 56.5387 45.8029C55.7549 45.8112 54.9748 45.6958 54.2281 45.4613ZM65.6386 45.2695C65.0006 44.9281 64.4696 44.4217 64.1029 43.805C63.7446 43.1592 63.5568 42.4352 63.5568 41.6994C63.5568 40.9636 63.7446 40.2397 64.1029 39.5939C64.47 38.9798 65.0011 38.4765 65.6386 38.1387C66.3241 37.7843 67.0894 37.6057 67.8636 37.6194C68.5493 37.6068 69.2278 37.7577 69.8414 38.0592C70.4114 38.34 70.882 38.7836 71.1917 39.3319L70.0649 40.0431C69.8301 39.6778 69.5023 39.3793 69.114 39.1775C68.7235 38.9839 68.2913 38.8859 67.8541 38.892C67.3565 38.8867 66.8658 39.0059 66.4278 39.2383C66.0048 39.469 65.657 39.8129 65.4246 40.2302C65.1773 40.6844 65.0529 41.1936 65.0633 41.7088C65.0513 42.2301 65.1757 42.7457 65.4246 43.206C65.657 43.6234 66.0048 43.9673 66.4278 44.198C66.8649 44.4326 67.3563 44.5518 67.8541 44.5442C68.2913 44.5503 68.7235 44.4524 69.114 44.2588C69.5023 44.0569 69.8301 43.7585 70.0649 43.3932L71.2107 44.0576C70.8988 44.6066 70.4291 45.0526 69.8604 45.3396C69.2501 45.6528 68.5709 45.8135 67.8826 45.8075C67.1045 45.8141 66.338 45.6223 65.6576 45.2508L65.6386 45.2695ZM81.366 38.485C81.6897 38.835 81.938 39.246 82.0957 39.6932C82.2534 40.1403 82.3173 40.6143 82.2836 41.0865V45.7093H80.805V41.2502C80.8533 40.6147 80.6487 39.9855 80.2345 39.4956C80.0195 39.2891 79.7628 39.1295 79.481 39.0271C79.1992 38.9247 78.8987 38.8819 78.599 38.9014C78.2506 38.8815 77.9018 38.9327 77.5745 39.0519C77.2472 39.1711 76.9485 39.3556 76.6972 39.5939C76.4536 39.8608 76.2666 40.173 76.1474 40.5121C76.0282 40.8512 75.9791 41.2104 76.0031 41.5684V45.7093H74.5245V34.4798H76.0031V38.8312C76.3282 38.4207 76.7557 38.1 77.244 37.9001C77.7732 37.6805 78.3432 37.5721 78.9175 37.5819C79.3679 37.5601 79.8182 37.6272 80.2419 37.779C80.6657 37.9309 81.0543 38.1645 81.385 38.4663L81.366 38.485ZM87.9223 45.2695C87.2874 44.929 86.7608 44.4221 86.4009 43.805C86.0455 43.1583 85.8594 42.4346 85.8594 41.6994C85.8594 40.9642 86.0455 40.2406 86.4009 39.5939C86.7612 38.9794 87.2879 38.4756 87.9223 38.1387C88.5969 37.7957 89.3452 37.6167 90.1045 37.6167C90.8639 37.6167 91.6121 37.7957 92.2868 38.1387C92.9165 38.4786 93.4394 38.9819 93.7987 39.5939C94.154 40.2406 94.3401 40.9642 94.3401 41.6994C94.3401 42.4346 94.154 43.1583 93.7987 43.805C93.4398 44.4196 92.917 44.9261 92.2868 45.2695C91.6135 45.6167 90.8647 45.798 90.1045 45.798C89.3444 45.798 88.5956 45.6167 87.9223 45.2695ZM91.5166 44.1699C91.9322 43.9334 92.2717 43.5864 92.496 43.1686C92.7273 42.709 92.8476 42.203 92.8476 41.6901C92.8476 41.1771 92.7273 40.6711 92.496 40.2115C92.2713 39.7964 91.9317 39.4525 91.5166 39.2196C91.0826 38.9922 90.5985 38.8733 90.1069 38.8733C89.6153 38.8733 89.1312 38.9922 88.6972 39.2196C88.2828 39.455 87.9423 39.7982 87.7131 40.2115C87.4756 40.6693 87.3518 41.176 87.3518 41.6901C87.3518 42.2041 87.4756 42.7108 87.7131 43.1686C87.9419 43.5846 88.2823 43.931 88.6972 44.1699C89.1292 44.4034 89.6141 44.5258 90.1069 44.5258C90.5997 44.5258 91.0846 44.4034 91.5166 44.1699ZM99.2424 45.2695C98.6088 44.9289 98.0838 44.4219 97.7258 43.805C97.3704 43.1583 97.1843 42.4346 97.1843 41.6994C97.1843 40.9642 97.3704 40.2406 97.7258 39.5939C98.0844 38.9798 98.6095 38.4759 99.2424 38.1387C99.9184 37.7975 100.667 37.6196 101.427 37.6196C102.187 37.6196 102.936 37.7975 103.612 38.1387C104.24 38.4789 104.761 38.9822 105.119 39.5939C105.474 40.2406 105.66 40.9642 105.66 41.6994C105.66 42.4346 105.474 43.1583 105.119 43.805C104.762 44.4193 104.24 44.9258 103.612 45.2695C102.938 45.6167 102.188 45.798 101.427 45.798C100.666 45.798 99.9166 45.6167 99.2424 45.2695ZM102.841 44.1699C103.256 43.9331 103.594 43.586 103.816 43.1686C104.052 42.7102 104.175 42.2038 104.175 41.6901C104.175 41.1764 104.052 40.6699 103.816 40.2115C103.593 39.7968 103.255 39.4528 102.841 39.2196C102.405 38.9836 101.913 38.8642 101.415 38.8733C100.917 38.8629 100.425 38.9823 99.9888 39.2196C99.5721 39.4535 99.2297 39.797 98.9999 40.2115C98.7625 40.6693 98.6386 41.176 98.6386 41.6901C98.6386 42.2041 98.7625 42.7108 98.9999 43.1686C99.2527 43.5892 99.6222 43.93 100.065 44.1512C100.498 44.3958 100.992 44.5188 101.491 44.5068C101.971 44.5074 102.443 44.3848 102.86 44.1512L102.841 44.1699ZM109.255 34.4611H110.734V45.6906H109.255V34.4611Z" fill="white"/>
</svg>