<svg width="167" height="42" viewBox="0 0 167 42" fill="none" xmlns="http://www.w3.org/2000/svg">
<rect x="0.342213" y="0.342213" width="166.316" height="40.3811" rx="6.50205" stroke="white" stroke-width="0.684426"/>
<path d="M41.93 17V10.02H42.77V16.26H45.74V17H41.93ZM47.2598 10.63C47.0864 10.63 46.9598 10.59 46.8798 10.51C46.8064 10.4233 46.7698 10.3133 46.7698 10.18V10.05C46.7698 9.91667 46.8064 9.81 46.8798 9.73C46.9598 9.64333 47.0864 9.6 47.2598 9.6C47.4331 9.6 47.5564 9.64333 47.6298 9.73C47.7098 9.81 47.7498 9.91667 47.7498 10.05V10.18C47.7498 10.3133 47.7098 10.4233 47.6298 10.51C47.5564 10.59 47.4331 10.63 47.2598 10.63ZM46.8598 11.84H47.6598V17H46.8598V11.84ZM49.3598 17V11.84H50.1598V12.68H50.1998C50.3264 12.3867 50.5031 12.1533 50.7298 11.98C50.9631 11.8067 51.2731 11.72 51.6598 11.72C52.1931 11.72 52.6131 11.8933 52.9198 12.24C53.2331 12.58 53.3898 13.0633 53.3898 13.69V17H52.5898V13.83C52.5898 12.9033 52.1998 12.44 51.4198 12.44C51.2598 12.44 51.1031 12.46 50.9498 12.5C50.8031 12.54 50.6698 12.6 50.5498 12.68C50.4298 12.76 50.3331 12.8633 50.2598 12.99C50.1931 13.11 50.1598 13.2533 50.1598 13.42V17H49.3598ZM55.0434 9.6H55.8434V14.29H55.8834L56.6734 13.41L58.1334 11.84H59.1034L57.1934 13.88L59.2934 17H58.3234L56.6134 14.37L55.8434 15.16V17H55.0434V9.6ZM62.0908 17.12C61.7374 17.12 61.4174 17.0567 61.1308 16.93C60.8508 16.8033 60.6074 16.6233 60.4008 16.39C60.2008 16.15 60.0441 15.8667 59.9308 15.54C59.8241 15.2067 59.7708 14.8333 59.7708 14.42C59.7708 14.0133 59.8241 13.6433 59.9308 13.31C60.0441 12.9767 60.2008 12.6933 60.4008 12.46C60.6074 12.22 60.8508 12.0367 61.1308 11.91C61.4174 11.7833 61.7374 11.72 62.0908 11.72C62.4374 11.72 62.7474 11.7833 63.0208 11.91C63.2941 12.0367 63.5274 12.2133 63.7208 12.44C63.9141 12.66 64.0608 12.9233 64.1608 13.23C64.2674 13.5367 64.3208 13.8733 64.3208 14.24V14.62H60.6108V14.86C60.6108 15.08 60.6441 15.2867 60.7108 15.48C60.7841 15.6667 60.8841 15.83 61.0108 15.97C61.1441 16.11 61.3041 16.22 61.4908 16.3C61.6841 16.38 61.9008 16.42 62.1408 16.42C62.4674 16.42 62.7508 16.3433 62.9908 16.19C63.2374 16.0367 63.4274 15.8167 63.5608 15.53L64.1308 15.94C63.9641 16.2933 63.7041 16.58 63.3508 16.8C62.9974 17.0133 62.5774 17.12 62.0908 17.12ZM62.0908 12.39C61.8708 12.39 61.6708 12.43 61.4908 12.51C61.3108 12.5833 61.1541 12.69 61.0208 12.83C60.8941 12.97 60.7941 13.1367 60.7208 13.33C60.6474 13.5167 60.6108 13.7233 60.6108 13.95V14.02H63.4608V13.91C63.4608 13.45 63.3341 13.0833 63.0808 12.81C62.8341 12.53 62.5041 12.39 62.0908 12.39ZM68.9391 16.16H68.8991C68.5857 16.8 68.0824 17.12 67.3891 17.12C67.0691 17.12 66.7791 17.0567 66.5191 16.93C66.2591 16.8033 66.0357 16.6233 65.8491 16.39C65.6691 16.1567 65.5291 15.8733 65.4291 15.54C65.3357 15.2067 65.2891 14.8333 65.2891 14.42C65.2891 14.0067 65.3357 13.6333 65.4291 13.3C65.5291 12.9667 65.6691 12.6833 65.8491 12.45C66.0357 12.2167 66.2591 12.0367 66.5191 11.91C66.7791 11.7833 67.0691 11.72 67.3891 11.72C67.7491 11.72 68.0557 11.8 68.3091 11.96C68.5691 12.1133 68.7657 12.3533 68.8991 12.68H68.9391V9.6H69.7391V17H68.9391V16.16ZM67.6091 16.4C67.7891 16.4 67.9591 16.3767 68.1191 16.33C68.2857 16.2833 68.4291 16.2167 68.5491 16.13C68.6691 16.0367 68.7624 15.9267 68.8291 15.8C68.9024 15.6667 68.9391 15.5167 68.9391 15.35V13.43C68.9391 13.29 68.9024 13.16 68.8291 13.04C68.7624 12.9133 68.6691 12.8067 68.5491 12.72C68.4291 12.6333 68.2857 12.5667 68.1191 12.52C67.9591 12.4667 67.7891 12.44 67.6091 12.44C67.1557 12.44 66.7991 12.5833 66.5391 12.87C66.2791 13.15 66.1491 13.52 66.1491 13.98V14.86C66.1491 15.32 66.2791 15.6933 66.5391 15.98C66.7991 16.26 67.1557 16.4 67.6091 16.4ZM71.1898 17V16.3H72.1698V10.72H71.1898V10.02H73.9898V10.72H73.0098V16.3H73.9898V17H71.1898ZM75.4438 17V11.84H76.2438V12.68H76.2838C76.4104 12.3867 76.5871 12.1533 76.8138 11.98C77.0471 11.8067 77.3571 11.72 77.7438 11.72C78.2771 11.72 78.6971 11.8933 79.0038 12.24C79.3171 12.58 79.4738 13.0633 79.4738 13.69V17H78.6738V13.83C78.6738 12.9033 78.2838 12.44 77.5038 12.44C77.3438 12.44 77.1871 12.46 77.0338 12.5C76.8871 12.54 76.7538 12.6 76.6338 12.68C76.5138 12.76 76.4171 12.8633 76.3438 12.99C76.2771 13.11 76.2438 13.2533 76.2438 13.42V17H75.4438Z" fill="white"/>
<path d="M44.795 25.2831V31.8611H43.552V25.2831H41.264V24.1831H47.083V25.2831H44.795ZM49.7309 31.9931C49.3349 31.9931 48.9719 31.9234 48.6419 31.7841C48.3192 31.6448 48.0442 31.4468 47.8169 31.1901C47.5896 30.9261 47.4136 30.6108 47.2889 30.2441C47.1642 29.8701 47.1019 29.4558 47.1019 29.0011C47.1019 28.5464 47.1642 28.1358 47.2889 27.7691C47.4136 27.3951 47.5896 27.0798 47.8169 26.8231C48.0442 26.5591 48.3192 26.3574 48.6419 26.2181C48.9719 26.0788 49.3349 26.0091 49.7309 26.0091C50.1269 26.0091 50.4862 26.0788 50.8089 26.2181C51.1389 26.3574 51.4176 26.5591 51.6449 26.8231C51.8722 27.0798 52.0482 27.3951 52.1729 27.7691C52.2976 28.1358 52.3599 28.5464 52.3599 29.0011C52.3599 29.4558 52.2976 29.8701 52.1729 30.2441C52.0482 30.6108 51.8722 30.9261 51.6449 31.1901C51.4176 31.4468 51.1389 31.6448 50.8089 31.7841C50.4862 31.9234 50.1269 31.9931 49.7309 31.9931ZM49.7309 31.0031C50.1416 31.0031 50.4716 30.8784 50.7209 30.6291C50.9702 30.3724 51.0949 29.9911 51.0949 29.4851V28.5171C51.0949 28.0111 50.9702 27.6334 50.7209 27.3841C50.4716 27.1274 50.1416 26.9991 49.7309 26.9991C49.3202 26.9991 48.9902 27.1274 48.7409 27.3841C48.4916 27.6334 48.3669 28.0111 48.3669 28.5171V29.4851C48.3669 29.9911 48.4916 30.3724 48.7409 30.6291C48.9902 30.8784 49.3202 31.0031 49.7309 31.0031ZM53.6959 26.1411H54.8949V27.0871H54.9499C55.0746 26.7424 55.2762 26.4784 55.5549 26.2951C55.8409 26.1044 56.1746 26.0091 56.5559 26.0091C57.2819 26.0091 57.8429 26.2731 58.2389 26.8011C58.6349 27.3218 58.8329 28.0551 58.8329 29.0011C58.8329 29.9471 58.6349 30.6841 58.2389 31.2121C57.8429 31.7328 57.2819 31.9931 56.5559 31.9931C56.1746 31.9931 55.8409 31.8978 55.5549 31.7071C55.2762 31.5164 55.0746 31.2524 54.9499 30.9151H54.8949V34.0611H53.6959V26.1411ZM56.1929 30.9591C56.6109 30.9591 56.9446 30.8271 57.1939 30.5631C57.4432 30.2918 57.5679 29.9361 57.5679 29.4961V28.5061C57.5679 28.0661 57.4432 27.7141 57.1939 27.4501C56.9446 27.1788 56.6109 27.0431 56.1929 27.0431C55.8262 27.0431 55.5182 27.1348 55.2689 27.3181C55.0196 27.4941 54.8949 27.7288 54.8949 28.0221V29.9801C54.8949 30.2734 55.0196 30.5118 55.2689 30.6951C55.5182 30.8711 55.8262 30.9591 56.1929 30.9591ZM65.1923 31.9931C64.5469 31.9931 63.9969 31.8758 63.5423 31.6411C63.0949 31.4064 62.7099 31.0911 62.3873 30.6951L63.2453 29.8921C63.5166 30.2221 63.8136 30.4714 64.1363 30.6401C64.4663 30.8088 64.8403 30.8931 65.2583 30.8931C65.7496 30.8931 66.1199 30.7831 66.3693 30.5631C66.6186 30.3431 66.7433 30.0461 66.7433 29.6721C66.7433 29.3714 66.6553 29.1331 66.4793 28.9571C66.3033 28.7811 65.9916 28.6491 65.5443 28.5611L64.8623 28.4401C64.1143 28.3008 63.5533 28.0551 63.1793 27.7031C62.8053 27.3511 62.6183 26.8671 62.6183 26.2511C62.6183 25.9138 62.6806 25.6094 62.8053 25.3381C62.9373 25.0594 63.1169 24.8284 63.3443 24.6451C63.5789 24.4544 63.8613 24.3078 64.1913 24.2051C64.5213 24.1024 64.8916 24.0511 65.3023 24.0511C65.8816 24.0511 66.3839 24.1538 66.8093 24.3591C67.2346 24.5571 67.5976 24.8468 67.8983 25.2281L67.0293 25.9981C66.8313 25.7414 66.5893 25.5361 66.3033 25.3821C66.0173 25.2281 65.6616 25.1511 65.2363 25.1511C64.7963 25.1511 64.4553 25.2391 64.2133 25.4151C63.9713 25.5911 63.8503 25.8478 63.8503 26.1851C63.8503 26.5078 63.9493 26.7498 64.1473 26.9111C64.3453 27.0651 64.6533 27.1824 65.0713 27.2631L65.7533 27.4061C66.5233 27.5528 67.0843 27.8021 67.4363 28.1541C67.7956 28.5061 67.9753 28.9901 67.9753 29.6061C67.9753 29.9654 67.9129 30.2918 67.7883 30.5851C67.6636 30.8784 67.4803 31.1314 67.2383 31.3441C67.0036 31.5494 66.7139 31.7108 66.3693 31.8281C66.0246 31.9381 65.6323 31.9931 65.1923 31.9931ZM70.942 31.8611C70.524 31.8611 70.2087 31.7548 69.996 31.5421C69.7833 31.3221 69.677 31.0141 69.677 30.6181V27.1201H68.786V26.1411H69.27C69.468 26.1411 69.6037 26.0971 69.677 26.0091C69.7577 25.9211 69.798 25.7781 69.798 25.5801V24.5791H70.876V26.1411H72.075V27.1201H70.876V30.8821H71.987V31.8611H70.942ZM77.5666 31.8611C77.2512 31.8611 77.0092 31.7731 76.8406 31.5971C76.6719 31.4138 76.5692 31.1828 76.5326 30.9041H76.4776C76.3676 31.2634 76.1659 31.5348 75.8726 31.7181C75.5792 31.9014 75.2236 31.9931 74.8056 31.9931C74.2116 31.9931 73.7532 31.8391 73.4306 31.5311C73.1152 31.2231 72.9576 30.8088 72.9576 30.2881C72.9576 29.7161 73.1629 29.2871 73.5736 29.0011C73.9916 28.7151 74.6002 28.5721 75.3996 28.5721H76.4336V28.0881C76.4336 27.7361 76.3382 27.4648 76.1476 27.2741C75.9569 27.0834 75.6599 26.9881 75.2566 26.9881C74.9192 26.9881 74.6442 27.0614 74.4316 27.2081C74.2189 27.3548 74.0392 27.5418 73.8926 27.7691L73.1776 27.1201C73.3682 26.7974 73.6359 26.5334 73.9806 26.3281C74.3252 26.1154 74.7762 26.0091 75.3336 26.0091C76.0742 26.0091 76.6426 26.1814 77.0386 26.5261C77.4346 26.8708 77.6326 27.3658 77.6326 28.0111V30.8821H78.2376V31.8611H77.5666ZM75.1466 31.0801C75.5206 31.0801 75.8286 30.9994 76.0706 30.8381C76.3126 30.6694 76.4336 30.4458 76.4336 30.1671V29.3421H75.4216C74.5929 29.3421 74.1786 29.5988 74.1786 30.1121V30.3101C74.1786 30.5668 74.2629 30.7611 74.4316 30.8931C74.6076 31.0178 74.8459 31.0801 75.1466 31.0801ZM79.4127 31.8611V26.1411H80.6117V27.2411H80.6667C80.7474 26.9478 80.916 26.6911 81.1727 26.4711C81.4294 26.2511 81.785 26.1411 82.2397 26.1411H82.5587V27.2961H82.0857C81.609 27.2961 81.2424 27.3731 80.9857 27.5271C80.7364 27.6811 80.6117 27.9084 80.6117 28.2091V31.8611H79.4127ZM85.2506 31.8611C84.8326 31.8611 84.5173 31.7548 84.3046 31.5421C84.0919 31.3221 83.9856 31.0141 83.9856 30.6181V27.1201H83.0946V26.1411H83.5786C83.7766 26.1411 83.9123 26.0971 83.9856 26.0091C84.0663 25.9211 84.1066 25.7781 84.1066 25.5801V24.5791H85.1846V26.1411H86.3836V27.1201H85.1846V30.8821H86.2956V31.8611H85.2506ZM91.1492 30.9151H91.1052C91.0538 31.0544 90.9842 31.1901 90.8962 31.3221C90.8155 31.4541 90.7092 31.5714 90.5772 31.6741C90.4525 31.7694 90.2985 31.8464 90.1152 31.9051C89.9392 31.9638 89.7338 31.9931 89.4992 31.9931C88.9052 31.9931 88.4432 31.8024 88.1132 31.4211C87.7905 31.0398 87.6292 30.4934 87.6292 29.7821V26.1411H88.8282V29.6281C88.8282 30.5154 89.1948 30.9591 89.9282 30.9591C90.0822 30.9591 90.2325 30.9408 90.3792 30.9041C90.5258 30.8601 90.6542 30.7978 90.7642 30.7171C90.8815 30.6364 90.9732 30.5338 91.0392 30.4091C91.1125 30.2844 91.1492 30.1378 91.1492 29.9691V26.1411H92.3482V31.8611H91.1492V30.9151ZM94.065 26.1411H95.264V27.0871H95.319C95.4437 26.7424 95.6454 26.4784 95.924 26.2951C96.21 26.1044 96.5437 26.0091 96.925 26.0091C97.651 26.0091 98.212 26.2731 98.608 26.8011C99.004 27.3218 99.202 28.0551 99.202 29.0011C99.202 29.9471 99.004 30.6841 98.608 31.2121C98.212 31.7328 97.651 31.9931 96.925 31.9931C96.5437 31.9931 96.21 31.8978 95.924 31.7071C95.6454 31.5164 95.4437 31.2524 95.319 30.9151H95.264V34.0611H94.065V26.1411ZM96.562 30.9591C96.98 30.9591 97.3137 30.8271 97.563 30.5631C97.8124 30.2918 97.937 29.9361 97.937 29.4961V28.5061C97.937 28.0661 97.8124 27.7141 97.563 27.4501C97.3137 27.1788 96.98 27.0431 96.562 27.0431C96.1954 27.0431 95.8874 27.1348 95.638 27.3181C95.3887 27.4941 95.264 27.7288 95.264 28.0221V29.9801C95.264 30.2734 95.3887 30.5118 95.638 30.6951C95.8874 30.8711 96.1954 30.9591 96.562 30.9591ZM102.932 31.8611V30.8491H103.977V25.1951H102.932V24.1831H106.276V25.1951H105.22V30.8491H106.276V31.8611H102.932ZM107.751 31.8611V26.1411H108.95V27.0871H109.005C109.129 26.7791 109.316 26.5224 109.566 26.3171C109.822 26.1118 110.171 26.0091 110.611 26.0091C111.197 26.0091 111.652 26.2034 111.975 26.5921C112.305 26.9734 112.47 27.5198 112.47 28.2311V31.8611H111.271V28.3851C111.271 27.4904 110.911 27.0431 110.193 27.0431C110.039 27.0431 109.885 27.0651 109.731 27.1091C109.584 27.1458 109.452 27.2044 109.335 27.2851C109.217 27.3658 109.122 27.4684 109.049 27.5931C108.983 27.7178 108.95 27.8644 108.95 28.0331V31.8611H107.751ZM117.728 30.9151H117.673C117.549 31.2524 117.343 31.5164 117.057 31.7071C116.779 31.8978 116.449 31.9931 116.067 31.9931C115.341 31.9931 114.78 31.7328 114.384 31.2121C113.988 30.6841 113.79 29.9471 113.79 29.0011C113.79 28.0551 113.988 27.3218 114.384 26.8011C114.78 26.2731 115.341 26.0091 116.067 26.0091C116.449 26.0091 116.779 26.1044 117.057 26.2951C117.343 26.4784 117.549 26.7424 117.673 27.0871H117.728V23.7211H118.927V31.8611H117.728V30.9151ZM116.43 30.9591C116.797 30.9591 117.105 30.8711 117.354 30.6951C117.604 30.5118 117.728 30.2734 117.728 29.9801V28.0221C117.728 27.7288 117.604 27.4941 117.354 27.3181C117.105 27.1348 116.797 27.0431 116.43 27.0431C116.012 27.0431 115.679 27.1788 115.429 27.4501C115.18 27.7141 115.055 28.0661 115.055 28.5061V29.4961C115.055 29.9361 115.18 30.2918 115.429 30.5631C115.679 30.8271 116.012 30.9591 116.43 30.9591ZM121.246 25.1181C120.997 25.1181 120.814 25.0594 120.696 24.9421C120.586 24.8248 120.531 24.6744 120.531 24.4911V24.3041C120.531 24.1208 120.586 23.9704 120.696 23.8531C120.814 23.7358 120.997 23.6771 121.246 23.6771C121.496 23.6771 121.675 23.7358 121.785 23.8531C121.895 23.9704 121.95 24.1208 121.95 24.3041V24.4911C121.95 24.6744 121.895 24.8248 121.785 24.9421C121.675 25.0594 121.496 25.1181 121.246 25.1181ZM120.641 26.1411H121.84V31.8611H120.641V26.1411ZM127.743 31.8611C127.428 31.8611 127.186 31.7731 127.017 31.5971C126.849 31.4138 126.746 31.1828 126.709 30.9041H126.654C126.544 31.2634 126.343 31.5348 126.049 31.7181C125.756 31.9014 125.4 31.9931 124.982 31.9931C124.388 31.9931 123.93 31.8391 123.607 31.5311C123.292 31.2231 123.134 30.8088 123.134 30.2881C123.134 29.7161 123.34 29.2871 123.75 29.0011C124.168 28.7151 124.777 28.5721 125.576 28.5721H126.61V28.0881C126.61 27.7361 126.515 27.4648 126.324 27.2741C126.134 27.0834 125.837 26.9881 125.433 26.9881C125.096 26.9881 124.821 27.0614 124.608 27.2081C124.396 27.3548 124.216 27.5418 124.069 27.7691L123.354 27.1201C123.545 26.7974 123.813 26.5334 124.157 26.3281C124.502 26.1154 124.953 26.0091 125.51 26.0091C126.251 26.0091 126.819 26.1814 127.215 26.5261C127.611 26.8708 127.809 27.3658 127.809 28.0111V30.8821H128.414V31.8611H127.743ZM125.323 31.0801C125.697 31.0801 126.005 30.9994 126.247 30.8381C126.489 30.6694 126.61 30.4458 126.61 30.1671V29.3421H125.598C124.77 29.3421 124.355 29.5988 124.355 30.1121V30.3101C124.355 30.5668 124.44 30.7611 124.608 30.8931C124.784 31.0178 125.023 31.0801 125.323 31.0801ZM137.282 31.8611H132.068V30.6731L134.521 28.4841C134.91 28.1321 135.207 27.7984 135.412 27.4831C135.625 27.1604 135.731 26.8231 135.731 26.4711V26.3281C135.731 25.9541 135.617 25.6608 135.39 25.4481C135.17 25.2354 134.869 25.1291 134.488 25.1291C134.275 25.1291 134.088 25.1621 133.927 25.2281C133.773 25.2868 133.637 25.3711 133.52 25.4811C133.403 25.5911 133.304 25.7194 133.223 25.8661C133.15 26.0128 133.091 26.1704 133.047 26.3391L131.958 25.9211C132.039 25.6791 132.149 25.4481 132.288 25.2281C132.427 25.0008 132.603 24.7991 132.816 24.6231C133.029 24.4471 133.278 24.3078 133.564 24.2051C133.857 24.1024 134.198 24.0511 134.587 24.0511C134.976 24.0511 135.324 24.1098 135.632 24.2271C135.94 24.3371 136.197 24.4948 136.402 24.7001C136.615 24.8981 136.776 25.1364 136.886 25.4151C136.996 25.6938 137.051 25.9981 137.051 26.3281C137.051 26.6361 137.003 26.9221 136.908 27.1861C136.813 27.4501 136.681 27.6994 136.512 27.9341C136.343 28.1688 136.145 28.3924 135.918 28.6051C135.698 28.8178 135.463 29.0341 135.214 29.2541L133.41 30.8051H137.282V31.8611ZM141.227 31.9931C140.75 31.9931 140.336 31.9051 139.984 31.7291C139.632 31.5458 139.342 31.2854 139.115 30.9481C138.887 30.6108 138.719 30.1964 138.609 29.7051C138.499 29.2138 138.444 28.6528 138.444 28.0221C138.444 27.3988 138.499 26.8414 138.609 26.3501C138.719 25.8514 138.887 25.4334 139.115 25.0961C139.342 24.7588 139.632 24.5021 139.984 24.3261C140.336 24.1428 140.75 24.0511 141.227 24.0511C142.18 24.0511 142.88 24.3994 143.328 25.0961C143.782 25.7928 144.01 26.7681 144.01 28.0221C144.01 29.2761 143.782 30.2514 143.328 30.9481C142.88 31.6448 142.18 31.9931 141.227 31.9931ZM141.227 30.9371C141.491 30.9371 141.714 30.8858 141.898 30.7831C142.088 30.6731 142.242 30.5191 142.36 30.3211C142.477 30.1231 142.561 29.8884 142.613 29.6171C142.664 29.3384 142.69 29.0304 142.69 28.6931V27.3511C142.69 27.0138 142.664 26.7094 142.613 26.4381C142.561 26.1594 142.477 25.9211 142.36 25.7231C142.242 25.5251 142.088 25.3748 141.898 25.2721C141.714 25.1621 141.491 25.1071 141.227 25.1071C140.963 25.1071 140.735 25.1621 140.545 25.2721C140.361 25.3748 140.211 25.5251 140.094 25.7231C139.976 25.9211 139.892 26.1594 139.841 26.4381C139.789 26.7094 139.764 27.0138 139.764 27.3511V28.6931C139.764 29.0304 139.789 29.3384 139.841 29.6171C139.892 29.8884 139.976 30.1231 140.094 30.3211C140.211 30.5191 140.361 30.6731 140.545 30.7831C140.735 30.8858 140.963 30.9371 141.227 30.9371ZM150.473 31.8611H145.259V30.6731L147.712 28.4841C148.101 28.1321 148.398 27.7984 148.603 27.4831C148.816 27.1604 148.922 26.8231 148.922 26.4711V26.3281C148.922 25.9541 148.809 25.6608 148.581 25.4481C148.361 25.2354 148.061 25.1291 147.679 25.1291C147.467 25.1291 147.28 25.1621 147.118 25.2281C146.964 25.2868 146.829 25.3711 146.711 25.4811C146.594 25.5911 146.495 25.7194 146.414 25.8661C146.341 26.0128 146.282 26.1704 146.238 26.3391L145.149 25.9211C145.23 25.6791 145.34 25.4481 145.479 25.2281C145.619 25.0008 145.795 24.7991 146.007 24.6231C146.22 24.4471 146.469 24.3078 146.755 24.2051C147.049 24.1024 147.39 24.0511 147.778 24.0511C148.167 24.0511 148.515 24.1098 148.823 24.2271C149.131 24.3371 149.388 24.4948 149.593 24.7001C149.806 24.8981 149.967 25.1364 150.077 25.4151C150.187 25.6938 150.242 25.9981 150.242 26.3281C150.242 26.6361 150.195 26.9221 150.099 27.1861C150.004 27.4501 149.872 27.6994 149.703 27.9341C149.535 28.1688 149.337 28.3924 149.109 28.6051C148.889 28.8178 148.655 29.0341 148.405 29.2541L146.601 30.8051H150.473V31.8611ZM157.069 31.8611H151.855V30.6731L154.308 28.4841C154.697 28.1321 154.994 27.7984 155.199 27.4831C155.412 27.1604 155.518 26.8231 155.518 26.4711V26.3281C155.518 25.9541 155.404 25.6608 155.177 25.4481C154.957 25.2354 154.656 25.1291 154.275 25.1291C154.062 25.1291 153.875 25.1621 153.714 25.2281C153.56 25.2868 153.424 25.3711 153.307 25.4811C153.19 25.5911 153.091 25.7194 153.01 25.8661C152.937 26.0128 152.878 26.1704 152.834 26.3391L151.745 25.9211C151.826 25.6791 151.936 25.4481 152.075 25.2281C152.214 25.0008 152.39 24.7991 152.603 24.6231C152.816 24.4471 153.065 24.3078 153.351 24.2051C153.644 24.1024 153.985 24.0511 154.374 24.0511C154.763 24.0511 155.111 24.1098 155.419 24.2271C155.727 24.3371 155.984 24.4948 156.189 24.7001C156.402 24.8981 156.563 25.1364 156.673 25.4151C156.783 25.6938 156.838 25.9981 156.838 26.3281C156.838 26.6361 156.79 26.9221 156.695 27.1861C156.6 27.4501 156.468 27.6994 156.299 27.9341C156.13 28.1688 155.932 28.3924 155.705 28.6051C155.485 28.8178 155.25 29.0341 155.001 29.2541L153.197 30.8051H157.069V31.8611Z" fill="white"/>
<path d="M30.7094 30.71H26.4125V23.9806C26.4125 22.3759 26.3838 20.3102 24.1777 20.3102C21.9397 20.3102 21.5973 22.0586 21.5973 23.8638V30.7095H17.3004V16.8712H21.4254V18.7624H21.4831C21.896 18.0565 22.4925 17.4759 23.2092 17.0822C23.9259 16.6886 24.736 16.4967 25.5531 16.527C29.9082 16.527 30.7112 19.3917 30.7112 23.1185L30.7094 30.71ZM12.452 14.9797C11.9589 14.9797 11.4767 14.8336 11.0666 14.5597C10.6565 14.2857 10.3369 13.8963 10.1481 13.4407C9.95924 12.9851 9.90976 12.4837 10.0059 12C10.102 11.5163 10.3394 11.0719 10.6881 10.7231C11.0368 10.3743 11.481 10.1367 11.9647 10.0404C12.4484 9.9441 12.9498 9.99339 13.4054 10.182C13.8611 10.3707 14.2506 10.6902 14.5247 11.1003C14.7987 11.5103 14.9451 11.9924 14.9451 12.4856C14.9452 12.8131 14.8808 13.1373 14.7555 13.4399C14.6302 13.7424 14.4466 14.0174 14.2151 14.249C13.9836 14.4806 13.7088 14.6643 13.4062 14.7897C13.1037 14.915 12.7795 14.9796 12.452 14.9797M14.6005 30.71H10.2991V16.8712H14.6005V30.71ZM32.8516 6.00198H8.13995C7.57906 5.99565 7.03858 6.21226 6.63732 6.60422C6.23606 6.99618 6.00685 7.53141 6 8.09231V32.9073C6.00661 33.4684 6.23569 34.004 6.63694 34.3964C7.03819 34.7888 7.57878 35.0058 8.13995 34.9998H32.8516C33.4138 35.0069 33.9559 34.7905 34.3588 34.3981C34.7616 34.0058 34.9922 33.4696 35 32.9073V8.09052C34.992 7.52851 34.7612 6.99266 34.3584 6.60072C33.9555 6.20877 33.4136 5.99277 32.8516 6.00018" fill="white"/>
</svg>